<svg width="22" height="16" viewBox="0 0 22 16" fill="none" xmlns="http://www.w3.org/2000/svg">
<path d="M1.06251 8.34787C0.979165 8.12336 0.979165 7.87639 1.06251 7.65187C1.87421 5.68373 3.25202 4.00091 5.02128 2.81677C6.79053 1.63263 8.87155 1.00049 11.0005 1.00049C13.1295 1.00049 15.2105 1.63263 16.9797 2.81677C18.749 4.00091 20.1268 5.68373 20.9385 7.65187C21.0218 7.87639 21.0218 8.12336 20.9385 8.34787C20.1268 10.316 18.749 11.9988 16.9797 13.183C15.2105 14.3671 13.1295 14.9993 11.0005 14.9993C8.87155 14.9993 6.79053 14.3671 5.02128 13.183C3.25202 11.9988 1.87421 10.316 1.06251 8.34787Z" stroke="#7A7A7A" stroke-width="1.5" stroke-linecap="round" stroke-linejoin="round"/>
<path d="M11.0005 10.9999C12.6574 10.9999 14.0005 9.65673 14.0005 7.99987C14.0005 6.34302 12.6574 4.99987 11.0005 4.99987C9.34365 4.99987 8.00051 6.34302 8.00051 7.99987C8.00051 9.65673 9.34365 10.9999 11.0005 10.9999Z" stroke="#7A7A7A" stroke-width="1.5" stroke-linecap="round" stroke-linejoin="round"/>
</svg>
