<svg width="24" height="18" viewBox="0 0 24 18" fill="none" xmlns="http://www.w3.org/2000/svg">
<path d="M22.9503 10.1C22.8715 10.1591 22.7818 10.2021 22.6864 10.2265C22.591 10.251 22.4917 10.2564 22.3942 10.2424C22.2967 10.2285 22.2029 10.1955 22.1182 10.1453C22.0334 10.0952 21.9594 10.0288 21.9003 9.94998C21.4482 9.34235 20.8598 8.84935 20.1824 8.51066C19.5051 8.17196 18.7576 7.99705 18.0003 7.99998C17.8528 7.99997 17.7086 7.95647 17.5857 7.87493C17.4628 7.79339 17.3667 7.67743 17.3093 7.54155C17.2704 7.44927 17.2504 7.35014 17.2504 7.24998C17.2504 7.14983 17.2704 7.0507 17.3093 6.95842C17.3667 6.82254 17.4628 6.70657 17.5857 6.62503C17.7086 6.54349 17.8528 6.5 18.0003 6.49998C18.4211 6.49995 18.8335 6.3819 19.1906 6.15924C19.5477 5.93659 19.8351 5.61825 20.0204 5.2404C20.2056 4.86254 20.2812 4.44031 20.2385 4.02167C20.1958 3.60302 20.0365 3.20474 19.7788 2.87207C19.5211 2.53939 19.1753 2.28566 18.7806 2.13969C18.3859 1.99371 17.9582 1.96135 17.546 2.04628C17.1338 2.13121 16.7538 2.33002 16.4489 2.62013C16.1441 2.91024 15.9267 3.28003 15.8215 3.68748C15.7969 3.7829 15.7537 3.87253 15.6945 3.95125C15.6352 4.02998 15.561 4.09627 15.4761 4.14632C15.3913 4.19638 15.2974 4.22923 15.1998 4.24299C15.1022 4.25676 15.0029 4.25117 14.9075 4.22655C14.8121 4.20192 14.7224 4.15875 14.6437 4.09949C14.565 4.04023 14.4987 3.96604 14.4486 3.88116C14.3986 3.79628 14.3657 3.70237 14.352 3.6048C14.3382 3.50723 14.3438 3.4079 14.3684 3.31248C14.5144 2.74747 14.7903 2.22433 15.1741 1.78469C15.5579 1.34505 16.039 1.00105 16.5791 0.780063C17.1192 0.559073 17.7034 0.467192 18.2853 0.511732C18.8672 0.556271 19.4307 0.736001 19.9309 1.03662C20.4311 1.33724 20.8542 1.75045 21.1666 2.24338C21.479 2.7363 21.672 3.29533 21.7303 3.87599C21.7887 4.45665 21.7107 5.04291 21.5026 5.58812C21.2944 6.13333 20.9619 6.62245 20.5315 7.01655C21.5514 7.45811 22.4379 8.15881 23.1031 9.04905C23.1622 9.12804 23.2051 9.21791 23.2294 9.31352C23.2537 9.40913 23.2589 9.5086 23.2447 9.60622C23.2305 9.70384 23.1972 9.79771 23.1467 9.88243C23.0962 9.96716 23.0294 10.0411 22.9503 10.1ZM17.899 15.875C17.9533 15.9603 17.9897 16.0558 18.0062 16.1556C18.0226 16.2554 18.0186 16.3575 17.9946 16.4558C17.9705 16.554 17.9268 16.6464 17.8661 16.7273C17.8054 16.8082 17.729 16.876 17.6414 16.9267C17.5539 16.9773 17.4569 17.0097 17.3565 17.0219C17.2561 17.0341 17.1543 17.0258 17.0571 16.9976C16.96 16.9695 16.8695 16.9219 16.7913 16.8579C16.713 16.7938 16.6484 16.7146 16.6015 16.625C16.1291 15.825 15.4562 15.162 14.6493 14.7014C13.8424 14.2409 12.9294 13.9986 12.0003 13.9986C11.0712 13.9986 10.1582 14.2409 9.35126 14.7014C8.54436 15.162 7.87149 15.825 7.39903 16.625C7.35215 16.7146 7.28762 16.7938 7.20932 16.8579C7.13103 16.9219 7.04058 16.9695 6.94344 16.9976C6.84629 17.0258 6.74445 17.0341 6.64403 17.0219C6.54362 17.0097 6.44671 16.9773 6.35914 16.9267C6.27156 16.876 6.19514 16.8082 6.13445 16.7273C6.07376 16.6464 6.03007 16.554 6.00601 16.4558C5.98194 16.3575 5.978 16.2554 5.99442 16.1556C6.01083 16.0558 6.04727 15.9603 6.10153 15.875C6.82866 14.6257 7.93734 13.6425 9.26466 13.07C8.51778 12.4981 7.96887 11.7066 7.6951 10.8067C7.42132 9.90677 7.43644 8.94366 7.73833 8.05277C8.04022 7.16188 8.6137 6.38798 9.37816 5.83987C10.1426 5.29175 11.0596 4.99698 12.0003 4.99698C12.9409 4.99698 13.8579 5.29175 14.6224 5.83987C15.3869 6.38798 15.9604 7.16188 16.2622 8.05277C16.5641 8.94366 16.5792 9.90677 16.3055 10.8067C16.0317 11.7066 15.4828 12.4981 14.7359 13.07C16.0632 13.6425 17.1719 14.6257 17.899 15.875ZM12.0003 12.5C12.5936 12.5 13.1736 12.324 13.667 11.9944C14.1603 11.6647 14.5449 11.1962 14.7719 10.648C14.999 10.0999 15.0584 9.49666 14.9426 8.91471C14.8269 8.33277 14.5412 7.79822 14.1216 7.37866C13.702 6.95911 13.1675 6.67338 12.5856 6.55763C12.0036 6.44187 11.4004 6.50128 10.8522 6.72834C10.3041 6.95541 9.83552 7.33993 9.50588 7.83327C9.17623 8.32662 9.00029 8.90664 9.00029 9.49998C9.00029 10.2956 9.31636 11.0587 9.87897 11.6213C10.4416 12.1839 11.2046 12.5 12.0003 12.5ZM6.75029 7.24998C6.75029 7.05107 6.67127 6.86031 6.53061 6.71965C6.38996 6.579 6.1992 6.49998 6.00028 6.49998C5.57947 6.49995 5.16709 6.3819 4.81001 6.15924C4.45292 5.93659 4.16543 5.61825 3.98019 5.2404C3.79495 4.86254 3.71939 4.44031 3.7621 4.02167C3.8048 3.60302 3.96405 3.20474 4.22176 2.87207C4.47947 2.53939 4.82531 2.28566 5.22 2.13969C5.61469 1.99371 6.04241 1.96135 6.45457 2.04628C6.86672 2.13121 7.24681 2.33002 7.55164 2.62013C7.85647 2.91024 8.07383 3.28003 8.17904 3.68748C8.22876 3.88018 8.353 4.04523 8.52442 4.14632C8.69584 4.24742 8.9004 4.27627 9.0931 4.22655C9.28579 4.17682 9.45084 4.05258 9.55194 3.88116C9.65303 3.70974 9.68189 3.50518 9.63216 3.31248C9.48614 2.74747 9.21026 2.22433 8.82648 1.78469C8.4427 1.34505 7.96161 1.00105 7.42149 0.780063C6.88137 0.559073 6.29712 0.467192 5.71525 0.511732C5.13337 0.556271 4.56991 0.736001 4.06972 1.03662C3.56952 1.33724 3.14639 1.75045 2.83399 2.24338C2.52159 2.7363 2.32855 3.29533 2.27022 3.87599C2.2119 4.45665 2.2899 5.04291 2.49801 5.58812C2.70613 6.13333 3.03862 6.62245 3.46903 7.01655C2.45024 7.45852 1.5647 8.15919 0.900284 9.04905C0.780813 9.20818 0.729448 9.40825 0.757491 9.60525C0.785533 9.80225 0.890686 9.98004 1.04982 10.0995C1.20895 10.219 1.40902 10.2704 1.60602 10.2423C1.80302 10.2143 1.98081 10.1091 2.10028 9.94998C2.55233 9.34235 3.14074 8.84935 3.81812 8.51066C4.49551 8.17196 5.24295 7.99705 6.00028 7.99998C6.1992 7.99998 6.38996 7.92097 6.53061 7.78031C6.67127 7.63966 6.75029 7.4489 6.75029 7.24998Z" fill="#7A7A7A"/>
</svg>
