<?xml version="1.0" encoding="UTF-8"?>
<svg version="1.1" xmlns="http://www.w3.org/2000/svg" width="252" height="200">
<path d="M0 0 C83.16 0 166.32 0 252 0 C252 66 252 132 252 200 C168.84 200 85.68 200 0 200 C0 134 0 68 0 0 Z " fill="#45B3F9" transform="translate(0,0)"/>
<path d="M0 0 C3.56293138 0.43402729 7.12524504 0.87295841 10.6875 1.3125 C11.65623047 1.43044922 12.62496094 1.54839844 13.62304688 1.66992188 C21.95705008 2.70175084 30.26634629 3.88262516 38.57788086 5.07885742 C46.31940927 6.19201888 54.06401091 7.28334204 61.80859375 8.375 C62.93331746 8.53355752 62.93331746 8.53355752 64.08076286 8.69531822 C67.95721406 9.24175008 71.83369745 9.78795302 75.71020508 10.33398438 C78.85998975 10.77767562 82.00972802 11.22169402 85.15942383 11.66601562 C106.61120158 14.69575667 106.61120158 14.69575667 128.07421875 17.64453125 C137.51840528 18.92243888 146.94813561 20.28808482 156.375 21.6875 C157.91274384 21.91482573 159.45050425 22.14203932 160.98828125 22.36914062 C164.659044 22.91148296 168.32958784 23.45528937 172 24 C171.3571922 33.2405996 170.19847311 42.37786588 168.890625 51.54296875 C168.67958202 53.03856469 168.46879302 54.53419649 168.25823975 56.02986145 C167.81651168 59.16254291 167.37253314 62.2948939 166.92675781 65.42700195 C166.37105505 69.3319025 165.81965857 73.23739423 165.2698288 77.14312553 C162.31591947 98.11655886 159.21645243 119.06523207 156 140 C150.35309211 140.09326261 144.94542802 140.03038719 139.359375 139.08203125 C138.14685059 138.88262939 136.93432617 138.68322754 135.68505859 138.4777832 C134.38648926 138.25823975 133.08791992 138.03869629 131.75 137.8125 C128.84224589 137.33681062 125.93310273 136.87009504 123.0234375 136.40625 C122.27281036 136.28643265 121.52218323 136.1666153 120.74880981 136.04316711 C112.97630349 134.81583881 105.18019064 133.8061773 97.375 132.8125 C75.18118967 129.97547538 53.04179053 126.75142086 30.89599609 123.56567383 C27.9723486 123.14522065 25.04868002 122.72491439 22.125 122.3046875 C21.42040272 122.20336958 20.71580544 122.10205166 19.98985672 121.9976635 C8.00090574 120.27471445 -3.9952242 118.60917149 -16 117 C-15.55088039 101.75996571 -13.28457079 86.81581622 -11.0625 71.75 C-10.69792549 69.23967652 -10.33398911 66.72926028 -9.97070312 64.21875 C-8.66101544 55.19540918 -7.34009719 46.17444467 -5.9453125 37.16381836 C-5.24025779 32.59953823 -4.57332406 28.03510571 -3.96484375 23.45703125 C-3.79533203 22.19955078 -3.62582031 20.94207031 -3.45117188 19.64648438 C-3.10299961 17.04776898 -2.7567041 14.44880158 -2.41210938 11.84960938 C-2.24388672 10.60630859 -2.07566406 9.36300781 -1.90234375 8.08203125 C-1.75273193 6.96030518 -1.60312012 5.8385791 -1.44897461 4.68286133 C-1 2 -1 2 0 0 Z " fill="#FDFEFE" transform="translate(62,29)"/>
<path d="M0 0 C13.53 0 27.06 0 41 0 C41 66 41 132 41 200 C-42.16 200 -125.32 200 -211 200 C-211 151.49 -211 102.98 -211 53 C-209.33429164 56.33141671 -208.58092401 58.40958094 -207.921875 61.953125 C-207.73367187 62.94844238 -207.54546875 63.94375977 -207.3515625 64.96923828 C-207.15304688 66.05188965 -206.95453125 67.13454102 -206.75 68.25 C-206.53601563 69.38808105 -206.32203125 70.52616211 -206.1015625 71.69873047 C-205.39478039 75.46468082 -204.69673083 79.23217788 -204 83 C-203.00306032 88.37557047 -202.00245694 93.75045595 -201 99.125 C-200.8735611 99.80399353 -200.74712219 100.48298706 -200.61685181 101.18255615 C-198.80539782 110.8977891 -196.87576292 120.58217763 -194.82861328 130.25073242 C-191.73948447 144.88364435 -188.91341411 159.57403522 -186.375 174.3125 C-185.49330671 179.34441048 -184.58975932 184.37054415 -183.5625 189.375 C-183.35753906 190.39335937 -183.15257812 191.41171875 -182.94140625 192.4609375 C-181.79646783 195.54894568 -180.79394938 196.31548066 -178 198 C-170.60288092 199.11218942 -163.02530742 197.52686125 -155.78125 196.05859375 C-154.73645981 195.85541031 -153.69166962 195.65222687 -152.61521912 195.44288635 C-149.24146573 194.78424553 -145.87079704 194.11109151 -142.5 193.4375 C-140.16626733 192.97895003 -137.83236277 192.52127401 -135.49829102 192.06445312 C-128.66278844 190.72327924 -121.83110918 189.3633453 -115 188 C-113.10923884 187.62372696 -111.21845276 187.24757917 -109.32763672 186.87158203 C-100.04844981 185.02518279 -100.04844981 185.02518279 -90.7734375 183.15795898 C-87.18360278 182.43188684 -83.5920276 181.71512609 -80 181 C-78.99469238 180.79246094 -77.98938477 180.58492187 -76.95361328 180.37109375 C-66.14840076 178.23433262 -56.45422486 179.32918103 -45.64718628 180.90908813 C-43.27288587 181.25578447 -40.89753942 181.59423984 -38.52172852 181.93041992 C-35.2677276 182.39121494 -32.01406596 182.8542721 -28.76074219 183.31982422 C-21.65544936 184.33576623 -14.54820861 185.33518815 -7.4375 186.3125 C-6.23971924 186.48362305 -5.04193848 186.65474609 -3.80786133 186.83105469 C8.35516818 189.21962845 8.35516818 189.21962845 19.609375 186.16015625 C21.94111622 180.86133982 22.074246 175.3022902 22.42578125 169.57226562 C22.70008712 166.83886561 22.98971092 164.55792989 24 162 C26.01139714 160.40579328 27.8016469 159.55971278 30.21386719 158.70336914 C32.20367873 158.14961019 32.20367873 158.14961019 33 156 C33.80052932 148.10247035 32.29243928 140.65193177 30.55859375 132.9921875 C27.92065062 115.48141244 33.02211575 96.14987375 35.63696289 78.8972168 C36.19355512 75.20725187 36.7396806 71.51584081 37.28515625 67.82421875 C37.54293602 66.15971931 37.54293602 66.15971931 37.80592346 64.46159363 C39.52591383 53.74406224 39.52591383 53.74406224 39 43 C36.3182362 39.72870473 34.52859977 38.50473799 30.33984375 37.98828125 C29.46392578 37.87033203 28.58800781 37.75238281 27.68554688 37.63085938 C26.32526367 37.47327148 26.32526367 37.47327148 24.9375 37.3125 C23.13385306 37.08145959 21.3304545 36.84846961 19.52734375 36.61328125 C18.33226196 36.47079956 18.33226196 36.47079956 17.11303711 36.32543945 C15 36 15 36 12 35 C11.15625 32.2878418 11.15625 32.2878418 10.5 28.69921875 C10.2525 27.41208984 10.005 26.12496094 9.75 24.79882812 C9.49870032 23.42862315 9.24871347 22.05817678 9 20.6875 C8.5125318 18.02197566 8.01022573 15.36063058 7.5 12.69921875 C7.2834375 11.51158936 7.066875 10.32395996 6.84375 9.1003418 C5.59213904 4.50132339 3.93425841 2.62283894 0 0 Z " fill="#FCFDFE" transform="translate(211,0)"/>
<path d="M0 0 C0.43344727 0.84183838 0.86689453 1.68367676 1.31347656 2.55102539 C2.93740641 5.70319386 4.56272674 8.85463741 6.18896484 12.00561523 C6.8897104 13.36405549 7.58991632 14.72277427 8.28955078 16.08178711 C9.30095565 18.04616333 10.31436029 20.00949705 11.328125 21.97265625 C11.63558655 22.57086685 11.9430481 23.16907745 12.25982666 23.78541565 C14.40017672 27.92382094 16.66774244 31.96807597 19 36 C24.39882424 31.40525596 29.71333087 26.72323727 35 22 C36.78667058 25.17577987 37.53724437 28.0869977 38.18359375 31.6640625 C38.38766846 32.7782959 38.59174316 33.8925293 38.80200195 35.04052734 C39.11657349 36.81484131 39.11657349 36.81484131 39.4375 38.625 C39.65559326 39.83236816 39.87368652 41.03973633 40.09838867 42.28369141 C40.74008109 45.85445668 41.37178602 49.42684144 42 53 C42.17241211 53.97259766 42.34482422 54.94519531 42.52246094 55.94726562 C42.9591406 58.42208632 43.38840592 60.89799498 43.8125 63.375 C43.93616943 64.0860791 44.05983887 64.7971582 44.18725586 65.52978516 C44.77520401 69.05747404 45.13120659 72.42289405 45 76 C37.19151747 75.6194185 29.53639521 74.85184497 21.8125 73.6875 C12.23233135 72.24836888 2.62660523 71.13229545 -7 70.0625 C-18.85048212 68.74192489 -30.65994543 67.26097026 -42.46533203 65.57714844 C-55.59339252 63.72985698 -68.75910543 62.20322718 -81.92602539 60.66235352 C-82.80606735 60.55920837 -83.68610931 60.45606323 -84.59281921 60.34979248 C-86.24302443 60.15671596 -87.89333683 59.96455228 -89.54377747 59.77349854 C-94.04059357 59.24873929 -98.52099457 58.66016161 -103 58 C-101.70280076 55.14220983 -100.3363174 53.08991464 -98.11083984 50.88378906 C-97.5303891 50.30348938 -96.94993835 49.7231897 -96.35189819 49.12530518 C-95.72788116 48.51161072 -95.10386414 47.89791626 -94.4609375 47.265625 C-93.82008209 46.62759949 -93.17922668 45.98957397 -92.51895142 45.33221436 C-90.47562179 43.30005931 -88.42544018 41.27497782 -86.375 39.25 C-84.9865214 37.8715547 -83.5984951 36.49265364 -82.2109375 35.11328125 C-78.81251303 31.73688106 -75.40792746 28.36680712 -72 25 C-67.76352551 26.30931265 -63.96734186 27.93024679 -60.05078125 30.00390625 C-58.95572266 30.57947266 -57.86066406 31.15503906 -56.73242188 31.74804688 C-55.60384766 32.34681641 -54.47527344 32.94558594 -53.3125 33.5625 C-51.05962316 34.75325175 -48.80576232 35.94214421 -46.55078125 37.12890625 C-45.55731689 37.65556885 -44.56385254 38.18223145 -43.5402832 38.72485352 C-40.9783846 40.08663862 -40.9783846 40.08663862 -38 41 C-34.71022193 37.27004036 -31.44096989 33.52347104 -28.21484375 29.73828125 C-22.66268825 23.22428497 -17.05738457 16.78791801 -11.26171875 10.48828125 C-8.55519746 7.51064038 -5.95145578 4.45378951 -3.375 1.36328125 C-2 0 -2 0 0 0 Z " fill="#45B3FA" transform="translate(160,81)"/>
<path d="M0 0 C67.65 0 135.3 0 205 0 C205 0.33 205 0.66 205 1 C203.01148788 1.38077892 201.02297418 1.76154956 199.03445435 2.14228821 C197.22109554 2.48956139 195.40776239 2.83696859 193.5944519 3.18449402 C188.42642398 4.17473912 183.25793601 5.16247982 178.08862305 6.14599609 C168.07693582 8.05336023 158.06923622 9.97450508 148.0776825 11.98506165 C143.84146987 12.8366271 139.60297985 13.67652792 135.36428833 14.51565552 C133.34625245 14.91859271 131.32934996 15.32725287 129.31369019 15.74191284 C109.52475072 19.80887938 109.52475072 19.80887938 99 18 C97.449176 17.77097999 95.89776342 17.54592833 94.34594727 17.32373047 C87.99412532 16.40367753 81.65095873 15.42860733 75.31054688 14.43310547 C72.58582893 14.00707078 69.85954231 13.59262061 67.1328125 13.1796875 C66.30459991 13.04642059 65.47638733 12.91315369 64.62307739 12.77584839 C59.30298066 11.97972224 54.73309545 11.69471131 49.734375 14.08203125 C47.18312894 16.90334164 46.82738242 20.04999076 46.25 23.6875 C46.06244141 24.7403418 46.06244141 24.7403418 45.87109375 25.81445312 C45.56582445 27.54039881 45.28089846 29.26992084 45 31 C40.55892596 32.60102621 36.24205902 33.58257548 31.58984375 34.3671875 C30.17371866 34.61526132 28.75770617 34.86397867 27.34179688 35.11328125 C25.13540571 35.4971938 22.92856356 35.87648924 20.71948242 36.24462891 C18.56949851 36.60522823 16.42353396 36.98473978 14.27734375 37.3671875 C13.00109131 37.58487793 11.72483887 37.80256836 10.40991211 38.02685547 C5.83179202 39.33339135 3.30319794 41.69680206 0 45 C0 30.15 0 15.3 0 0 Z " fill="#FDFEFE" transform="translate(0,0)"/>
<path d="M0 0 C4.44496055 2.49696987 7.0635749 5.44072469 8.6875 10.3125 C9.42713184 16.85295873 9.26641408 22.22210349 5.296875 27.65234375 C1.33343319 31.74084562 -3.17262195 33.49576682 -8.8125 33.875 C-13.88482479 33.62094574 -17.52024778 31.60712636 -21.3125 28.3125 C-25.03529915 23.53968057 -26.73911959 19.62920561 -26.66015625 13.50390625 C-25.82855629 8.26202337 -22.47046997 4.38775783 -18.6875 0.875 C-12.96025629 -2.8929235 -6.13273961 -2.84816371 0 0 Z " fill="#45B2F9" transform="translate(108.3125,51.6875)"/>
<path d="M0 0 C-0.64570239 9.69952217 -1.95767429 19.26630638 -3.375 28.875 C-3.82835493 31.97373593 -4.27972703 35.07275797 -4.73046875 38.171875 C-4.84105118 38.93005524 -4.95163361 39.68823547 -5.06556702 40.46939087 C-5.72583188 45.02179045 -6.3458212 49.57713413 -6.92578125 54.140625 C-7.05742676 55.16816895 -7.18907227 56.19571289 -7.32470703 57.25439453 C-7.56102109 59.12423348 -7.79022534 60.9949891 -8.01123047 62.86669922 C-8.27326678 64.92088401 -8.62594404 66.96323287 -9 69 C-9.99 69.495 -9.99 69.495 -11 70 C-11.1858667 69.01008057 -11.3717334 68.02016113 -11.56323242 67.00024414 C-12.43617122 62.3539867 -13.31160854 57.70820161 -14.1875 53.0625 C-14.34517853 52.22542511 -14.50285706 51.38835022 -14.66531372 50.52590942 C-16.87844149 38.78665486 -19.14256222 27.06128849 -21.5769043 15.36547852 C-21.76679932 14.43920654 -21.95669434 13.51293457 -22.15234375 12.55859375 C-22.31726318 11.76767334 -22.48218262 10.97675293 -22.65209961 10.16186523 C-23 8 -23 8 -23 4 C-19.73011701 3.32861379 -16.45894951 2.66370737 -13.1875 2 C-12.25873047 1.80921875 -11.32996094 1.6184375 -10.37304688 1.421875 C-9.48037109 1.24140625 -8.58769531 1.0609375 -7.66796875 0.875 C-6.84578857 0.70742188 -6.0236084 0.53984375 -5.17651367 0.3671875 C-3 0 -3 0 0 0 Z " fill="#FAFCFE" transform="translate(42,50)"/>
<path d="M0 0 C6.83125376 -0.2539195 13.16193518 0.72646646 19.875 1.9375 C26.63315288 3.1403662 33.28417726 4.22518309 40.14111328 4.65844727 C41.06126221 4.82751587 41.06126221 4.82751587 42 5 C42.495 5.99 42.495 5.99 43 7 C37.64492266 8.02480973 32.28811118 9.03978739 26.92944336 10.0456543 C25.10634002 10.38930222 23.28374208 10.73564269 21.46166992 11.0847168 C18.84421596 11.58568879 16.22510365 12.07698418 13.60546875 12.56640625 C12.78974899 12.72468399 11.97402924 12.88296173 11.1335907 13.04603577 C5.34161512 14.11387171 5.34161512 14.11387171 2 13 C1.34 8.71 0.68 4.42 0 0 Z " fill="#F5FAFD" transform="translate(40,164)"/>
<path d="M0 0 C0.66 3.96 1.32 7.92 2 12 C-3.4495485 12.10643649 -8.61227676 11.77209992 -14 10.90625 C-14.7211499 10.79526978 -15.4422998 10.68428955 -16.18530273 10.56994629 C-18.45778444 10.21891955 -20.72886355 9.85961672 -23 9.5 C-24.55329976 9.25856284 -26.1066846 9.01767245 -27.66015625 8.77734375 C-31.44111608 8.19120433 -35.22084264 7.59764602 -39 7 C-35.98777983 4.99185322 -34.50733473 4.56821356 -31.02734375 4 C-30.04443359 3.835 -29.06152344 3.67 -28.04882812 3.5 C-27.02208984 3.335 -25.99535156 3.17 -24.9375 3 C-22.92557367 2.66792189 -20.91385255 2.33459795 -18.90234375 2 C-17.42677002 1.75830078 -17.42677002 1.75830078 -15.92138672 1.51171875 C-12.27601571 0.87318477 -8.6686674 0.09241271 -5.06079102 -0.73046875 C-3 -1 -3 -1 0 0 Z " fill="#F5F9FC" transform="translate(203,20)"/>
<path d="M0 0 C0.66 0 1.32 0 2 0 C2.33 0.99 2.66 1.98 3 3 C0.32521756 4.6627026 -1.9995144 5.99983813 -5 7 C-5 7.66 -5 8.32 -5 9 C-5.66 8.67 -6.32 8.34 -7 8 C-5.88200014 6.66079162 -4.75538103 5.32877444 -3.625 4 C-2.68527344 2.88625 -2.68527344 2.88625 -1.7265625 1.75 C-1.15679687 1.1725 -0.58703125 0.595 0 0 Z " fill="#47A3DD" transform="translate(158,81)"/>
</svg>
