<svg width="24" height="24" viewBox="0 0 24 24" fill="none" xmlns="http://www.w3.org/2000/svg">
<g clip-path="url(#clip0_2831_22197)">
<path d="M10.8039 0.0326157C9.21484 0.182617 7.44297 0.749804 6.02266 1.57012C3.23359 3.17793 1.16172 5.88262 0.369531 8.93887C0.0742188 10.092 0.0273438 10.5326 0.0273438 11.9998C0.0273438 13.1623 0.0367188 13.4107 0.125781 13.9217C0.566406 16.4529 1.62578 18.5482 3.37422 20.3623C5.16953 22.2279 7.43359 23.4092 10.0773 23.8732C10.5883 23.9623 10.8367 23.9717 11.9992 23.9717C13.4664 23.9717 13.907 23.9248 15.0602 23.6295C20.0852 22.3311 23.807 17.742 23.9852 12.6045C24.018 11.7092 23.9898 11.5686 23.718 11.3248C23.357 11.0014 22.9117 10.9826 22.5039 11.2873C22.2602 11.4701 22.1852 11.6998 22.1523 12.3842C22.0492 14.592 21.2852 16.6404 19.9352 18.3326C19.5742 18.7873 18.7867 19.5748 18.332 19.9357C16.9398 21.0467 15.2523 21.7826 13.4477 22.0639C12.7117 22.1764 11.2867 22.1764 10.5508 22.0639C8.32891 21.717 6.40234 20.742 4.82734 19.1717C3.25703 17.5967 2.28203 15.6701 1.93516 13.4482C1.82266 12.7123 1.82266 11.2873 1.93516 10.5514C2.28203 8.32949 3.25703 6.40293 4.82734 4.82793C6.66953 2.99043 8.99453 1.96855 11.6148 1.84668C12.2992 1.81387 12.5289 1.73887 12.7117 1.49512C12.8383 1.32168 12.9367 1.07324 12.9367 0.918554C12.9367 0.585741 12.6789 0.182617 12.3883 0.0654297C12.243 0.00449181 11.3148 -0.0142593 10.8039 0.0326157Z" fill="#23B121"/>
<path d="M22.2877 3.08898C22.1564 3.14523 20.4736 4.79054 16.6392 8.61086L11.1783 14.053L9.18611 11.8874C7.81267 10.3968 7.13767 9.69836 7.01111 9.63742C6.74861 9.51086 6.3783 9.52492 6.12048 9.67492C5.82986 9.84367 5.64705 10.214 5.68455 10.5515C5.7033 10.6827 5.75486 10.8562 5.80642 10.9359C5.9283 11.128 10.4799 16.064 10.6486 16.1905C10.808 16.303 11.2627 16.3452 11.5017 16.2655C11.6283 16.2234 13.0439 14.8452 17.5345 10.3687C21.0549 6.86242 23.4314 4.45773 23.4877 4.35461C23.5439 4.23742 23.5767 4.07804 23.5767 3.89992C23.5767 3.22961 22.9064 2.80773 22.2877 3.08898Z" fill="#23B121"/>
</g>
<defs>
<clipPath id="clip0_2831_22197">
<rect width="24" height="24" fill="white"/>
</clipPath>
</defs>
</svg>
