<svg width="24" height="24" viewBox="0 0 24 24" fill="none" xmlns="http://www.w3.org/2000/svg">
<g clip-path="url(#clip0_2831_22269)">
<path d="M10.434 0.0751495C6.05117 0.63765 2.27305 3.64234 0.730859 7.78609C0.398047 8.68609 0.149609 9.7314 0.0511719 10.6501C-0.0144531 11.2361 -0.0144531 12.7642 0.0511719 13.3501C0.402734 16.6126 2.14648 19.6501 4.8043 21.633C6.51055 22.908 8.40899 23.6673 10.5465 23.9345C11.259 24.0236 12.759 24.0189 13.4996 23.9298C16.7434 23.5267 19.659 21.8298 21.6324 19.1955C22.8934 17.5126 23.6715 15.5861 23.9293 13.5001C24.023 12.7408 24.023 11.2642 23.9293 10.5001C23.723 8.82202 23.1418 7.15796 22.2746 5.74702C20.3434 2.60171 17.1277 0.520462 13.4996 0.0704613C12.773 -0.0186024 11.1465 -0.0139141 10.434 0.0751495ZM13.1715 1.97359C14.8918 2.16577 16.6074 2.85015 18.0559 3.92359C18.6559 4.37359 19.6074 5.32046 20.0434 5.9064C21.023 7.22359 21.6371 8.62046 21.9512 10.2611C22.0402 10.7345 22.0543 10.9595 22.0543 12.0001C22.0543 13.0408 22.0402 13.2658 21.9512 13.7392C21.6371 15.3705 21.0184 16.7861 20.0434 18.0939C19.6215 18.6658 18.6652 19.622 18.0934 20.0439C16.2605 21.408 14.2496 22.083 11.9996 22.083C9.2668 22.083 6.81055 21.0611 4.87461 19.1251C3.3793 17.6345 2.45586 15.872 2.04805 13.7392C1.95898 13.2658 1.94492 13.0408 1.94492 12.0001C1.94492 10.9595 1.95898 10.7345 2.04805 10.2611C2.61523 7.31734 4.26992 4.90327 6.79648 3.35171C8.64336 2.21734 10.9262 1.72046 13.1715 1.97359Z" fill="#F8312F"/>
<path d="M8.11837 7.71584C7.70587 7.92209 7.51368 8.37678 7.64024 8.84553C7.69649 9.05178 7.83243 9.20178 9.15899 10.533L10.6121 12.0002L9.15899 13.4627C7.83243 14.7987 7.69649 14.9487 7.64024 15.1549C7.51368 15.6237 7.70587 16.0783 8.11837 16.2846C8.38556 16.4158 8.58243 16.4346 8.87774 16.3502C9.03712 16.3033 9.30431 16.0596 10.5371 14.8408L11.9996 13.3877L13.4668 14.8408C14.7981 16.1674 14.9481 16.3033 15.1543 16.3596C15.6231 16.4862 16.0777 16.294 16.284 15.8815C16.4152 15.6143 16.434 15.4174 16.3496 15.1221C16.3027 14.9627 16.059 14.6955 14.8402 13.4627L13.3871 12.0002L14.8402 10.533C16.059 9.3049 16.3027 9.03772 16.3496 8.87834C16.434 8.58303 16.4152 8.38615 16.284 8.11897C16.0777 7.70647 15.6231 7.51428 15.1543 7.64084C14.9481 7.69709 14.7981 7.83303 13.4668 9.15959L11.9996 10.6127L10.5371 9.15959C9.30431 7.94084 9.03712 7.69709 8.87774 7.65022C8.58243 7.56584 8.38556 7.58459 8.11837 7.71584Z" fill="#F8312F"/>
</g>
<defs>
<clipPath id="clip0_2831_22269">
<rect width="24" height="24" fill="white"/>
</clipPath>
</defs>
</svg>
