<svg width="20" height="19" viewBox="0 0 20 19" fill="none" xmlns="http://www.w3.org/2000/svg">
<path d="M10.001 17.9997H19.001M14.377 1.62173C14.775 1.22364 15.315 1 15.878 1C16.4409 1 16.9809 1.22364 17.379 1.62173C17.777 2.01982 18.0007 2.55975 18.0007 3.12273C18.0007 3.68572 17.777 4.22564 17.379 4.62373L5.36895 16.6347C5.13105 16.8726 4.83698 17.0467 4.51395 17.1407L1.64195 17.9787C1.5559 18.0038 1.46469 18.0053 1.37786 17.9831C1.29103 17.9608 1.21178 17.9157 1.1484 17.8523C1.08502 17.7889 1.03984 17.7097 1.0176 17.6228C0.995351 17.536 0.996856 17.4448 1.02195 17.3587L1.85995 14.4867C1.95417 14.1641 2.1282 13.8704 2.36595 13.6327L14.377 1.62173Z" stroke="#7A7A7A" stroke-width="1.8" stroke-linecap="round" stroke-linejoin="round"/>
</svg>
