<svg width="22" height="20" viewBox="0 0 22 20" fill="none" xmlns="http://www.w3.org/2000/svg">
<path d="M11 4L12.2747 6.35645L15 6.73445L13 8.45455L13.6667 11L11 9.56818L8.33333 11L9 8.45455L7 6.73445L9.8 6.35645L11 4Z" fill="#7A7A7A"/>
<path d="M12.7529 19.3339C12.5372 19.7034 12.0648 19.8313 11.6921 19.6211C11.3116 19.4065 11.1803 18.9219 11.4006 18.5445L13.6442 14.7005C13.953 14.1714 14.5195 13.8462 15.1321 13.8462H18.8571C19.0636 13.8465 19.2681 13.8069 19.4589 13.7297C19.6497 13.6525 19.823 13.5391 19.969 13.3962C20.115 13.2533 20.2307 13.0836 20.3096 12.8968C20.3884 12.71 20.4289 12.5098 20.4286 12.3077V3.07692C20.4289 2.8748 20.3884 2.67461 20.3096 2.48782C20.2307 2.30103 20.115 2.13131 19.969 1.98839C19.823 1.84547 19.6497 1.73216 19.4589 1.65495C19.2681 1.57774 19.0636 1.53816 18.8571 1.53846H3.14286C2.93641 1.53816 2.73193 1.57774 2.54113 1.65495C2.35034 1.73216 2.17698 1.84547 2.031 1.98839C1.88501 2.13131 1.76928 2.30103 1.69041 2.48782C1.61155 2.67461 1.57112 2.8748 1.57143 3.07692V12.3077C1.57112 12.5098 1.61155 12.71 1.69041 12.8968C1.76928 13.0836 1.88501 13.2533 2.031 13.3962C2.17698 13.5391 2.35034 13.6525 2.54113 13.7297C2.73193 13.8069 2.93641 13.8465 3.14286 13.8462H9.44506C9.86989 13.8462 10.2143 14.1906 10.2143 14.6154C10.2143 15.0402 9.86989 15.3846 9.44506 15.3846H3.14286C2.30932 15.3846 1.50992 15.0604 0.920522 14.4834C0.331122 13.9064 0 13.1237 0 12.3077V3.07692C0 2.26087 0.331122 1.47824 0.920522 0.90121C1.50992 0.324175 2.30932 0 3.14286 0H18.8571C19.6907 0 20.4901 0.324175 21.0795 0.90121C21.6689 1.47824 22 2.26087 22 3.07692V12.3077C22 13.1237 21.6689 13.9064 21.0795 14.4834C20.4901 15.0604 19.6907 15.3846 18.8571 15.3846H15.5313C15.2384 15.3846 14.9674 15.5402 14.8197 15.7932L12.7529 19.3339Z" fill="#7A7A7A"/>
</svg>
