<svg width="29" height="28" viewBox="0 0 29 28" fill="none" xmlns="http://www.w3.org/2000/svg">
<path d="M6.28363 20.4498C7.21514 20.4498 8.09148 20.0897 8.7497 19.4363C9.40856 18.7828 9.77167 17.9144 9.77167 16.9905C9.77167 16.0667 9.40856 15.1976 8.75034 14.5448C8.09148 13.8914 7.21578 13.5312 6.28363 13.5312C5.35148 13.5312 4.53544 13.8672 3.88556 14.4793L3.81756 14.5448C3.15934 15.1982 2.79688 16.0667 2.79688 16.9905C2.79688 17.9144 3.15998 18.7835 3.8182 19.4363C4.47642 20.0897 5.35212 20.4498 6.28427 20.4498H6.28363ZM4.29743 16.9905C4.29743 16.4644 4.50401 15.9694 4.87866 15.5971C5.25396 15.2249 5.75308 15.0201 6.28299 15.0201C6.8129 15.0201 7.31266 15.2249 7.68796 15.5971C8.06325 15.97 8.26983 16.4644 8.26983 16.9905C8.26983 17.5167 8.06325 18.0111 7.68731 18.3839C7.31266 18.7561 6.81354 18.961 6.28299 18.961C5.75244 18.961 5.25396 18.7561 4.87802 18.3839C4.50272 18.0117 4.29679 17.5173 4.29679 16.9905H4.29743Z" fill="#05A0BF"/>
<path d="M19.5908 10.9091C20.3434 10.8086 20.8617 10.5827 21.2697 10.1768C21.681 9.77022 21.91 9.25486 22.0114 8.50727C22.0935 7.90283 22.0935 7.13743 22.0935 6.25177V4.73941C22.0935 3.85312 22.0935 3.08771 22.0114 2.48264C21.91 1.73568 21.6816 1.2216 21.2717 0.815669C20.8624 0.409107 20.3434 0.181967 19.5896 0.0808034C18.9891 0.000636247 18.2327 0 17.3576 0H11.596C10.8204 0 10.0185 0 9.409 0.0808034C8.65583 0.181967 8.13747 0.408471 7.72881 0.814397C7.31759 1.22096 7.0892 1.73568 6.98784 2.48327C6.90508 3.09216 6.90572 3.85502 6.90636 4.73877V6.25113C6.90636 7.13488 6.90508 7.89838 6.98784 8.5079C7.0892 9.25422 7.31695 9.76831 7.72625 10.1736C8.13683 10.5814 8.65584 10.8086 9.40964 10.9091C9.7086 10.9492 10.0685 10.9727 10.5413 10.9829L11.0122 10.9931V12.9349C11.0122 13.1595 11.0988 13.3676 11.2502 13.5056C11.3952 13.6373 11.5793 13.7048 11.7641 13.7048C11.9084 13.7048 12.0528 13.6641 12.1798 13.5801L16.0964 10.9905H17.3557C18.2327 10.9899 18.9897 10.9893 19.5915 10.9091H19.5908ZM11.7622 9.50172C10.712 9.50172 10.0948 9.49854 9.61044 9.43364C9.19986 9.37893 8.95479 9.28603 8.78992 9.12252L8.78478 9.11743C8.62376 8.959 8.53138 8.71723 8.4762 8.31003C8.41077 7.82903 8.40756 7.21632 8.40756 6.17478V4.81767C8.40756 3.77677 8.41077 3.16406 8.4762 2.68306C8.53138 2.27586 8.62504 2.03281 8.78927 1.86993C8.95415 1.70642 9.19986 1.61289 9.61044 1.55817C9.83819 1.52763 10.1025 1.50982 10.4675 1.50027C10.8114 1.49073 11.2213 1.49009 11.7628 1.49009H17.237C18.2866 1.49009 18.9038 1.49327 19.3888 1.55817C19.7993 1.61289 20.0444 1.70578 20.2086 1.86866L20.2189 1.8782C20.3774 2.0379 20.4691 2.27904 20.5236 2.68242C20.5891 3.16342 20.5923 3.77613 20.5923 4.81767V6.17478C20.5923 7.21568 20.5891 7.82775 20.5236 8.30876C20.4685 8.71659 20.3748 8.95964 20.2099 9.12252C20.0457 9.28603 19.8006 9.37893 19.39 9.43364C18.9057 9.49854 18.2879 9.50172 17.237 9.50172H15.8686C15.7198 9.50172 15.5761 9.54499 15.4523 9.62706L12.5134 11.5702V10.2461C12.5134 9.83575 12.1766 9.50172 11.7622 9.50172Z" fill="#05A0BF"/>
<path d="M19.2266 16.9905C19.2266 17.9144 19.5897 18.7835 20.2479 19.4363C20.9061 20.0897 21.7818 20.4498 22.714 20.4498C23.6461 20.4498 24.5212 20.0897 25.18 19.4363C25.8389 18.7828 26.202 17.9144 26.202 16.9905C26.202 16.0667 25.8389 15.1976 25.18 14.5448C24.5212 13.8914 23.6455 13.5312 22.714 13.5312C21.7824 13.5312 20.9061 13.8914 20.2485 14.5448C19.5897 15.1982 19.2266 16.0667 19.2266 16.9905ZM20.7278 16.9905C20.7278 16.4644 20.9343 15.9694 21.309 15.5971C21.6843 15.2249 22.1834 15.0201 22.714 15.0201C23.2445 15.0201 23.7436 15.2249 24.1189 15.5971C24.4942 15.97 24.7008 16.4644 24.7008 16.9905C24.7008 17.5167 24.4942 18.0111 24.1183 18.3839C23.7436 18.7561 23.2445 18.961 22.714 18.961C22.1834 18.961 21.6849 18.7561 21.309 18.3839C20.9343 18.0117 20.7278 17.5173 20.7278 16.9905Z" fill="#05A0BF"/>
<path d="M28.9255 24.9237C28.8812 24.4688 28.6612 24.0228 28.2724 23.5978C27.7887 23.069 27.0419 22.6014 26.6352 22.3469C26.5505 22.2941 26.4799 22.2495 26.4299 22.2165C25.3258 21.474 24.0395 21.082 22.709 21.082C21.3784 21.082 20.0921 21.4733 18.9925 22.2126L18.9861 22.2171C18.9496 22.2413 18.9027 22.2705 18.8476 22.3055L18.7847 22.345L18.9053 22.5327L18.7751 22.3513C18.6147 22.4519 18.3959 22.5893 18.1618 22.7509C17.7313 23.0474 17.3893 23.3324 17.1462 23.5984C16.7574 24.0221 16.5374 24.4681 16.4931 24.9243C16.4482 25.3824 16.5765 25.8265 16.8742 26.2414C16.9435 26.34 17.0237 26.4373 17.1199 26.5398C18.0565 27.5361 18.9804 28 20.0267 28H25.3919C26.4389 28 27.362 27.5361 28.298 26.5398C28.7696 26.039 28.9813 25.495 28.9261 24.9243L28.9255 24.9237ZM27.1972 25.5262C26.5569 26.207 26.0001 26.5105 25.3912 26.5105H20.0261C19.416 26.5105 18.8578 26.2057 18.2163 25.5224C17.9962 25.2889 17.9834 24.9262 18.1855 24.6794C18.206 24.6546 18.2291 24.6278 18.2567 24.5979C18.4299 24.409 18.6756 24.2066 19.0086 23.9789C19.1504 23.8815 19.2921 23.7905 19.4301 23.7027L19.5122 23.6512C19.6431 23.5691 19.7464 23.5023 19.8285 23.4482L19.8458 23.4361C20.6939 22.8686 21.6832 22.5696 22.7083 22.5696C23.7335 22.5696 24.7305 22.8724 25.5869 23.4482C25.6677 23.5017 25.7608 23.5609 25.8525 23.6194L25.9808 23.7008C26.1091 23.7816 26.2599 23.8783 26.4087 23.9801C26.7423 24.2079 26.9874 24.4102 27.1593 24.5979C27.1863 24.6272 27.2094 24.6539 27.2305 24.6806C27.432 24.9262 27.4198 25.2864 27.2029 25.5199L27.1965 25.5262H27.1972Z" fill="#05A0BF"/>
<path d="M11.8505 23.5977C11.3668 23.0689 10.62 22.6013 10.2133 22.3468C10.1286 22.294 10.0574 22.2488 10.0074 22.2157C8.90393 21.4732 7.61764 21.0813 6.28645 21.0813C4.95526 21.0813 3.66962 21.4726 2.57003 22.2119L2.56361 22.2164C2.54501 22.2291 2.52255 22.2431 2.49689 22.259L1.74501 22.7457L1.73988 22.7495C1.30941 23.046 0.967468 23.3311 0.724325 23.597C0.335554 24.0208 0.115507 24.4668 0.0712404 24.923C0.0263328 25.3811 0.15464 25.8252 0.452314 26.24C0.5216 26.3386 0.602433 26.4366 0.698022 26.5384C1.63467 27.5348 2.55848 27.9986 3.60483 27.9986H8.97001C10.017 27.9986 10.9402 27.5348 11.8762 26.5384C12.3477 26.0377 12.5594 25.4937 12.5042 24.9223C12.46 24.4674 12.2399 24.0214 11.8511 23.597L11.8505 23.5977ZM3.01333 23.7001L3.09096 23.6517C3.21092 23.576 3.31742 23.5086 3.40723 23.4494L3.42584 23.4367C4.27395 22.8698 5.26256 22.5708 6.2871 22.5708C7.31163 22.5708 8.31179 22.8742 9.16696 23.45C9.26255 23.5137 9.37995 23.5881 9.48195 23.6517L9.56535 23.7045C9.6943 23.7873 9.84121 23.8802 9.98813 23.9813C10.3198 24.2078 10.5655 24.4101 10.7381 24.5985C10.7637 24.6265 10.7868 24.6532 10.8067 24.678C11.0107 24.9261 10.9992 25.2894 10.7798 25.5229L10.7682 25.5357C10.1312 26.2107 9.57626 26.5117 8.96936 26.5117H3.60483C2.99473 26.5117 2.43659 26.2069 1.79505 25.5236C1.575 25.2901 1.56217 24.9274 1.76426 24.6812C1.78543 24.6557 1.80917 24.6284 1.83611 24.5991C2.0074 24.4114 2.25311 24.2091 2.58735 23.9807C2.73362 23.8802 2.88502 23.7834 3.01397 23.7014L3.01333 23.7001Z" fill="#05A0BF"/>
</svg>
