<svg width="30" height="26" viewBox="0 0 30 26" fill="none" xmlns="http://www.w3.org/2000/svg">
<path d="M15.0052 6.33333V25M15.0052 6.33333C15.0052 4.91885 14.4433 3.56229 13.4431 2.5621C12.4429 1.5619 11.0864 1 9.67187 1H3.00521C2.65159 1 2.31245 1.14048 2.0624 1.39052C1.81235 1.64057 1.67188 1.97971 1.67188 2.33333V19.6667C1.67188 20.0203 1.81235 20.3594 2.0624 20.6095C2.31245 20.8595 2.65159 21 3.00521 21H11.0052C12.0661 21 13.0835 21.4214 13.8336 22.1716C14.5838 22.9217 15.0052 23.9391 15.0052 25M15.0052 6.33333C15.0052 4.91885 15.5671 3.56229 16.5673 2.5621C17.5675 1.5619 18.9241 1 20.3385 1H27.0052C27.3588 1 27.698 1.14048 27.948 1.39052C28.1981 1.64057 28.3385 1.97971 28.3385 2.33333V19.6667C28.3385 20.0203 28.1981 20.3594 27.948 20.6095C27.698 20.8595 27.3588 21 27.0052 21H19.0052C17.9443 21 16.9269 21.4214 16.1768 22.1716C15.4266 22.9217 15.0052 23.9391 15.0052 25M20.3385 13H23.0052M20.3385 7.66667H23.0052M7.00521 13H9.67187M7.00521 7.66667H9.67187" stroke="#05A0BF" stroke-width="1.5" stroke-linecap="round" stroke-linejoin="round"/>
</svg>
