<svg width="24" height="21" viewBox="0 0 24 21" fill="none" xmlns="http://www.w3.org/2000/svg">
<path d="M11.9948 11.7039H12.0055M16.2615 5.48164V3.40757C16.2615 2.85749 16.0367 2.32994 15.6366 1.94098C15.2365 1.55201 14.6939 1.3335 14.1281 1.3335H9.86146C9.29566 1.3335 8.75304 1.55201 8.35296 1.94098C7.95289 2.32994 7.72812 2.85749 7.72812 3.40757V5.48164M22.6615 12.7409C19.4964 14.7724 15.7874 15.8554 11.9948 15.8554C8.20221 15.8554 4.49315 14.7724 1.32812 12.7409M3.46146 5.48164H20.5281C21.7063 5.48164 22.6615 6.41024 22.6615 7.55572V17.9261C22.6615 19.0716 21.7063 20.0002 20.5281 20.0002H3.46146C2.28325 20.0002 1.32812 19.0716 1.32812 17.9261V7.55572C1.32812 6.41024 2.28325 5.48164 3.46146 5.48164Z" stroke="#05A0BF" stroke-width="1.5" stroke-linecap="round" stroke-linejoin="round"/>
</svg>
