<svg width="18" height="20" viewBox="0 0 18 20" fill="none" xmlns="http://www.w3.org/2000/svg">
<path d="M10.8307 0.833374V4.50004C10.8307 4.98627 11.0239 5.45259 11.3677 5.7964C11.7115 6.14022 12.1778 6.33337 12.6641 6.33337H16.3307M11.7474 0.833374H3.4974C3.01117 0.833374 2.54485 1.02653 2.20103 1.37034C1.85722 1.71416 1.66406 2.18048 1.66406 2.66671V17.3334C1.66406 17.8196 1.85722 18.2859 2.20103 18.6297C2.54485 18.9736 3.01117 19.1667 3.4974 19.1667H14.4974C14.9836 19.1667 15.4499 18.9736 15.7938 18.6297C16.1376 18.2859 16.3307 17.8196 16.3307 17.3334V5.41671L11.7474 0.833374Z" stroke="#05A0BF" stroke-width="1.5" stroke-linecap="round" stroke-linejoin="round"/>
</svg>
