<svg width="48" height="48" viewBox="0 0 48 48" fill="none" xmlns="http://www.w3.org/2000/svg">
<path d="M33.7497 15.3334C34.348 15.3334 34.833 14.8483 34.833 14.25C34.833 13.6517 34.348 13.1667 33.7497 13.1667C33.1514 13.1667 32.6663 13.6517 32.6663 14.25C32.6663 14.8483 33.1514 15.3334 33.7497 15.3334Z" fill="#05A0BF"/>
<path d="M3.60267 35.7304C2.78996 36.5428 2.33325 37.6448 2.33301 38.794V43.5C2.33301 44.0747 2.56128 44.6258 2.96761 45.0321C3.37394 45.4384 3.92504 45.6667 4.49967 45.6667H10.9997C11.5743 45.6667 12.1254 45.4384 12.5317 45.0321C12.9381 44.6258 13.1663 44.0747 13.1663 43.5V41.3334C13.1663 40.7587 13.3946 40.2076 13.8009 39.8013C14.2073 39.395 14.7584 39.1667 15.333 39.1667H17.4997C18.0743 39.1667 18.6254 38.9384 19.0317 38.5321C19.4381 38.1258 19.6663 37.5747 19.6663 37V34.8334C19.6663 34.2587 19.8946 33.7076 20.3009 33.3013C20.7073 32.895 21.2584 32.6667 21.833 32.6667H22.2057C23.3549 32.6664 24.4569 32.2097 25.2693 31.397L27.033 29.6334C30.0443 30.6823 33.3225 30.6783 36.3312 29.622C39.34 28.5656 41.9011 26.5195 43.5958 23.8183C45.2904 21.1171 46.0182 17.9207 45.6601 14.7521C45.3019 11.5835 43.8791 8.63023 41.6243 6.37542C39.3695 4.12061 36.4162 2.69775 33.2476 2.33962C30.079 1.98148 26.8826 2.70926 24.1814 4.40391C21.4802 6.09856 19.4341 8.65975 18.3777 11.6685C17.3214 14.6772 17.3174 17.9554 18.3663 20.9667L3.60267 35.7304Z" stroke="#05A0BF" stroke-width="3" stroke-linecap="round" stroke-linejoin="round"/>
<path d="M33.7497 15.3334C34.348 15.3334 34.833 14.8483 34.833 14.25C34.833 13.6517 34.348 13.1667 33.7497 13.1667C33.1514 13.1667 32.6663 13.6517 32.6663 14.25C32.6663 14.8483 33.1514 15.3334 33.7497 15.3334Z" stroke="#05A0BF" stroke-width="3" stroke-linecap="round" stroke-linejoin="round"/>
</svg>
