<svg width="22" height="22" viewBox="0 0 22 22" fill="none" xmlns="http://www.w3.org/2000/svg">
<path d="M12.2827 1.83301H5.49935C5.01312 1.83301 4.5468 2.02616 4.20299 2.36998C3.85917 2.7138 3.66602 3.18011 3.66602 3.66634V18.333C3.66602 18.8192 3.85917 19.2856 4.20299 19.6294C4.5468 19.9732 5.01312 20.1663 5.49935 20.1663H16.4993C16.9856 20.1663 17.4519 19.9732 17.7957 19.6294C18.1395 19.2856 18.3327 18.8192 18.3327 18.333V11.5497" stroke="#0567A6" stroke-width="1.5" stroke-linecap="round" stroke-linejoin="round"/>
<path d="M1.83398 5.5H5.50065" stroke="#0567A6" stroke-width="1.5" stroke-linecap="round" stroke-linejoin="round"/>
<path d="M1.83398 9.16699H5.50065" stroke="#0567A6" stroke-width="1.5" stroke-linecap="round" stroke-linejoin="round"/>
<path d="M1.83398 12.833H5.50065" stroke="#0567A6" stroke-width="1.5" stroke-linecap="round" stroke-linejoin="round"/>
<path d="M1.83398 16.5H5.50065" stroke="#0567A6" stroke-width="1.5" stroke-linecap="round" stroke-linejoin="round"/>
<path d="M19.5956 5.15698C19.9607 4.79182 20.1659 4.29656 20.1659 3.78014C20.1659 3.26373 19.9607 2.76847 19.5956 2.40331C19.2304 2.03815 18.7352 1.83301 18.2187 1.83301C17.7023 1.83301 17.2071 2.03815 16.8419 2.40331L12.2494 6.99764C12.0315 7.21546 11.872 7.4847 11.7856 7.78048L11.0183 10.4113C10.9953 10.4902 10.9939 10.5738 11.0143 10.6534C11.0347 10.733 11.0761 10.8056 11.1342 10.8637C11.1923 10.9218 11.265 10.9632 11.3446 10.9836C11.4242 11.004 11.5078 11.0026 11.5867 10.9796L14.2175 10.2124C14.5133 10.126 14.7825 9.9665 15.0003 9.74856L19.5956 5.15698Z" stroke="#0567A6" stroke-width="1.5" stroke-linecap="round" stroke-linejoin="round"/>
</svg>
