<svg width="22" height="22" viewBox="0 0 22 22" fill="none" xmlns="http://www.w3.org/2000/svg">
<path d="M9.43185 20.1306H8.60685C5.62952 20.1306 4.13993 20.1306 3.21502 19.191C2.2901 18.2514 2.29102 16.7389 2.29102 13.7139V9.13059C2.29102 6.10559 2.29102 4.59309 3.21685 3.65442C4.13993 2.71301 5.62952 2.71301 8.60685 2.71301H11.3138C14.292 2.71301 16.0318 2.76434 16.9568 3.70301C17.8826 4.64351 17.8734 6.10467 17.8734 9.12967V10.2178M14.6156 1.83301V3.66634M10.0323 1.83301V3.66634M5.44893 1.83301V3.66634M6.41602 13.7497H10.0827M6.41602 9.16634H13.7493" stroke="#0567A6" stroke-width="1.5" stroke-linecap="round" stroke-linejoin="round"/>
<path d="M20.2941 17.1829L20.8678 17.6937C20.9738 17.7821 21.0446 17.9056 21.0674 18.0416C21.0902 18.1777 21.0635 18.3175 20.9922 18.4356L20.3005 19.6173C20.2468 19.7077 20.1702 19.7824 20.0784 19.8337C19.9855 19.8851 19.8812 19.9124 19.775 19.913C19.7092 19.9134 19.6436 19.9036 19.5808 19.8838L18.8466 19.6414C18.7179 19.7239 18.5842 19.7977 18.4455 19.8629L18.2913 20.6073C18.2627 20.7442 18.1865 20.8666 18.0761 20.9525C17.9644 21.04 17.8258 21.0862 17.6839 21.0833H16.2516C16.1097 21.0862 15.9711 21.04 15.8594 20.9525C15.7493 20.8665 15.6732 20.7441 15.6449 20.6073L15.49 19.8629C15.3531 19.7968 15.2202 19.7227 15.0921 19.6408L14.3553 19.8838C14.2925 19.9036 14.227 19.9134 14.1611 19.913C14.0552 19.9123 13.9511 19.885 13.8584 19.8337C13.7667 19.7826 13.69 19.7081 13.6363 19.6179L12.9198 18.4356C12.8453 18.3164 12.8168 18.1741 12.8397 18.0355C12.8626 17.8968 12.9353 17.7712 13.0442 17.6823L13.6173 16.9582V16.7335L13.0435 16.2227C12.9376 16.1343 12.8668 16.0108 12.844 15.8748C12.8212 15.7387 12.8478 15.5989 12.9192 15.4808L13.6357 14.2991C13.6893 14.2087 13.766 14.134 13.8578 14.0827C13.9505 14.0314 14.0545 14.0041 14.1605 14.0034C14.2257 13.9993 14.2913 14.0053 14.3547 14.0212L15.0769 14.275C15.2059 14.1925 15.3396 14.1187 15.478 14.0535L15.6328 13.3091C15.6612 13.1723 15.7372 13.0499 15.8473 12.9639C15.9591 12.8764 16.0976 12.8302 16.2395 12.8331H17.6598C17.8017 12.8302 17.9403 12.8764 18.052 12.9639C18.1631 13.0508 18.2392 13.1733 18.2665 13.3091L18.4214 14.0535C18.5589 14.1191 18.6915 14.1931 18.8193 14.2756L19.5567 14.0332C19.6385 14.0066 19.725 13.9972 19.8107 14.0058C19.8963 14.0143 19.9793 14.0405 20.0542 14.0827C20.1463 14.1348 20.2224 14.2096 20.2764 14.2985L20.9922 15.4808C21.0677 15.599 21.0976 15.7406 21.0764 15.8792C21.0551 16.0178 20.9841 16.144 20.8767 16.2341L20.2941 16.7304V17.1829Z" stroke="#0567A6"/>
<path d="M18.5442 16.9586C18.5442 17.3794 18.3771 17.783 18.0795 18.0805C17.782 18.378 17.3784 18.5452 16.9577 18.5452C16.5369 18.5452 16.1333 18.378 15.8358 18.0805C15.5382 17.783 15.3711 17.3794 15.3711 16.9586C15.3711 16.5378 15.5382 16.1343 15.8358 15.8368C16.1333 15.5392 16.5369 15.3721 16.9577 15.3721C17.3784 15.3721 17.782 15.5392 18.0795 15.8368C18.3771 16.1343 18.5442 16.5378 18.5442 16.9586Z" stroke="#0567A6"/>
</svg>
