<svg width="22" height="24" viewBox="0 0 22 24" fill="none" xmlns="http://www.w3.org/2000/svg">
<g clip-path="url(#clip0_19_7454)">
<path d="M21.1586 9.40342C21.137 9.78895 20.8641 10.0686 20.5101 10.0686H20.5091C20.1388 10.0681 19.8693 9.77907 19.8688 9.38177C19.8662 7.41338 19.8662 5.33226 19.8683 2.63377C19.8686 2.41629 19.8484 2.13338 19.6914 1.87753C19.4422 1.47058 19.0508 1.26463 18.5287 1.26463H18.5264C17.9195 1.26557 17.3129 1.26534 16.7061 1.2651C16.4356 1.2651 16.1651 1.26487 15.8946 1.26487H13.0692C9.67407 1.2651 6.16308 1.26534 2.71002 1.26322H2.70787C2.38135 1.26322 1.96459 1.30794 1.63161 1.6537C1.39582 1.89848 1.29121 2.19928 1.29169 2.62835C1.2948 5.05688 1.29433 7.52566 1.29409 9.91346V12.0148C1.29409 12.8652 1.29504 13.73 1.29624 14.566C1.29935 16.773 1.30246 19.0552 1.28379 21.2989C1.27996 21.7393 1.41761 22.1074 1.68164 22.3642C1.94352 22.6184 2.31121 22.7485 2.74593 22.7403C3.80949 22.7194 4.89197 22.7245 5.93926 22.7295C6.30168 22.7311 6.66434 22.733 7.02676 22.7335C7.46363 22.7344 7.73461 22.9385 7.77052 23.2934C7.78895 23.4744 7.73772 23.6455 7.62641 23.7752C7.51821 23.9014 7.36118 23.9779 7.18428 23.9901C7.02413 24.0014 6.85824 23.9998 6.69785 23.9981C6.63873 23.9976 6.5796 23.9967 6.52071 23.9969C6.14321 23.9972 5.76547 23.9979 5.38797 23.9986C4.47401 24.0002 3.52894 24.0019 2.59967 23.9951C1.25459 23.9849 0.244643 23.1484 0.0270462 21.864C0.00167187 21.7148 0.00167187 21.5552 0.00167187 21.3994C-3.7923e-06 15.8012 -0.000721933 9.18971 0.000953729 2.60082C0.00119311 1.28605 0.815325 0.282206 2.07518 0.0437784C2.27794 0.00541346 2.49434 0.00211831 2.69877 0.00188294C5.84039 0.000706104 9.05599 0 12.313 0C14.3499 0 16.4033 0.000235368 18.4634 0.000706104C19.8087 0.00117684 20.8182 0.757885 21.098 1.97568C21.1521 2.21058 21.1593 2.45371 21.1593 2.6606C21.1598 4.44328 21.1598 6.22595 21.1598 8.00863V9.25655C21.1598 9.27067 21.1598 9.28479 21.16 9.29892C21.1602 9.33516 21.1605 9.36953 21.1586 9.40342Z" fill="#EFB61B"/>
<path d="M21.9979 14.4176C21.9967 14.3828 21.9902 14.3456 21.9832 14.3058C21.7891 13.2064 21.1684 12.4874 20.1393 12.1685C19.8444 12.0771 19.5581 12.0312 19.2809 12.0312C18.5955 12.0312 17.9655 12.3097 17.4001 12.8645C16.2336 14.0088 15.0489 15.1736 13.9034 16.3001C12.8432 17.3426 11.7471 18.4205 10.668 19.4795C10.4217 19.7212 10.2744 20.009 10.2184 20.3588C10.1074 21.0522 9.9982 21.6903 9.88473 22.3091C9.79161 22.8165 9.92303 23.2896 10.246 23.6069C10.5691 23.9246 11.0508 24.0543 11.5681 23.963C11.6791 23.9432 11.7897 23.923 11.9008 23.9023C12.2673 23.8345 12.6462 23.7641 13.0244 23.7286C13.7366 23.6617 14.3063 23.3798 14.8172 22.8419C15.4817 22.1429 16.1859 21.4601 16.8672 20.7996C17.1499 20.5257 17.4424 20.2421 17.7278 19.9615C18.0529 19.6419 18.3775 19.3222 18.7025 19.0024C19.5002 18.217 20.3251 17.4047 21.1402 16.6096C21.7161 16.0478 21.9969 15.4128 21.9986 14.6678C21.9986 14.6431 21.9986 14.6182 21.9988 14.5937C21.999 14.5356 21.9995 14.4755 21.9979 14.4174V14.4176ZM18.2623 17.6464C16.6513 19.2246 15.0182 20.8342 13.614 22.2192C13.5173 22.3145 13.4089 22.3698 13.2732 22.3931C12.6613 22.4978 12.0365 22.6103 11.4491 22.717C11.4383 22.7188 11.4271 22.7212 11.416 22.7235C11.3873 22.7299 11.3536 22.7372 11.3193 22.7372C11.2808 22.7372 11.2415 22.728 11.2087 22.6974C11.1499 22.6426 11.1554 22.56 11.1647 22.5028V22.5023L11.2394 22.0582C11.3239 21.5566 11.4081 21.055 11.4927 20.5535C11.5111 20.4438 11.5836 20.3746 11.6418 20.3188C11.6492 20.3117 11.6564 20.3047 11.664 20.2974L12.6352 19.3425C13.835 18.1631 15.0757 16.9434 16.2937 15.7416C16.3573 15.6787 16.4272 15.6173 16.5206 15.6173H16.522C16.6144 15.618 16.6882 15.682 16.7358 15.7303C17.1906 16.1916 17.6912 16.6835 18.2659 17.2338C18.3212 17.2868 18.3777 17.352 18.3782 17.4365C18.3787 17.521 18.3226 17.5871 18.2623 17.6464ZM20.4074 15.5058C20.2341 15.7093 20.0395 15.8979 19.8511 16.08C19.7494 16.1787 19.6438 16.2808 19.544 16.3832C19.492 16.4362 19.4403 16.4623 19.3853 16.4628H19.3836C19.3115 16.4628 19.2569 16.4183 19.2175 16.379C18.703 15.8706 18.1544 15.3288 17.5968 14.7862C17.5418 14.7326 17.515 14.6791 17.515 14.6236C17.5152 14.5462 17.566 14.4913 17.6134 14.4457C17.7189 14.344 17.8255 14.239 17.9281 14.1376C18.0878 13.9801 18.253 13.8172 18.4206 13.6616C18.669 13.431 18.9747 13.314 19.3292 13.314H19.3331C19.9088 13.3246 20.3382 13.5877 20.575 14.0745C20.8213 14.581 20.7619 15.0894 20.4076 15.5058H20.4074Z" fill="#EFB61B"/>
<path d="M16.5874 5.14273C16.5594 5.46071 16.2872 5.70526 15.9543 5.71161C15.6421 5.71726 15.324 5.71609 15.0164 5.71467C14.8828 5.7142 14.749 5.71373 14.6154 5.71373H10.5368C10.0497 5.71373 9.56256 5.71373 9.07542 5.71397C7.8237 5.7142 6.52938 5.71467 5.25635 5.71256C5.01194 5.71232 4.79938 5.61417 4.67298 5.44329C4.55616 5.28536 4.52768 5.0886 4.59279 4.88947C4.67202 4.64728 4.84605 4.50112 5.11057 4.45498C5.20082 4.43922 5.29968 4.43922 5.39519 4.43898H5.40166C9.07088 4.43827 12.4528 4.43827 15.7407 4.43922C15.8458 4.43922 15.9545 4.43922 16.0558 4.45852C16.4038 4.52418 16.6171 4.79909 16.5869 5.14297L16.5874 5.14273Z" fill="#EFB61B"/>
<path d="M16.5898 9.24288C16.5693 9.57993 16.2904 9.82589 15.9263 9.82777C15.2507 9.83083 14.5637 9.83036 13.8997 9.82989C13.6378 9.82966 13.3762 9.82942 13.1143 9.82942H9.09533C7.83643 9.82942 6.53468 9.82966 5.25447 9.82848C4.93466 9.82848 4.69624 9.67714 4.60096 9.41423C4.50689 9.15486 4.58875 8.87477 4.8097 8.70013C4.93179 8.60386 5.08499 8.56008 5.30642 8.55891C5.58625 8.55726 5.87063 8.55749 6.14616 8.55796H7.35934C10.1378 8.55796 12.9163 8.55796 15.6948 8.55844H15.7096C15.8078 8.5582 15.9004 8.55843 15.9916 8.56926C16.3708 8.61398 16.6111 8.88489 16.5898 9.24265V9.24288Z" fill="#EFB61B"/>
<path d="M11.2594 13.3851C11.2166 13.7096 10.9614 13.9398 10.6392 13.9455C10.1405 13.9537 9.63305 13.9525 9.14232 13.9516C8.93669 13.9511 8.73131 13.9506 8.52592 13.9506C8.44405 13.9506 8.36218 13.9509 8.28031 13.9509C8.16445 13.9509 8.04859 13.9506 7.93297 13.9504C7.65816 13.9506 7.38384 13.9511 7.10927 13.9516C6.4919 13.9528 5.85324 13.9542 5.22558 13.9478C4.99386 13.9455 4.79111 13.8476 4.6695 13.679C4.55508 13.5206 4.52755 13.3182 4.59458 13.1233C4.6841 12.8621 4.86603 12.719 5.13534 12.6976C5.26341 12.6877 5.3953 12.6855 5.52553 12.6855C5.56957 12.6855 5.61386 12.6858 5.65766 12.686C5.70434 12.6863 5.75102 12.6865 5.7977 12.6865C7.47049 12.6855 9.14376 12.686 10.4144 12.6863C10.4328 12.6867 10.451 12.6863 10.4694 12.6863C10.5932 12.6853 10.7103 12.6846 10.8194 12.7194C11.099 12.8079 11.2967 13.1066 11.2596 13.3851H11.2594Z" fill="#EFB61B"/>
</g>
<defs>
<clipPath id="clip0_19_7454">
<rect width="22" height="24" fill="white"/>
</clipPath>
</defs>
</svg>
