<svg width="22" height="22" viewBox="0 0 22 22" fill="none" xmlns="http://www.w3.org/2000/svg">
<path d="M7.33268 4.58301H5.49935C5.01312 4.58301 4.5468 4.77616 4.20299 5.11998C3.85917 5.4638 3.66602 5.93011 3.66602 6.41634V17.4163C3.66602 17.9026 3.85917 18.3689 4.20299 18.7127C4.5468 19.0565 5.01312 19.2497 5.49935 19.2497H10.7216" stroke="#0567A6" stroke-width="1.5" stroke-linecap="round" stroke-linejoin="round"/>
<path d="M16.5 12.833V16.4997H20.1667" stroke="#0567A6" stroke-width="1.5" stroke-linecap="round" stroke-linejoin="round"/>
<path d="M16.5007 10.083V6.41634C16.5007 5.93011 16.3075 5.4638 15.9637 5.11998C15.6199 4.77616 15.1535 4.58301 14.6673 4.58301H12.834" stroke="#0567A6" stroke-width="1.5" stroke-linecap="round" stroke-linejoin="round"/>
<path d="M7.33398 4.58333C7.33398 4.0971 7.52714 3.63079 7.87096 3.28697C8.21477 2.94315 8.68109 2.75 9.16732 2.75H11.0007C11.4869 2.75 11.9532 2.94315 12.297 3.28697C12.6408 3.63079 12.834 4.0971 12.834 4.58333C12.834 5.06956 12.6408 5.53588 12.297 5.8797C11.9532 6.22351 11.4869 6.41667 11.0007 6.41667H9.16732C8.68109 6.41667 8.21477 6.22351 7.87096 5.8797C7.52714 5.53588 7.33398 5.06956 7.33398 4.58333Z" stroke="#0567A6" stroke-width="1.5" stroke-linecap="round" stroke-linejoin="round"/>
<path d="M12.834 16.4997C12.834 17.4721 13.2203 18.4048 13.9079 19.0924C14.5956 19.78 15.5282 20.1663 16.5007 20.1663C17.4731 20.1663 18.4057 19.78 19.0934 19.0924C19.781 18.4048 20.1673 17.4721 20.1673 16.4997C20.1673 15.5272 19.781 14.5946 19.0934 13.9069C18.4057 13.2193 17.4731 12.833 16.5007 12.833C15.5282 12.833 14.5956 13.2193 13.9079 13.9069C13.2203 14.5946 12.834 15.5272 12.834 16.4997Z" stroke="#0567A6" stroke-width="1.5" stroke-linecap="round" stroke-linejoin="round"/>
<path d="M7.33398 10.083H11.0007" stroke="#0567A6" stroke-width="1.5" stroke-linecap="round" stroke-linejoin="round"/>
<path d="M7.33398 13.75H10.084" stroke="#0567A6" stroke-width="1.5" stroke-linecap="round" stroke-linejoin="round"/>
</svg>
