<svg width="22" height="22" viewBox="0 0 22 22" fill="none" xmlns="http://www.w3.org/2000/svg">
<path d="M10.5649 2.10333C10.6051 2.02217 10.6672 1.95385 10.7441 1.90608C10.821 1.85832 10.9098 1.83301 11.0003 1.83301C11.0909 1.83301 11.1797 1.85832 11.2566 1.90608C11.3335 1.95385 11.3956 2.02217 11.4358 2.10333L13.5533 6.39241C13.6928 6.67471 13.8987 6.91895 14.1533 7.10416C14.408 7.28937 14.7038 7.41001 15.0153 7.45574L19.7508 8.14874C19.8406 8.16174 19.9249 8.19959 19.9942 8.25801C20.0636 8.31643 20.1152 8.39308 20.1432 8.4793C20.1712 8.56552 20.1746 8.65787 20.1529 8.74589C20.1312 8.83392 20.0853 8.91412 20.0203 8.97741L16.5957 12.3122C16.3698 12.5323 16.2008 12.804 16.1033 13.1039C16.0057 13.4038 15.9825 13.7229 16.0356 14.0337L16.8441 18.7454C16.8599 18.8351 16.8502 18.9274 16.8161 19.0119C16.782 19.0963 16.7249 19.1695 16.6512 19.223C16.5775 19.2765 16.4902 19.3082 16.3994 19.3146C16.3085 19.3209 16.2177 19.3015 16.1373 19.2587L11.9042 17.0331C11.6253 16.8866 11.3149 16.8101 10.9999 16.8101C10.6848 16.8101 10.3745 16.8866 10.0956 17.0331L5.86335 19.2587C5.78298 19.3013 5.6923 19.3204 5.60159 19.314C5.51089 19.3075 5.42382 19.2758 5.35028 19.2223C5.27675 19.1688 5.21969 19.0957 5.18562 19.0114C5.15154 18.9271 5.1418 18.835 5.15751 18.7454L5.9651 14.0347C6.01844 13.7237 5.99533 13.4044 5.89776 13.1043C5.80018 12.8042 5.63107 12.5324 5.40501 12.3122L1.98035 8.97833C1.91489 8.91511 1.86851 8.83477 1.84648 8.74648C1.82445 8.65818 1.82766 8.56548 1.85575 8.47892C1.88384 8.39236 1.93568 8.31543 2.00535 8.2569C2.07503 8.19836 2.15974 8.16057 2.24985 8.14783L6.98443 7.45574C7.29633 7.41037 7.59254 7.28988 7.84755 7.10465C8.10256 6.91942 8.30874 6.67499 8.44835 6.39241L10.5649 2.10333Z" stroke="#0567A6" stroke-width="1.5" stroke-linecap="round" stroke-linejoin="round"/>
</svg>
