<svg width="22" height="22" viewBox="0 0 22 22" fill="none" xmlns="http://www.w3.org/2000/svg">
<path d="M11.0007 6.41667V19.25M11.0007 6.41667C11.0007 5.44421 10.6143 4.51158 9.92671 3.82394C9.23908 3.13631 8.30644 2.75 7.33398 2.75H2.75065C2.50754 2.75 2.27438 2.84658 2.10247 3.01849C1.93056 3.19039 1.83398 3.42355 1.83398 3.66667V15.5833C1.83398 15.8264 1.93056 16.0596 2.10247 16.2315C2.27438 16.4034 2.50754 16.5 2.75065 16.5H8.25065C8.98 16.5 9.67947 16.7897 10.1952 17.3055C10.7109 17.8212 11.0007 18.5207 11.0007 19.25M11.0007 6.41667C11.0007 5.44421 11.387 4.51158 12.0746 3.82394C12.7622 3.13631 13.6949 2.75 14.6673 2.75H19.2507C19.4938 2.75 19.7269 2.84658 19.8988 3.01849C20.0707 3.19039 20.1673 3.42355 20.1673 3.66667V15.5833C20.1673 15.8264 20.0707 16.0596 19.8988 16.2315C19.7269 16.4034 19.4938 16.5 19.2507 16.5H13.7507C13.0213 16.5 12.3218 16.7897 11.8061 17.3055C11.2904 17.8212 11.0007 18.5207 11.0007 19.25M14.6673 11H16.5007M14.6673 7.33333H16.5007M5.50065 11H7.33398M5.50065 7.33333H7.33398" stroke="#0567A6" stroke-width="1.5" stroke-linecap="round" stroke-linejoin="round"/>
</svg>
