<svg width="22" height="22" viewBox="0 0 22 22" fill="none" xmlns="http://www.w3.org/2000/svg">
<g clip-path="url(#clip0_16_7432)">
<path d="M10.3632 5.52721C10.7448 5.52721 11.0541 5.83652 11.0541 6.21808V11.745C11.0541 12.1265 10.7448 12.4359 10.3632 12.4359C9.98169 12.4359 9.67238 12.1265 9.67238 11.745V6.21808C9.67238 5.83652 9.98169 5.52721 10.3632 5.52721ZM10.551 19.3402C10.8581 19.3277 11.1506 19.491 11.2771 19.7711C11.4726 20.2041 11.1947 20.7028 10.72 20.7209C9.66962 20.7608 8.61047 20.6386 7.59978 20.3592C6.71461 20.1145 5.89061 19.7691 5.12779 19.3229C4.36496 18.8767 3.6669 18.337 3.0336 17.7037C2.40031 17.0704 1.86058 16.3723 1.41439 15.6095C0.968209 14.8467 0.619179 14.0191 0.367302 13.1267C0.115424 12.2344 -0.0069164 11.3132 0.000280096 10.3633C0.000280096 9.40613 0.122621 8.48497 0.367302 7.5998C0.611983 6.71463 0.957415 5.89063 1.4036 5.12781C1.84978 4.36498 2.38952 3.66692 3.02281 3.03362C3.6561 2.40033 4.35416 1.86059 5.11699 1.41441C5.87982 0.968229 6.70742 0.619199 7.59978 0.367321C8.49215 0.115444 9.4133 -0.00689665 10.3632 0.000299854C11.3204 0.000299854 12.2415 0.12264 13.1267 0.367321C14.0119 0.612002 14.8359 0.957434 15.5987 1.40362C16.3615 1.8498 17.0596 2.38954 17.6929 3.02283C18.3262 3.65612 18.8659 4.35418 19.3121 5.11701C19.7583 5.87984 20.1073 6.70744 20.3592 7.5998C20.6111 8.49217 20.7334 9.41332 20.7262 10.3633C20.7262 10.4724 20.7244 10.5814 20.7207 10.6904C20.7042 11.179 20.1898 11.4662 19.7443 11.265C19.4761 11.1439 19.3084 10.8732 19.3134 10.579C19.3316 9.50153 19.2724 8.87801 19.0206 7.98841C18.8047 7.22559 18.5025 6.50953 18.1139 5.84026C17.7253 5.17098 17.2575 4.56288 16.7106 4.01595C16.1636 3.46901 15.5591 3.00124 14.897 2.61263C14.235 2.22402 13.5189 1.92177 12.7489 1.70587C11.9789 1.48998 11.1836 1.38203 10.3632 1.38203C9.53564 1.38203 8.74043 1.48998 7.9776 1.70587C7.21477 1.92177 6.50232 2.22402 5.84024 2.61263C5.17816 3.00124 4.57006 3.46901 4.01593 4.01595C3.4618 4.56288 2.99402 5.16739 2.61261 5.82946C2.23119 6.49154 1.92894 7.20759 1.70585 7.97762C1.48276 8.74765 1.37481 9.54286 1.38201 10.3633C1.38201 11.1909 1.48996 11.9861 1.70585 12.7489C1.92175 13.5117 2.224 14.2242 2.61261 14.8863C3.00122 15.5483 3.46899 16.1564 4.01593 16.7106C4.56286 17.2647 5.16737 17.7325 5.82944 18.1139C6.49152 18.4953 7.20757 18.7976 7.9776 19.0206C8.80867 19.2614 9.68419 19.3757 10.551 19.3402ZM10.3632 15.1993C9.98169 15.1993 9.67238 14.89 9.67238 14.5084C9.67238 14.1269 9.98169 13.8176 10.3632 13.8176C10.7448 13.8176 11.0541 14.1269 11.0541 14.5084C11.0541 14.89 10.7448 15.1993 10.3632 15.1993ZM20.7262 17.2719C20.7262 17.495 20.7046 17.7145 20.6614 17.9304L21.3595 18.2175C21.7132 18.363 21.8819 18.7676 21.7363 19.1213C21.5901 19.4764 21.1827 19.6446 20.8285 19.496L20.1325 19.2042C19.8806 19.5712 19.5712 19.8806 19.2041 20.1325L19.496 20.8286C19.6446 21.1827 19.4764 21.5901 19.1212 21.7363C18.7676 21.8819 18.3629 21.7132 18.2175 21.3596L17.9304 20.6615C17.7145 20.7046 17.495 20.7262 17.2719 20.7262C17.0488 20.7262 16.8293 20.7046 16.6134 20.6615L16.3263 21.3596C16.1808 21.7132 15.7761 21.8819 15.4225 21.7363C15.0674 21.5901 14.8992 21.1827 15.0477 20.8286L15.3396 20.1325C14.9726 19.8806 14.6631 19.5712 14.4113 19.2042L13.7152 19.496C13.3611 19.6446 12.9537 19.4764 12.8074 19.1213C12.6618 18.7676 12.8306 18.363 13.1842 18.2175L13.8823 17.9304C13.8391 17.7145 13.8176 17.495 13.8176 17.2719C13.8176 17.0488 13.8391 16.8293 13.8823 16.6134L13.1842 16.3263C12.8306 16.1808 12.6618 15.7762 12.8074 15.4225C12.9537 15.0674 13.3611 14.8992 13.7152 15.0478L14.4113 15.3396C14.6631 14.9726 14.9726 14.6632 15.3396 14.4113L15.0477 13.7152C14.8992 13.3611 15.0674 12.9537 15.4225 12.8075C15.7761 12.6619 16.1808 12.8306 16.3263 13.1842L16.6134 13.8823C16.8293 13.8392 17.0488 13.8176 17.2719 13.8176C17.495 13.8176 17.7145 13.8392 17.9304 13.8823L18.2175 13.1842C18.3629 12.8306 18.7676 12.6619 19.1212 12.8075C19.4764 12.9537 19.6446 13.3611 19.496 13.7152L19.2041 14.4113C19.5712 14.6632 19.8806 14.9726 20.1325 15.3396L20.8285 15.0478C21.1827 14.8992 21.5901 15.0674 21.7363 15.4225C21.8819 15.7762 21.7132 16.1808 21.3595 16.3263L20.6614 16.6134C20.7046 16.8293 20.7262 17.0488 20.7262 17.2719ZM19.3445 17.2719C19.3445 16.984 19.2905 16.7142 19.1826 16.4623C19.0746 16.2104 18.9271 15.9909 18.74 15.8038C18.5529 15.6167 18.3334 15.4692 18.0815 15.3612C17.8296 15.2533 17.5597 15.1993 17.2719 15.1993C16.984 15.1993 16.7142 15.2533 16.4623 15.3612C16.2104 15.4692 15.9909 15.6167 15.8038 15.8038C15.6167 15.9909 15.4692 16.2104 15.3612 16.4623C15.2533 16.7142 15.1993 16.984 15.1993 17.2719C15.1993 17.5598 15.2533 17.8296 15.3612 18.0815C15.4692 18.3334 15.6167 18.5529 15.8038 18.74C15.9909 18.9271 16.2104 19.0746 16.4623 19.1826C16.7142 19.2905 16.984 19.3445 17.2719 19.3445C17.5597 19.3445 17.8296 19.2905 18.0815 19.1826C18.3334 19.0746 18.5529 18.9271 18.74 18.74C18.9271 18.5529 19.0746 18.3334 19.1826 18.0815C19.2905 17.8296 19.3445 17.5598 19.3445 17.2719Z" fill="#0567A6"/>
</g>
<defs>
<clipPath id="clip0_16_7432">
<rect width="22" height="22" fill="white"/>
</clipPath>
</defs>
</svg>
