<svg width="22" height="22" viewBox="0 0 22 22" fill="none" xmlns="http://www.w3.org/2000/svg">
<path d="M12.8327 20.167V16.5003C12.8327 16.0141 12.6395 15.5478 12.2957 15.204C11.9519 14.8601 11.4856 14.667 10.9993 14.667C10.5131 14.667 10.0468 14.8601 9.70299 15.204C9.35917 15.5478 9.16602 16.0141 9.16602 16.5003V20.167" stroke="#0567A6" stroke-width="1.5" stroke-linecap="round" stroke-linejoin="round"/>
<path d="M16.5007 9.16699L19.6604 10.7473C19.8126 10.8234 19.9407 10.9404 20.0302 11.0851C20.1198 11.2298 20.1672 11.3966 20.1673 11.5668V18.3337C20.1673 18.8199 19.9742 19.2862 19.6303 19.63C19.2865 19.9738 18.8202 20.167 18.334 20.167H3.66732C3.18109 20.167 2.71477 19.9738 2.37096 19.63C2.02714 19.2862 1.83398 18.8199 1.83398 18.3337V11.5668C1.83408 11.3966 1.88154 11.2298 1.97107 11.0851C2.0606 10.9404 2.18866 10.8234 2.3409 10.7473L5.50065 9.16699" stroke="#0567A6" stroke-width="1.5" stroke-linecap="round" stroke-linejoin="round"/>
<path d="M16.5 4.58301V20.1663" stroke="#0567A6" stroke-width="1.5" stroke-linecap="round" stroke-linejoin="round"/>
<path d="M3.66602 5.50008L10.1798 2.24316C10.4343 2.116 10.7149 2.0498 10.9993 2.0498C11.2838 2.0498 11.5644 2.116 11.8188 2.24316L18.3327 5.50008" stroke="#0567A6" stroke-width="1.5" stroke-linecap="round" stroke-linejoin="round"/>
<path d="M5.5 4.58301V20.1663" stroke="#0567A6" stroke-width="1.5" stroke-linecap="round" stroke-linejoin="round"/>
<path d="M10.9993 10.0837C12.0119 10.0837 12.8327 9.26285 12.8327 8.25033C12.8327 7.2378 12.0119 6.41699 10.9993 6.41699C9.98683 6.41699 9.16602 7.2378 9.16602 8.25033C9.16602 9.26285 9.98683 10.0837 10.9993 10.0837Z" stroke="#0567A6" stroke-width="1.5" stroke-linecap="round" stroke-linejoin="round"/>
</svg>
