<svg width="22" height="22" viewBox="0 0 22 22" fill="none" xmlns="http://www.w3.org/2000/svg">
<path d="M1.83398 19.25C1.83409 18.0959 2.1066 16.9581 2.62934 15.9291C3.15208 14.9002 3.91029 14.0092 4.84232 13.3285C5.77435 12.6478 6.85388 12.1968 7.9931 12.012C9.13232 11.8272 10.2991 11.9139 11.3985 12.265M17.8757 13.1083L17.509 13.9333M15.4923 19.0667L15.1257 19.8917M19.8923 17.875L19.0673 17.5083M13.934 15.4917L13.109 15.125M19.8923 15.125L19.0673 15.4917M13.934 17.5083L13.109 17.875M17.8757 19.8917L17.509 19.0667M15.4923 13.9333L15.1257 13.1083M13.7507 7.33333C13.7507 9.86464 11.6986 11.9167 9.16732 11.9167C6.63601 11.9167 4.58398 9.86464 4.58398 7.33333C4.58398 4.80203 6.63601 2.75 9.16732 2.75C11.6986 2.75 13.7507 4.80203 13.7507 7.33333ZM19.2507 16.5C19.2507 18.0188 18.0194 19.25 16.5007 19.25C14.9819 19.25 13.7507 18.0188 13.7507 16.5C13.7507 14.9812 14.9819 13.75 16.5007 13.75C18.0194 13.75 19.2507 14.9812 19.2507 16.5Z" stroke="#0567A6" stroke-width="1.5" stroke-linecap="round" stroke-linejoin="round"/>
</svg>
