<svg width="22" height="22" viewBox="0 0 22 22" fill="none" xmlns="http://www.w3.org/2000/svg">
<path d="M13.5373 1.38308C14.3743 2.05085 14.9453 2.98849 15.0813 4.05971C15.1658 5.29555 14.9333 6.38413 14.1096 7.33717C13.9287 7.54071 13.7418 7.72577 13.5301 7.89686C13.5615 7.91002 13.5615 7.91002 13.5934 7.92346C14.3843 8.25918 15.1794 8.66761 15.7826 9.29465C15.9783 9.51455 15.9783 9.51455 16.238 9.62217C16.3514 9.59044 16.446 9.5428 16.5509 9.48886C16.6706 9.43617 16.7917 9.3869 16.9132 9.33834C16.945 9.32557 16.9768 9.3128 17.0096 9.29964C17.2662 9.20111 17.5006 9.14734 17.7755 9.20312C17.9597 9.29039 18.0589 9.38488 18.1429 9.57051C18.1752 9.73067 18.1887 9.8824 18.1883 10.0456C18.1883 10.0897 18.1883 10.1338 18.1883 10.1793C18.1881 10.2262 18.1879 10.2732 18.1877 10.3215C18.1876 10.3944 18.1876 10.3944 18.1875 10.4688C18.1873 10.6235 18.1868 10.7782 18.1862 10.9329C18.186 11.038 18.1859 11.1431 18.1857 11.2481C18.1852 11.5053 18.1846 11.7625 18.1837 12.0197C18.2087 12.025 18.2337 12.0302 18.2594 12.0355C18.2924 12.0426 18.3253 12.0496 18.3592 12.0569C18.3917 12.0638 18.4243 12.0707 18.4579 12.0778C18.9225 12.1955 19.2806 12.5589 19.5231 12.9535C19.8013 13.4654 19.8543 14.0001 19.7489 14.5741C19.5702 15.1635 19.2023 15.5696 18.6841 15.8781C18.5708 15.9296 18.4794 15.9577 18.3591 15.9831C18.3262 15.9902 18.2933 15.9972 18.2594 16.0044C18.2344 16.0096 18.2094 16.0148 18.1837 16.0202C18.1839 16.0491 18.1841 16.0781 18.1842 16.1079C18.1859 16.3817 18.1871 16.6555 18.1879 16.9294C18.1884 17.0701 18.1889 17.2108 18.1899 17.3516C18.1909 17.5137 18.1913 17.6758 18.1917 17.838C18.1921 17.8881 18.1925 17.9382 18.1929 17.9898C18.193 18.5966 18.193 18.5966 18.0153 18.8266C17.7219 19.0563 17.3596 19.1658 17.0134 19.2925C16.9575 19.3132 16.9016 19.3339 16.8457 19.3545C16.7259 19.3988 16.6061 19.443 16.4862 19.4871C16.1982 19.5931 15.9104 19.6996 15.6226 19.8062C15.556 19.8308 15.4895 19.8554 15.423 19.8801C14.6701 20.1586 13.9188 20.4413 13.1678 20.7248C13.0782 20.7586 12.9885 20.7925 12.8988 20.8263C12.841 20.8481 12.7833 20.8699 12.7256 20.8917C12.5898 20.943 12.4539 20.9942 12.318 21.0452C12.1079 21.1241 11.8983 21.2031 11.6908 21.2885C11.6467 21.3063 11.6467 21.3063 11.6017 21.3245C11.5309 21.3532 11.4605 21.3828 11.3902 21.4126C10.9539 21.5223 10.6018 21.4177 10.1937 21.2559C10.1393 21.2351 10.0849 21.2143 10.0304 21.1936C9.91387 21.1491 9.79754 21.1041 9.68134 21.0586C9.49652 20.9864 9.31128 20.9153 9.12596 20.8444C8.93112 20.7698 8.73631 20.6951 8.54165 20.62C8.07145 20.4387 7.60026 20.2602 7.12829 20.0836C7.09529 20.0712 7.06228 20.0589 7.02827 20.0462C6.86446 19.9849 6.70064 19.9236 6.53681 19.8624C6.34993 19.7926 6.16309 19.7227 5.97626 19.6527C5.94675 19.6416 5.91723 19.6306 5.88681 19.6192C5.74428 19.5658 5.60177 19.5123 5.45934 19.4587C5.40579 19.4385 5.35224 19.4184 5.2987 19.3982C5.26018 19.3837 5.26018 19.3837 5.22088 19.3689C5.05822 19.3078 4.8951 19.2481 4.73167 19.1891C4.67181 19.1672 4.67181 19.1672 4.61074 19.1448C4.53914 19.1186 4.46739 19.0928 4.39544 19.0676C4.14732 18.976 4.00427 18.8557 3.85562 18.6327C3.81943 18.468 3.8098 18.3109 3.81016 18.1426C3.81017 18.0953 3.81017 18.0479 3.81017 17.9991C3.81038 17.9485 3.8106 17.898 3.81081 17.846C3.81087 17.7937 3.81093 17.7415 3.81099 17.6878C3.81118 17.5496 3.81154 17.4115 3.812 17.2734C3.81242 17.1322 3.8126 16.991 3.81281 16.8498C3.81326 16.5733 3.81394 16.2967 3.8148 16.0202C3.7898 16.015 3.76481 16.0098 3.73906 16.0044C3.70615 15.9974 3.67324 15.9903 3.63933 15.983C3.60676 15.9762 3.57418 15.9693 3.54062 15.9622C3.07596 15.8444 2.71793 15.4811 2.47537 15.0864C2.1972 14.5745 2.14419 14.0399 2.24958 13.4659C2.42834 12.8764 2.79624 12.4703 3.31443 12.1618C3.42772 12.1103 3.51914 12.0822 3.63942 12.0568C3.67232 12.0498 3.70521 12.0427 3.73911 12.0355C3.76409 12.0303 3.78906 12.0251 3.8148 12.0197C3.81462 11.9929 3.81444 11.966 3.81425 11.9383C3.81244 11.6575 3.81121 11.3767 3.81031 11.0959C3.8099 10.9912 3.80935 10.8865 3.80864 10.7819C3.80765 10.6311 3.80719 10.4803 3.80683 10.3295C3.80619 10.2597 3.80619 10.2597 3.80555 10.1885C3.80547 9.59617 3.80547 9.59617 3.99594 9.3715C4.19926 9.2029 4.31502 9.18285 4.57349 9.18713C4.82059 9.21548 5.0373 9.31411 5.26394 9.41232C5.35682 9.45212 5.44993 9.49137 5.5433 9.53C5.60404 9.5563 5.60404 9.5563 5.666 9.58312C5.77179 9.62123 5.77179 9.62123 5.86392 9.58124C5.97064 9.50644 6.06054 9.41856 6.15434 9.32813C6.82568 8.6999 7.61864 8.24026 8.46836 7.89686C8.418 7.85305 8.418 7.85305 8.36663 7.80836C7.56223 7.09596 6.9836 6.16798 6.90815 5.07148C6.86377 3.77519 7.14706 2.72735 8.03925 1.75661C9.48216 0.248933 11.8996 0.130108 13.5373 1.38308ZM9.19293 2.44474C9.12804 2.50655 9.06339 2.56861 8.99903 2.63098C8.97346 2.65308 8.94789 2.67518 8.92154 2.69795C8.50226 3.0736 8.21731 3.72176 8.17539 4.27806C8.15475 5.09474 8.25026 5.80438 8.81534 6.44262C8.87624 6.50587 8.93745 6.56883 8.99903 6.63141C9.02108 6.65688 9.04313 6.68235 9.06584 6.70859C9.53276 7.23079 10.2762 7.44518 10.953 7.48642C11.6232 7.5036 12.3054 7.26189 12.8056 6.81766C12.8705 6.75584 12.9351 6.69378 12.9995 6.63141C13.025 6.60931 13.0506 6.58721 13.077 6.56444C13.4962 6.1888 13.7812 5.54063 13.8231 4.98433C13.8437 4.16766 13.7482 3.45802 13.1832 2.81978C13.1223 2.75653 13.0611 2.69357 12.9995 2.63098C12.9664 2.59278 12.9664 2.59278 12.9327 2.55381C12.4657 2.03161 11.7223 1.81722 11.0455 1.77598C10.3753 1.7588 9.69307 2.0005 9.19293 2.44474ZM7.47336 9.89197C7.43284 9.92116 7.43284 9.92116 7.39151 9.95094C7.32699 9.99887 7.26471 10.0498 7.20292 10.1012C7.20292 10.1281 7.20292 10.1551 7.20292 10.1828C7.57272 10.3216 7.94254 10.4604 8.31237 10.5991C8.48418 10.6636 8.65599 10.728 8.82779 10.7925C8.86111 10.805 8.89443 10.8175 8.92876 10.8304C8.99544 10.8554 9.06211 10.8805 9.12879 10.9055C9.29146 10.9666 9.45417 11.0275 9.61696 11.0882C9.67917 11.1115 9.74138 11.1347 9.80359 11.1579C9.83329 11.169 9.86299 11.1801 9.89358 11.1915C10.0629 11.2549 10.2316 11.3196 10.3999 11.3857C10.4359 11.3997 10.472 11.4136 10.5091 11.428C10.5709 11.452 10.6326 11.4765 10.694 11.5017C10.9825 11.6126 11.2159 11.5336 11.4952 11.428C11.5229 11.4176 11.5505 11.4073 11.579 11.3966C11.6699 11.3625 11.7605 11.328 11.8512 11.2934C11.9151 11.2693 11.9791 11.2453 12.043 11.2212C12.2112 11.1579 12.3793 11.0942 12.5474 11.0305C12.7162 10.9664 12.8852 10.9028 13.0542 10.8391C13.3039 10.7449 13.5535 10.6506 13.803 10.5561C14.1336 10.4309 14.4645 10.3067 14.7956 10.1828C14.7424 10.0233 14.6448 9.96679 14.5124 9.87411C14.4871 9.85633 14.4617 9.83856 14.4356 9.82024C12.3081 8.35821 9.57121 8.37816 7.47336 9.89197ZM5.08024 10.7135C5.08024 11.1311 5.08024 11.5487 5.08024 11.9789C5.24189 12.0598 5.40354 12.1406 5.57009 12.2239C5.76794 12.4754 5.85996 12.6404 5.86371 12.9609C5.86469 13.0374 5.86469 13.0374 5.8657 13.1154C5.86616 13.1712 5.8666 13.227 5.867 13.2828C5.86721 13.311 5.86743 13.3392 5.86766 13.3683C5.86875 13.5177 5.86954 13.6672 5.87013 13.8167C5.87067 13.9398 5.8718 14.0629 5.87348 14.186C5.8755 14.3351 5.8765 14.4843 5.87679 14.6334C5.87706 14.69 5.87768 14.7465 5.87866 14.803C5.88451 15.1588 5.8576 15.4361 5.65173 15.7344C5.55861 15.825 5.55861 15.825 5.46804 15.8773C5.43815 15.8954 5.40826 15.9135 5.37747 15.9322C5.28115 15.981 5.1805 16.0209 5.08024 16.061C5.08024 16.6807 5.08024 17.3003 5.08024 17.9388C5.47172 18.1025 5.47172 18.1025 5.86635 18.2562C5.89217 18.2659 5.91799 18.2755 5.9446 18.2855C6.02846 18.3169 6.11237 18.3482 6.19627 18.3795C6.25653 18.402 6.31679 18.4246 6.37704 18.4471C6.50421 18.4948 6.6314 18.5423 6.75861 18.5898C7.05617 18.7009 7.35363 18.8123 7.6511 18.9236C7.71716 18.9484 7.78322 18.9731 7.84929 18.9978C8.2698 19.1551 8.69011 19.313 9.11001 19.4719C9.15381 19.4885 9.1976 19.5051 9.24272 19.5222C9.44135 19.5974 9.63993 19.6727 9.83848 19.7481C9.90686 19.7741 9.97524 19.8 10.0436 19.8259C10.0743 19.8376 10.1049 19.8493 10.1365 19.8613C10.2584 19.9155 10.2584 19.9155 10.3869 19.939C10.3869 17.5546 10.3869 15.1703 10.3869 12.7137C9.99546 12.5499 9.99546 12.5499 9.60083 12.3963C9.57501 12.3866 9.54919 12.3769 9.52258 12.3669C9.43872 12.3355 9.35481 12.3042 9.27091 12.273C9.21065 12.2504 9.15039 12.2279 9.09014 12.2053C8.96297 12.1577 8.83577 12.1102 8.70856 12.0626C8.41101 11.9515 8.11355 11.8402 7.81608 11.7288C7.75002 11.7041 7.68395 11.6794 7.61789 11.6547C7.19738 11.4973 6.77707 11.3395 6.35717 11.1805C6.31337 11.164 6.26958 11.1474 6.22446 11.1303C6.02583 11.0551 5.82725 10.9798 5.6287 10.9043C5.56032 10.8784 5.49193 10.8525 5.42355 10.8265C5.39291 10.8149 5.36227 10.8032 5.33071 10.7911C5.20875 10.7369 5.20875 10.7369 5.08024 10.7135ZM16.6167 10.8158C16.5802 10.8294 16.5438 10.8429 16.5062 10.8569C16.4665 10.8719 16.4268 10.887 16.3858 10.9024C16.3234 10.9258 16.3234 10.9258 16.2598 10.9496C16.1229 11.0008 15.9861 11.0523 15.8493 11.1038C15.7543 11.1394 15.6593 11.175 15.5642 11.2106C15.3252 11.3002 15.0862 11.3899 14.8473 11.4798C14.6525 11.553 14.4577 11.626 14.2628 11.6991C14.0619 11.7744 13.861 11.8497 13.6601 11.9252C13.3284 12.0498 12.9965 12.1737 12.6641 12.2966C12.6136 12.3152 12.6136 12.3152 12.5621 12.3343C12.4017 12.3936 12.2413 12.4528 12.0808 12.5118C12.0243 12.5326 11.9679 12.5535 11.9115 12.5743C11.8622 12.5925 11.813 12.6106 11.7623 12.6292C11.6574 12.6625 11.6574 12.6625 11.6116 12.7137C11.6076 12.8067 11.6066 12.8998 11.6067 12.9929C11.6066 13.0225 11.6066 13.052 11.6065 13.0824C11.6065 13.1821 11.6067 13.2819 11.6069 13.3816C11.6069 13.4528 11.6069 13.524 11.6069 13.5952C11.6069 13.7891 11.6071 13.9829 11.6074 14.1768C11.6077 14.3792 11.6077 14.5816 11.6077 14.784C11.6079 15.1676 11.6082 15.5511 11.6086 15.9347C11.6091 16.3712 11.6093 16.8077 11.6095 17.2442C11.6099 18.1425 11.6107 19.0407 11.6116 19.939C12.2618 19.7011 12.9119 19.4632 13.56 19.2193C13.6215 19.1963 13.683 19.1732 13.7445 19.1501C13.9025 19.0907 14.0605 19.0314 14.2185 18.972C14.4707 18.8772 14.7229 18.7824 14.9752 18.6877C15.0366 18.6647 15.0979 18.6416 15.1593 18.6186C15.4761 18.4995 15.793 18.3809 16.1105 18.2641C16.1498 18.2496 16.1498 18.2496 16.1898 18.2349C16.312 18.1899 16.4341 18.145 16.5564 18.1004C16.5984 18.0849 16.6404 18.0695 16.6837 18.0536C16.7204 18.0402 16.7571 18.0268 16.7948 18.013C16.8759 17.9865 16.8759 17.9865 16.9183 17.9388C16.922 17.8799 16.923 17.8208 16.9229 17.7617C16.9229 17.7242 16.9229 17.6866 16.9229 17.6478C16.9227 17.607 16.9225 17.5661 16.9222 17.524C16.9222 17.4824 16.9221 17.4408 16.9221 17.3979C16.9218 17.2644 16.9213 17.1308 16.9208 16.9973C16.9206 16.907 16.9204 16.8168 16.9202 16.7265C16.9198 16.5047 16.9191 16.2828 16.9183 16.061C16.8846 16.0455 16.851 16.0301 16.8164 16.0142C16.7723 15.9931 16.7282 15.9721 16.6827 15.9505C16.639 15.93 16.5953 15.9095 16.5503 15.8883C16.3322 15.759 16.2213 15.5622 16.1427 15.3262C16.138 15.2439 16.1358 15.1614 16.1348 15.079C16.1341 15.028 16.1335 14.977 16.1328 14.9245C16.1323 14.8687 16.1319 14.8129 16.1315 14.7571C16.1313 14.7289 16.1311 14.7007 16.1308 14.6717C16.1298 14.5222 16.129 14.3727 16.1284 14.2232C16.1278 14.1001 16.1267 13.9771 16.125 13.854C16.123 13.7048 16.122 13.5557 16.1217 13.4065C16.1214 13.35 16.1208 13.2935 16.1198 13.2369C16.114 12.8811 16.1409 12.6039 16.3468 12.3055C16.4399 12.2149 16.4399 12.2149 16.5305 12.1626C16.5603 12.1445 16.5902 12.1264 16.621 12.1078C16.7173 12.059 16.818 12.019 16.9183 11.9789C16.9183 11.5748 16.9183 11.1707 16.9183 10.7543C16.7954 10.7543 16.7302 10.7732 16.6167 10.8158ZM3.69234 13.4485C3.53236 13.6232 3.47347 13.7834 3.46272 14.02C3.47404 14.2562 3.52752 14.4199 3.69234 14.5915C3.99508 14.8401 4.23927 14.8364 4.63121 14.8364C4.63121 14.2975 4.63121 13.7587 4.63121 13.2036C4.2563 13.2036 3.98172 13.2041 3.69234 13.4485ZM17.3673 13.2036C17.3673 13.7424 17.3673 14.2812 17.3673 14.8364C17.7422 14.8364 18.0168 14.8358 18.3062 14.5915C18.4661 14.4167 18.525 14.2565 18.5358 14.02C18.5245 13.7837 18.471 13.62 18.3062 13.4485C18.0034 13.1998 17.7592 13.2036 17.3673 13.2036Z" fill="#0567A6" stroke="#0567A6" stroke-width="0.2"/>
</svg>
