<svg width="22" height="22" viewBox="0 0 22 22" fill="none" xmlns="http://www.w3.org/2000/svg">
<path d="M9.41266 19.2498C9.57358 19.5285 9.80501 19.7599 10.0837 19.9208C10.3624 20.0817 10.6785 20.1664 11.0003 20.1664C11.3221 20.1664 11.6383 20.0817 11.917 19.9208C12.1956 19.7599 12.4271 19.5285 12.588 19.2498M12.7567 2.12098C11.9294 1.84219 11.0476 1.76435 10.1842 1.8939C9.32085 2.02344 8.50074 2.35664 7.79168 2.86595C7.08262 3.37527 6.50499 4.04605 6.10655 4.82285C5.70811 5.59964 5.50031 6.46012 5.50033 7.33314C5.50033 11.4572 4.20691 12.7928 2.98866 14.0496C2.8691 14.181 2.7903 14.3443 2.76184 14.5196C2.73338 14.695 2.75649 14.8748 2.82835 15.0373C2.90021 15.1997 3.01773 15.3378 3.16662 15.4347C3.31551 15.5316 3.48935 15.5832 3.66699 15.5831H18.3337C18.5113 15.5832 18.6851 15.5316 18.834 15.4347C18.9829 15.3378 19.1004 15.1997 19.1723 15.0373C19.2442 14.8748 19.2673 14.695 19.2388 14.5196C19.2104 14.3443 19.1316 14.181 19.012 14.0496M19.012 14.0496C18.8233 13.8553 18.6444 13.6518 18.4757 13.44M19.012 14.0496C17.7937 12.7928 16.5003 11.4572 16.5003 7.33314C16.5003 6.46012 16.2925 5.59964 15.8941 4.82285C15.4957 4.04605 14.918 3.37527 14.209 2.86595C13.4999 2.35664 12.6798 2.02344 11.8164 1.8939C10.9531 1.76435 10.0713 1.84219 9.24399 2.12098" stroke="#0567A6" stroke-width="1.5" stroke-linecap="round" stroke-linejoin="round"/>
</svg>
