<svg width="22" height="22" viewBox="0 0 22 22" fill="none" xmlns="http://www.w3.org/2000/svg">
<path d="M11.2709 8.26332C10.7067 8.2076 10.139 8.32763 9.64561 8.60699C9.15224 8.88636 8.75727 9.31139 8.51479 9.8239C8.27231 10.3364 8.19417 10.9113 8.29106 11.47C8.38795 12.0286 8.65515 12.5436 9.05606 12.9445C9.45697 13.3455 9.972 13.6127 10.5306 13.7096C11.0893 13.8064 11.6642 13.7283 12.1767 13.4858C12.6892 13.2433 13.1143 12.8484 13.3936 12.355C13.673 11.8616 13.793 11.294 13.7373 10.7297C13.6738 10.0972 13.3935 9.50612 12.944 9.05662C12.4945 8.60711 11.9034 8.32685 11.2709 8.26332ZM17.8924 11C17.8906 11.2989 17.8686 11.5974 17.8266 11.8933L19.7692 13.417C19.8538 13.4871 19.9108 13.5849 19.9301 13.6931C19.9494 13.8013 19.9297 13.9128 19.8745 14.0078L18.0367 17.1875C17.9809 17.2816 17.8937 17.353 17.7904 17.3891C17.6871 17.4252 17.5744 17.4236 17.4721 17.3847L15.5428 16.6079C15.4364 16.5655 15.3212 16.5502 15.2074 16.5633C15.0937 16.5764 14.985 16.6176 14.891 16.683C14.5966 16.8858 14.2872 17.0659 13.9655 17.2219C13.8643 17.271 13.7768 17.3443 13.7107 17.4353C13.6446 17.5263 13.602 17.6321 13.5865 17.7435L13.2973 19.8013C13.2783 19.91 13.2222 20.0087 13.1384 20.0805C13.0547 20.1524 12.9487 20.193 12.8384 20.1953H9.16284C9.05436 20.1934 8.94976 20.1547 8.86626 20.0854C8.78277 20.0161 8.72536 19.9204 8.7035 19.8142L8.41475 17.7594C8.39854 17.6468 8.35475 17.54 8.28728 17.4483C8.21982 17.3567 8.13076 17.2832 8.02803 17.2343C7.70672 17.0792 7.39836 16.8986 7.10592 16.6942C7.01229 16.6291 6.90392 16.5882 6.79058 16.5754C6.67724 16.5626 6.56249 16.5782 6.45667 16.6207L4.5278 17.3972C4.42558 17.4361 4.3129 17.4377 4.20962 17.4017C4.10633 17.3657 4.01907 17.2944 3.96319 17.2004L2.12542 14.0207C2.07016 13.9257 2.05042 13.8142 2.0697 13.706C2.08897 13.5978 2.14602 13.5 2.23069 13.4299L3.87252 12.1408C3.96247 12.0694 4.03317 11.9767 4.07819 11.871C4.12321 11.7654 4.14114 11.6502 4.13034 11.5358C4.11487 11.3566 4.10542 11.1779 4.10542 10.9987C4.10542 10.8195 4.11444 10.6434 4.13034 10.468C4.13996 10.3544 4.12115 10.2402 4.07562 10.1356C4.03009 10.031 3.95926 9.93944 3.86952 9.86906L2.22854 8.58C2.14525 8.50957 2.0894 8.41208 2.07078 8.3046C2.05216 8.19713 2.07196 8.08653 2.1267 7.99219L3.96448 4.8125C4.02029 4.71839 4.10753 4.64701 4.21082 4.61093C4.31411 4.57485 4.42682 4.57639 4.52909 4.61527L6.45838 5.39215C6.56478 5.43451 6.68002 5.44981 6.79378 5.43669C6.90754 5.42357 7.01627 5.38243 7.11022 5.31695C7.40466 5.11419 7.71407 4.93407 8.03577 4.77812C8.13691 4.72897 8.22438 4.65567 8.29048 4.56469C8.35658 4.47371 8.39926 4.36786 8.41475 4.25648L8.70393 2.19871C8.72292 2.09003 8.77907 1.99133 8.86277 1.91946C8.94647 1.84759 9.05254 1.80702 9.16284 1.80469H12.8384C12.9469 1.80656 13.0515 1.84534 13.135 1.91462C13.2185 1.9839 13.2759 2.07955 13.2977 2.18582L13.5865 4.24059C13.6027 4.35319 13.6465 4.46005 13.7139 4.55165C13.7814 4.64326 13.8705 4.71677 13.9732 4.76566C14.2945 4.92076 14.6029 5.10138 14.8953 5.30578C14.9889 5.37093 15.0973 5.41175 15.2106 5.42458C15.324 5.43741 15.4387 5.42183 15.5446 5.37926L17.4734 4.60281C17.5756 4.56389 17.6883 4.56228 17.7916 4.59828C17.8949 4.63428 17.9822 4.70558 18.038 4.79961L19.8758 7.9793C19.9311 8.0743 19.9508 8.18582 19.9315 8.29401C19.9122 8.40221 19.8552 8.50005 19.7705 8.57012L18.1287 9.85918C18.0384 9.93035 17.9672 10.023 17.9218 10.1286C17.8764 10.2343 17.8582 10.3497 17.8687 10.4642C17.8829 10.6421 17.8924 10.8208 17.8924 11Z" stroke="#0567A6" stroke-width="1.5" stroke-linecap="round" stroke-linejoin="round"/>
</svg>
