<svg width="22" height="22" viewBox="0 0 22 22" fill="none" xmlns="http://www.w3.org/2000/svg">
<path d="M9.625 2.0625C9.2675 2.0625 8.89663 2.18663 8.63538 2.44788C8.37413 2.70913 8.25 3.08 8.25 3.4375V4.125H2.0625V17.875H9.76196C9.67259 17.435 9.625 16.9744 9.625 16.5H3.4375V11.9896C3.84312 12.2234 4.31063 12.375 4.8125 12.375H11.0067C11.3917 11.8525 11.8592 11.385 12.3817 11H4.8125C3.99437 11 3.4375 10.4431 3.4375 9.625V5.5H18.5625V9.625C18.5625 9.735 18.5563 9.83759 18.5356 9.93384C19.0306 10.0851 19.4975 10.2918 19.9375 10.5461V4.125H13.75V3.4375C13.75 3.08 13.6259 2.70913 13.3646 2.44788C13.1034 2.18663 12.7325 2.0625 12.375 2.0625H9.625ZM9.625 3.4375H12.375V4.125H9.625V3.4375ZM6.1875 8.25V10.3125H7.5625V8.25H6.1875ZM14.4375 8.25V9.9419C14.6575 9.87315 14.8821 9.8146 15.1116 9.76733C15.341 9.72007 15.5753 9.68397 15.8125 9.65991V8.25H14.4375ZM16.5 11C13.4681 11 11 13.4681 11 16.5C11 19.5319 13.4681 22 16.5 22C19.5319 22 22 19.5319 22 16.5C22 13.4681 19.5319 11 16.5 11ZM16.5 12.375C18.7825 12.375 20.625 14.2175 20.625 16.5C20.625 18.7825 18.7825 20.625 16.5 20.625C14.2175 20.625 12.375 18.7825 12.375 16.5C12.375 14.2175 14.2175 12.375 16.5 12.375ZM15.8125 13.0625V17.1875H19.25V15.8125H17.1875V13.0625H15.8125Z" fill="#0567A6"/>
</svg>
