<svg width="22" height="22" viewBox="0 0 22 22" fill="none" xmlns="http://www.w3.org/2000/svg">
<path fill-rule="evenodd" clip-rule="evenodd" d="M7.76696 2.70183C7.48426 2.7399 7.42573 2.79737 7.40404 2.81916L7.40205 2.82115C7.37963 2.84353 7.32212 2.9028 7.28405 3.18542C7.24277 3.4919 7.24102 3.91235 7.24102 4.58379V5.50046C7.24102 6.17239 7.24278 6.59305 7.28405 6.89952C7.32212 7.18221 7.37959 7.24075 7.40138 7.26244L7.40338 7.26443C7.42575 7.28685 7.48502 7.34436 7.76764 7.38243C8.07412 7.4237 8.49457 7.42546 9.16602 7.42546C9.62165 7.42546 9.99102 7.79483 9.99102 8.25046V8.54227L11.4584 7.56402C11.5939 7.47367 11.7531 7.42546 11.916 7.42546H12.8327C13.5046 7.42546 13.9253 7.4237 14.2317 7.38243C14.5144 7.34435 14.573 7.28688 14.5947 7.26509L14.5966 7.2631C14.6191 7.24073 14.6766 7.18146 14.7146 6.89883C14.7559 6.59235 14.7577 6.17191 14.7577 5.50046V4.58379C14.7577 3.91187 14.7559 3.49121 14.7146 3.18473C14.6766 2.90204 14.6191 2.84351 14.5973 2.82182L14.5953 2.81983C14.5729 2.7974 14.5137 2.73989 14.2311 2.70183C13.9246 2.66055 13.5041 2.65879 12.8327 2.65879H9.16602C8.49409 2.65879 8.07343 2.66055 7.76696 2.70183ZM9.11372 1.00879C9.13109 1.00879 9.14853 1.00879 9.16602 1.00879L12.8849 1.00879C13.4882 1.00874 14.0214 1.0087 14.4513 1.06659C14.9169 1.1293 15.3824 1.27324 15.7623 1.65332C16.1431 2.03297 16.2872 2.49886 16.3499 2.9645C16.4078 3.39435 16.4077 3.92785 16.4077 4.53151V5.5527C16.4077 6.15595 16.4078 6.68923 16.3499 7.11907C16.2871 7.58513 16.143 8.05111 15.762 8.43115C15.3826 8.8112 14.9172 8.95501 14.452 9.01766C14.0221 9.07555 13.4886 9.07551 12.885 9.07546L12.1658 9.07546L9.62364 10.7702C9.37049 10.939 9.04499 10.9547 8.77673 10.8112C8.50848 10.6676 8.34102 10.3881 8.34102 10.0838V9.07016C8.04913 9.06369 7.78277 9.04936 7.54741 9.01766C7.08135 8.95489 6.61537 8.81074 6.23532 8.42983C5.85527 8.05038 5.71147 7.58494 5.64882 7.11975C5.59092 6.68991 5.59097 6.15641 5.59101 5.55276C5.59102 5.53538 5.59102 5.51795 5.59102 5.50046V4.58379C5.59102 4.56632 5.59102 4.54891 5.59101 4.53155C5.59097 3.9283 5.59092 3.39503 5.64882 2.96519C5.71153 2.49956 5.85547 2.03401 6.23559 1.65416C6.61523 1.27332 7.08111 1.1293 7.54672 1.06659C7.97656 1.0087 8.51006 1.00874 9.11372 1.00879ZM5.49935 11.3671C5.23192 11.3671 4.97545 11.4734 4.78635 11.6625C4.59725 11.8516 4.49102 12.108 4.49102 12.3755C4.49102 12.6429 4.59725 12.8994 4.78635 13.0885C4.97545 13.2776 5.23192 13.3838 5.49935 13.3838C5.76678 13.3838 6.02325 13.2776 6.21235 13.0885C6.40145 12.8994 6.50768 12.6429 6.50768 12.3755C6.50768 12.108 6.40145 11.8516 6.21235 11.6625C6.02325 11.4734 5.76678 11.3671 5.49935 11.3671ZM3.61962 10.4957C4.11816 9.9972 4.79432 9.71713 5.49935 9.71713C6.20438 9.71713 6.88054 9.9972 7.37908 10.4957C7.87761 10.9943 8.15768 11.6704 8.15768 12.3755C8.15768 13.0805 7.87761 13.7566 7.37908 14.2552C6.88054 14.7537 6.20438 15.0338 5.49935 15.0338C4.79432 15.0338 4.11816 14.7537 3.61962 14.2552C3.12109 13.7566 2.84102 13.0805 2.84102 12.3755C2.84102 11.6704 3.12109 10.9943 3.61962 10.4957ZM16.4993 11.3671C16.2319 11.3671 15.9754 11.4734 15.7863 11.6625C15.5972 11.8516 15.491 12.108 15.491 12.3755C15.491 12.6429 15.5972 12.8994 15.7863 13.0885C15.9754 13.2776 16.2319 13.3838 16.4993 13.3838C16.7668 13.3838 17.0232 13.2776 17.2123 13.0885C17.4014 12.8994 17.5077 12.6429 17.5077 12.3755C17.5077 12.108 17.4014 11.8516 17.2123 11.6625C17.0232 11.4734 16.7668 11.3671 16.4993 11.3671ZM14.6196 10.4957C15.1182 9.9972 15.7943 9.71713 16.4993 9.71713C17.2044 9.71713 17.8805 9.9972 18.3791 10.4957C18.8776 10.9943 19.1577 11.6704 19.1577 12.3755C19.1577 13.0805 18.8776 13.7566 18.3791 14.2552C17.8805 14.7537 17.2044 15.0338 16.4993 15.0338C15.7943 15.0338 15.1182 14.7537 14.6196 14.2552C14.1211 13.7566 13.841 13.0805 13.841 12.3755C13.841 11.6704 14.1211 10.9943 14.6196 10.4957ZM2.82891 16.4948C3.61744 15.96 4.54781 15.6755 5.49935 15.6755C6.45134 15.6755 7.3814 15.9611 8.1693 16.4954C8.20212 16.5173 8.24714 16.5457 8.30133 16.5799C8.58209 16.7569 9.10923 17.0894 9.4641 17.4803C9.68946 17.7284 9.93812 18.0924 9.98359 18.5612C10.0327 19.0675 9.83054 19.526 9.47863 19.9031C8.96683 20.4524 8.26165 20.9921 7.29602 20.9921H3.70268C2.73705 20.9921 2.03187 20.4524 1.52007 19.9031M2.82891 16.4948C2.79599 16.5168 2.75064 16.5455 2.69597 16.58C2.4153 16.7573 1.88873 17.09 1.53451 17.4802C1.30921 17.7284 1.06058 18.0924 1.01511 18.5612C0.965995 19.0674 1.16829 19.526 1.52007 19.9031M5.49935 17.3255C4.87618 17.3255 4.26812 17.512 3.75365 17.8613L3.74983 17.8639C3.68334 17.9085 3.60559 17.958 3.53208 18.0049C3.51473 18.0159 3.49763 18.0268 3.48096 18.0375C3.38819 18.0968 3.29544 18.1568 3.20366 18.2201C3.01432 18.3507 2.86061 18.4743 2.75625 18.5892C2.70643 18.6441 2.68085 18.6828 2.66806 18.7056C2.67884 18.722 2.69691 18.7458 2.72646 18.7775C3.11296 19.1924 3.41094 19.3421 3.70268 19.3421H7.29602C7.58776 19.3421 7.88528 19.1928 8.27178 18.778C8.30132 18.7463 8.31984 18.722 8.33063 18.7056C8.31783 18.6828 8.29227 18.6442 8.24253 18.5894C8.13823 18.4746 7.98457 18.3511 7.79533 18.2207C7.7036 18.1575 7.61089 18.0975 7.5182 18.0384C7.50112 18.0275 7.48357 18.0163 7.46578 18.005C7.39274 17.9585 7.31557 17.9094 7.24963 17.8653L7.24506 17.8622C6.73005 17.5125 6.12187 17.3255 5.49935 17.3255ZM8.34532 18.6773C8.34562 18.6773 8.34508 18.6796 8.34277 18.6846C8.34386 18.6798 8.34501 18.6773 8.34532 18.6773ZM2.65338 18.6773C2.65369 18.6773 2.65484 18.6798 2.65593 18.6846C2.65362 18.6797 2.65308 18.6773 2.65338 18.6773ZM13.8288 16.4948C14.6174 15.96 15.5478 15.6755 16.4993 15.6755C17.4513 15.6755 18.3814 15.9611 19.1693 16.4954C19.2021 16.5173 19.2471 16.5457 19.3013 16.5799C19.5821 16.7569 20.1092 17.0894 20.4641 17.4803C20.6895 17.7284 20.9381 18.0924 20.9836 18.5612C21.0327 19.0675 20.8305 19.526 20.4786 19.9031C19.9668 20.4524 19.2617 20.9921 18.296 20.9921H14.7027C13.737 20.9921 13.0319 20.4524 12.5201 19.9031M13.8288 16.4948C13.7959 16.5169 13.7506 16.5455 13.696 16.58C13.4153 16.7573 12.8887 17.09 12.5345 17.4802C12.3092 17.7284 12.0606 18.0924 12.0151 18.5612C11.966 19.0674 12.1683 19.526 12.5201 19.9031M16.4993 17.3255C15.8762 17.3255 15.2681 17.512 14.7536 17.8613L14.7498 17.8639C14.6833 17.9085 14.6056 17.9581 14.532 18.0049C14.5147 18.0159 14.4976 18.0268 14.481 18.0375C14.3882 18.0968 14.2954 18.1568 14.2037 18.2201C14.0143 18.3507 13.8606 18.4743 13.7563 18.5892C13.7064 18.6441 13.6809 18.6828 13.6681 18.7056C13.6788 18.722 13.6969 18.7458 13.7265 18.7775C14.113 19.1924 14.4109 19.3421 14.7027 19.3421H18.296C18.5878 19.3421 18.8853 19.1928 19.2718 18.778C19.3013 18.7463 19.3198 18.722 19.3306 18.7056C19.3178 18.6828 19.2923 18.6442 19.2425 18.5894C19.1382 18.4746 18.9846 18.3511 18.7953 18.2207C18.7036 18.1575 18.6109 18.0975 18.5182 18.0384C18.5011 18.0275 18.4836 18.0163 18.4657 18.005C18.3927 17.9585 18.3156 17.9094 18.2496 17.8653L18.2451 17.8622C17.73 17.5125 17.1219 17.3255 16.4993 17.3255ZM19.3453 18.6773C19.3456 18.6773 19.3451 18.6796 19.3428 18.6846C19.3439 18.6798 19.345 18.6773 19.3453 18.6773ZM13.6534 18.6773C13.6537 18.6774 13.6548 18.6798 13.6559 18.6846C13.6536 18.6796 13.6531 18.6773 13.6534 18.6773Z" fill="#0567A6"/>
</svg>
