<svg width="22" height="22" viewBox="0 0 22 22" fill="none" xmlns="http://www.w3.org/2000/svg">
<path d="M18.348 1.83301C17.3278 1.83301 16.5 4.29517 16.5 7.33301H18.348C19.239 7.33301 19.6836 7.33301 19.9595 7.02592C20.2345 6.71792 20.1868 6.31276 20.0915 5.50334C19.8367 3.36384 19.1528 1.83301 18.348 1.83301Z" stroke="#0567A6" stroke-width="1.5" stroke-linecap="round" stroke-linejoin="round"/>
<path d="M16.5007 7.38251V17.0918C16.5007 18.4769 16.5007 19.1699 16.0772 19.4431C15.3851 19.8886 14.3153 18.9536 13.7772 18.6144C13.3327 18.3339 13.1108 18.1946 12.8642 18.1863C12.5975 18.1772 12.3711 18.3119 11.8907 18.6144L10.139 19.719C9.66598 20.0169 9.4304 20.1663 9.16732 20.1663C8.90423 20.1663 8.66773 20.0169 8.19565 19.719L6.44482 18.6144C5.99932 18.3339 5.77748 18.1946 5.5309 18.1863C5.26415 18.1772 5.03773 18.3119 4.5574 18.6144C4.01932 18.9536 2.94957 19.8886 2.25657 19.4431C1.83398 19.1699 1.83398 18.4778 1.83398 17.0918V7.38251C1.83398 4.76634 1.83398 3.45917 2.63973 2.64609C3.44457 1.83301 4.74165 1.83301 7.33398 1.83301H18.334" stroke="#0567A6" stroke-width="1.5" stroke-linecap="round" stroke-linejoin="round"/>
<path d="M9.16732 7.33268C8.1544 7.33268 7.33398 7.94868 7.33398 8.70768C7.33398 9.46668 8.1544 10.0827 9.16732 10.0827C10.1802 10.0827 11.0007 10.6987 11.0007 11.4577C11.0007 12.2167 10.1802 12.8327 9.16732 12.8327M9.16732 7.33268C9.96482 7.33268 10.645 7.71493 10.8962 8.24935M9.16732 7.33268V6.41602M9.16732 12.8327C8.36982 12.8327 7.68965 12.4504 7.43848 11.916M9.16732 12.8327V13.7493" stroke="#0567A6" stroke-width="1.5" stroke-linecap="round" stroke-linejoin="round"/>
</svg>
