<svg width="22" height="22" viewBox="0 0 22 22" fill="none" xmlns="http://www.w3.org/2000/svg">
<path d="M11.0007 10.9997H11.0098M14.6673 5.49967V3.66634C14.6673 3.18011 14.4742 2.7138 14.1303 2.36998C13.7865 2.02616 13.3202 1.83301 12.834 1.83301H9.16732C8.68109 1.83301 8.21477 2.02616 7.87096 2.36998C7.52714 2.7138 7.33398 3.18011 7.33398 3.66634V5.49967M20.1673 11.9163C17.4474 13.7121 14.2599 14.6694 11.0007 14.6694C7.7414 14.6694 4.55392 13.7121 1.83398 11.9163M3.66732 5.49967H18.334C19.3465 5.49967 20.1673 6.32049 20.1673 7.33301V16.4997C20.1673 17.5122 19.3465 18.333 18.334 18.333H3.66732C2.6548 18.333 1.83398 17.5122 1.83398 16.4997V7.33301C1.83398 6.32049 2.6548 5.49967 3.66732 5.49967Z" stroke="#0567A6" stroke-width="1.5" stroke-linecap="round" stroke-linejoin="round"/>
</svg>
