<svg width="24" height="24" viewBox="0 0 24 24" fill="none" xmlns="http://www.w3.org/2000/svg">
<g clip-path="url(#clip0_16_7452)">
<path d="M23.1973 16.2314C22.7563 16.2314 22.3987 16.6225 22.3992 17.1048C22.4004 19.0158 22.4025 17.8811 22.397 19.0741C22.3911 20.3791 21.6449 21.4106 20.5142 21.6942C20.3215 21.7427 20.1237 21.762 19.9264 21.762C14.6576 21.7611 9.38877 21.763 4.11995 21.7606C2.62957 21.7602 1.59874 20.6318 1.59663 19.0091C1.59536 17.7921 1.59578 18.9964 1.59621 17.1044C1.59621 16.622 1.2391 16.2314 0.798103 16.2314C0.357523 16.2314 0 16.622 0 17.1039C0 18.793 0 16.9187 0.000843215 19.0446C0.00210804 21.2571 1.33144 23.0149 3.31468 23.43C3.57565 23.4844 3.84084 23.5 4.1073 23.5C9.36348 23.4991 14.6197 23.4996 19.8758 23.4991C22.0092 23.4991 23.6125 22.0083 23.9625 19.7017C23.9671 19.6703 23.9874 19.6422 24 19.6122V17.1044C24 16.6225 23.6429 16.2314 23.2019 16.2314H23.1973Z" fill="#05A0BF"/>
<path d="M23.8845 7.36699C23.4296 5.38365 21.838 4.02376 19.9454 4.00716C19.141 4.00025 18.3365 3.99886 17.5321 4.01131C17.3462 4.01408 17.2572 3.94629 17.1792 3.76645C16.9216 3.17343 16.6493 2.58779 16.3757 2.00307C15.9131 1.01256 15.1656 0.512686 14.1521 0.506691C12.7153 0.49839 11.278 0.497007 9.84074 0.507152C8.82762 0.514069 8.08179 1.01901 7.62055 2.00999C7.3444 2.60301 7.06867 3.19603 6.80727 3.79688C6.73433 3.96428 6.64369 4.00855 6.48432 4.00993C5.5239 4.01777 4.56263 3.96151 3.60348 4.03667C1.82303 4.17686 0.263083 5.81711 0.042161 7.75941C0.0151781 7.99782 0 8.23484 0 8.47463C0 9.10961 0 9.74506 0 10.38C0 12.1692 0.468406 13.3216 1.64553 14.0631C2.25181 14.4306 2.90614 14.5123 3.58957 14.5109C9.25133 14.5017 14.9135 14.503 20.5753 14.509C21.1803 14.5095 21.7549 14.408 22.2904 14.0899C22.3157 14.0746 22.3465 14.071 22.3899 14.0567C23.505 13.2764 24 12.1683 24 10.3777V7.93695C23.9616 7.74696 23.9279 7.55559 23.8845 7.36699ZM8.62145 3.74109C8.76733 3.4206 8.91278 3.09965 9.05992 2.78008C9.21929 2.43423 9.479 2.26038 9.83104 2.25992C11.3058 2.25808 12.781 2.25716 14.2562 2.26085C14.5969 2.26177 14.8536 2.4287 15.0088 2.76855C15.1892 3.16375 15.371 3.55848 15.5759 4.00624H15.3027C13.1251 4.00624 10.9479 4.00624 8.7707 4.00624C8.50213 4.00624 8.50129 4.0044 8.62145 3.74109Z" fill="#05A0BF"/>
<path d="M13.6398 8.43185C13.1014 8.43185 12.563 8.43185 12.0246 8.43185C11.4706 8.43185 10.9167 8.43138 10.3627 8.43185C9.88414 8.43277 9.52746 8.79845 9.52155 9.29278C9.51565 9.79035 9.88414 10.1786 10.3677 10.1795C11.4601 10.1809 12.5529 10.1809 13.6453 10.1795C14.12 10.1791 14.4792 9.8051 14.4843 9.31307C14.4894 8.8049 14.1331 8.43277 13.6402 8.43231L13.6398 8.43185Z" fill="white"/>
</g>
<defs>
<clipPath id="clip0_16_7452">
<rect width="24" height="24" fill="white"/>
</clipPath>
</defs>
</svg>
