<svg width="133" height="130" viewBox="0 0 133 130" fill="none" xmlns="http://www.w3.org/2000/svg">
<g clip-path="url(#clip0_821_113)">
<path d="M66.4279 75.4393C71.9161 81.7679 81.8927 94.3026 102.961 95.823C122.594 95.823 132.05 82.1624 132.411 67.9388C134.04 55.3002 127.81 42.0525 122.444 31.6887C117.076 21.325 95.0465 39.127 95.0465 39.127C95.0465 39.127 104.32 48.9578 99.9772 54.2573C96.0419 59.4207 87.2196 53.8051 84.0977 49.5923L65.2344 73.3744L66.4302 75.4393H66.4279Z" fill="url(#paint0_linear_821_113)"/>
<path d="M54.1496 4.4296C46.9126 -3.4078 37.8645 0.442839 32.2542 6.06076C26.6461 11.6764 1.99044 32.9691 0.361471 62.9114C-0.813596 94.5309 27.6 102.004 48.0208 91.1325C62.1124 84.5179 70.7503 68.7646 79.4849 58.9708C87.9662 49.4584 98.6201 35.4378 113.82 32.5377C119.792 31.2687 124.902 36.5014 126.352 39.5814C126.352 39.5814 124.813 34.7802 118.209 24.9494C110.836 14.3942 107.352 10.2275 100.295 10.4074C93.2378 10.5897 82.0632 13.3629 67.7688 29.5361C53.4745 45.1186 41.4865 61.2802 33.5237 54.6195C26.0148 46.6021 50.8271 25.344 50.8271 25.344C50.8271 25.344 63.504 16.1592 54.1519 4.4273L54.1496 4.4296Z" fill="url(#paint1_linear_821_113)"/>
<path d="M9.87516 109.798C7.4267 109.798 6.07495 110.92 6.07495 112.447C6.03924 114.148 7.76081 114.911 9.81905 115.386L11.9461 115.895C16.0601 116.819 19.0288 118.913 19.0416 122.859C19.0314 127.198 15.6341 129.964 9.85731 129.964C4.08047 129.964 0.451145 127.316 0.326172 122.19H5.16698C5.32766 124.563 7.19971 125.765 9.8012 125.765C12.4027 125.765 13.984 124.586 13.9942 122.849C13.984 121.253 12.5506 120.512 9.97463 119.886L7.39865 119.238C3.40205 118.277 0.940837 116.275 0.951039 112.781C0.928085 108.478 4.7283 105.607 9.91597 105.607C15.1036 105.607 18.6514 108.524 18.7202 112.746H13.9253C13.7417 110.884 12.2726 109.796 9.88026 109.796L9.87516 109.798Z" fill="#05A0BF"/>
<path d="M21.4668 124.665C21.4668 120.696 24.6217 119.516 28.1337 119.192C31.2198 118.89 32.4313 118.74 32.4313 117.596V117.527C32.4313 116.068 31.4723 115.223 29.7967 115.223C28.0292 115.223 26.9784 116.091 26.6417 117.271L22.0891 116.901C22.7701 113.663 25.568 111.625 29.8196 111.625C33.7703 111.625 37.3537 113.407 37.3537 117.642V129.627H32.6863V127.163H32.5486C31.6815 128.817 29.9828 129.962 27.361 129.962C23.9765 129.962 21.4693 128.179 21.4693 124.662L21.4668 124.665ZM32.467 123.275V121.391C31.8778 121.784 30.1206 122.039 29.0468 122.19C27.315 122.433 26.1699 123.115 26.1699 124.504C26.1699 125.893 27.2564 126.562 28.7688 126.562C30.9291 126.562 32.467 125.14 32.467 123.275Z" fill="#05A0BF"/>
<path d="M41.1816 111.857H45.872V114.993H46.0811C46.8207 112.899 48.6341 111.627 51.0265 111.627C53.4188 111.627 55.2781 112.935 55.8443 114.993H56.028C56.7549 112.958 58.7774 111.627 61.3789 111.627C64.6843 111.627 66.9721 113.826 66.9721 117.677V129.629H62.0624V118.65C62.0624 116.671 60.8841 115.688 59.313 115.688C57.5225 115.688 56.4718 116.937 56.4718 118.778V129.629H51.6998V118.545C51.6998 116.799 50.6133 115.688 48.9963 115.688C47.3793 115.688 46.1066 116.995 46.1066 118.962V129.629H41.1842V111.859L41.1816 111.857Z" fill="#05A0BF"/>
<path d="M82.2377 111.857H87.1601V129.627H82.434V126.399H82.2504C81.4521 128.483 79.5341 129.859 76.8663 129.859C73.2957 129.859 70.8702 127.326 70.8574 123.173V111.857H75.7798V122.292C75.7901 124.386 76.9939 125.694 78.8532 125.694C80.7125 125.694 82.2504 124.445 82.2377 122.062V111.857Z" fill="#05A0BF"/>
<path d="M91.0924 111.857H95.8643V114.957H96.048C96.6958 112.758 98.3128 111.602 100.312 111.602C101.259 111.602 102.093 111.857 102.738 112.25L101.259 116.324C100.797 116.091 100.254 115.907 99.5829 115.907C97.5961 115.907 96.025 117.399 96.0123 119.575V129.63H91.0898V111.86L91.0924 111.857Z" fill="#05A0BF"/>
<path d="M102.848 130.031L111.876 106.335H116.25L125.279 130.031H121.262L118.972 123.761H109.173L106.87 130.031H102.853H102.848ZM117.867 120.752L114.169 110.641H113.973L110.275 120.752H117.87H117.867Z" fill="#0567A6"/>
<path d="M132.676 130.031H128.891V106.335H132.676V130.031Z" fill="#0567A6"/>
</g>
<defs>
<linearGradient id="paint0_linear_821_113" x1="87.6689" y1="44.7288" x2="120.631" y2="87.209" gradientUnits="userSpaceOnUse">
<stop stop-color="#0567A6"/>
<stop offset="1" stop-color="#05A0BF"/>
</linearGradient>
<linearGradient id="paint1_linear_821_113" x1="12.4163" y1="89.4921" x2="93.4016" y2="8.91758" gradientUnits="userSpaceOnUse">
<stop stop-color="#60E3D5"/>
<stop offset="0.05" stop-color="#53D9D1"/>
<stop offset="0.22" stop-color="#31C0C9"/>
<stop offset="0.38" stop-color="#18AEC3"/>
<stop offset="0.53" stop-color="#0AA3C0"/>
<stop offset="0.65" stop-color="#05A0BF"/>
</linearGradient>
<clipPath id="clip0_821_113">
<rect width="132.349" height="130" fill="white" transform="translate(0.326172)"/>
</clipPath>
</defs>
</svg>
