<svg width="153" height="28" viewBox="0 0 153 28" fill="none" xmlns="http://www.w3.org/2000/svg">
<g clip-path="url(#clip0_1611_5237)">
<path d="M10.6014 4.831C7.76416 4.831 6.19777 6.11492 6.19777 7.86385C6.15639 9.81166 8.15133 10.6861 10.5364 11.2301L13.0013 11.8121C17.7684 12.8708 21.2086 15.269 21.2234 19.7876C21.2116 24.7565 17.2749 27.9239 10.5807 27.9239C3.88659 27.9239 -0.319049 24.8911 -0.463867 19.0213H5.14562C5.33181 21.7383 7.50113 23.1158 10.5157 23.1158C13.5303 23.1158 15.3627 21.7646 15.3745 19.7759C15.3627 17.948 13.7017 17.0998 10.7167 16.3833L7.73166 15.6405C3.10043 14.5408 0.248401 12.2479 0.260223 8.24697C0.233624 3.31897 4.63728 0.0316772 10.6487 0.0316772C16.6601 0.0316772 20.7712 3.37161 20.851 8.20603H15.2947C15.0819 6.07398 13.3796 4.82808 10.6073 4.82808L10.6014 4.831Z" fill="white"/>
<path d="M24.0342 21.8553C24.0342 17.3104 27.6901 15.9592 31.7598 15.5878C35.3359 15.2427 36.7398 15.0702 36.7398 13.7599V13.6809C36.7398 12.011 35.6285 11.0429 33.6868 11.0429C31.6386 11.0429 30.421 12.0373 30.0308 13.3885L24.7553 12.9644C25.5444 9.25598 28.7866 6.92212 33.7133 6.92212C38.2914 6.92212 42.4438 8.96351 42.4438 13.8126V27.5379H37.0353V24.7156H36.8757C35.8708 26.6108 33.9025 27.921 30.8643 27.921C26.9424 27.921 24.0371 25.8796 24.0371 21.8524L24.0342 21.8553ZM36.7811 20.2643V18.1059C36.0984 18.5563 34.0621 18.8488 32.8178 19.0213C30.8111 19.2992 29.4841 20.08 29.4841 21.6711C29.4841 23.2621 30.7431 24.0283 32.4957 24.0283C34.999 24.0283 36.7811 22.3993 36.7811 20.2643Z" fill="white"/>
<path d="M46.8789 7.18826H52.314V10.7797H52.5564C53.4135 8.38151 55.5148 6.92505 58.287 6.92505C61.0593 6.92505 63.2138 8.42246 63.8699 10.7797H64.0827C64.925 8.44878 67.2687 6.92505 70.2833 6.92505C74.1136 6.92505 76.7646 9.44316 76.7646 13.8535V27.5408H71.0753V14.9678C71.0753 12.7012 69.7099 11.5752 67.8894 11.5752C65.8146 11.5752 64.597 13.0054 64.597 15.114V27.5408H59.0673V14.8479C59.0673 12.8474 57.8082 11.5752 55.9345 11.5752C54.0607 11.5752 52.5859 13.0726 52.5859 15.3246V27.5408H46.8819V7.19119L46.8789 7.18826Z" fill="white"/>
<path d="M94.4539 7.18829H100.158V27.5379H94.6815V23.8412H94.4687C93.5436 26.2277 91.3211 27.804 88.2297 27.804C84.092 27.804 81.2814 24.9028 81.2666 20.1473V7.18829H86.9707V19.1384C86.9825 21.5366 88.3775 23.034 90.532 23.034C92.6865 23.034 94.4687 21.6038 94.4539 18.8751V7.18829Z" fill="white"/>
<path d="M104.716 7.18828H110.246V10.7388H110.458C111.209 8.22067 113.083 6.89581 115.4 6.89581C116.496 6.89581 117.463 7.18828 118.211 7.63867L116.496 12.3035C115.961 12.0373 115.332 11.8267 114.555 11.8267C112.252 11.8267 110.432 13.5347 110.417 16.0265V27.5408H104.713V7.1912L104.716 7.18828Z" fill="white"/>
<path d="M118.337 28L128.799 0.865234H133.868L144.33 28H139.675L137.021 20.82H125.666L122.998 28H118.343H118.337ZM135.742 17.3748L131.456 5.79616H131.229L126.943 17.3748H135.745H135.742Z" fill="white"/>
<path d="M152.901 28H148.515V0.865234H152.901V28Z" fill="white"/>
</g>
<defs>
<clipPath id="clip0_1611_5237">
<rect width="153" height="28" fill="white"/>
</clipPath>
</defs>
</svg>
