<svg width="351" height="65" viewBox="0 0 351 65" fill="none" xmlns="http://www.w3.org/2000/svg">
<path d="M36.6851 19.4425C36.4408 16.9789 35.3923 15.0651 33.5395 13.701C31.6868 12.3369 29.1723 11.6548 25.9962 11.6548C23.838 11.6548 22.0158 11.9602 20.5296 12.571C19.0433 13.1615 17.9031 13.986 17.1091 15.0447C16.3354 16.1035 15.9486 17.3047 15.9486 18.6484C15.9079 19.7682 16.142 20.7455 16.651 21.5803C17.1804 22.415 17.9031 23.1378 18.8193 23.7486C19.7355 24.339 20.7942 24.8582 21.9955 25.3061C23.1967 25.7337 24.4794 26.1001 25.8435 26.4055L31.4628 27.7493C34.191 28.3601 36.6953 29.1745 38.9756 30.1925C41.2559 31.2105 43.2308 32.4626 44.9003 33.9489C46.5698 35.4351 47.8627 37.1861 48.7789 39.2017C49.7154 41.2173 50.1939 43.5282 50.2142 46.1342C50.1939 49.9619 49.2166 53.2805 47.2824 56.0902C45.3686 58.8795 42.5996 61.0478 38.9756 62.5952C35.3719 64.1222 31.0251 64.8857 25.9351 64.8857C20.8859 64.8857 16.4881 64.112 12.7419 62.5646C9.01607 61.0173 6.10461 58.7268 4.00755 55.6932C1.93084 52.6392 0.84159 48.8625 0.73979 44.3629H13.536C13.6785 46.46 14.2791 48.2109 15.3378 49.6158C16.4169 51.0002 17.8522 52.0488 19.6439 52.7614C21.4559 53.4536 23.5021 53.7997 25.7824 53.7997C28.022 53.7997 29.9664 53.474 31.6155 52.8224C33.285 52.1709 34.5779 51.2649 35.4941 50.1044C36.4102 48.9439 36.8683 47.6103 36.8683 46.1037C36.8683 44.6989 36.451 43.518 35.6162 42.5611C34.8018 41.6042 33.6006 40.7898 32.0125 40.1179C30.4448 39.446 28.5208 38.8352 26.2405 38.2855L19.4301 36.5753C14.1569 35.2926 9.99334 33.2872 6.93936 30.5589C3.88539 27.8307 2.36858 24.1558 2.38894 19.5341C2.36858 15.7472 3.37639 12.4387 5.41238 9.60867C7.46872 6.77865 10.2886 4.5696 13.8719 2.98153C17.4552 1.39346 21.5272 0.599429 26.0878 0.599429C30.7298 0.599429 34.7815 1.39346 38.2426 2.98153C41.7242 4.5696 44.432 6.77865 46.3662 9.60867C48.3004 12.4387 49.298 15.7166 49.3591 19.4425H36.6851ZM72.241 64.8857C69.2481 64.8857 66.581 64.3665 64.2396 63.3281C61.8982 62.2694 60.0455 60.7119 58.6814 58.6555C57.3376 56.5788 56.6657 53.9931 56.6657 50.8984C56.6657 48.2924 57.1442 46.1037 58.1011 44.3324C59.058 42.5611 60.3611 41.1359 62.0102 40.0568C63.6594 38.9777 65.5325 38.1634 67.6295 37.6136C69.747 37.0639 71.9662 36.6771 74.2872 36.4531C77.0154 36.1681 79.2143 35.9034 80.8838 35.6591C82.5533 35.3944 83.7647 35.0076 84.518 34.4986C85.2713 33.9896 85.648 33.2363 85.648 32.2386V32.0554C85.648 30.1212 85.0372 28.6248 83.8156 27.566C82.6144 26.5073 80.9041 25.978 78.6849 25.978C76.3435 25.978 74.4806 26.4972 73.0961 27.5355C71.7117 28.5535 70.7955 29.8362 70.3476 31.3835L58.3149 30.4062C58.9257 27.5559 60.1269 25.0923 61.9186 23.0156C63.7103 20.9186 66.0211 19.3101 68.8511 18.1903C71.7015 17.0502 74.9998 16.4801 78.746 16.4801C81.3521 16.4801 83.8461 16.7855 86.2283 17.3963C88.6307 18.0071 90.7583 18.9538 92.6111 20.2365C94.4842 21.5192 95.9603 23.1683 97.0393 25.1839C98.1184 27.1792 98.6579 29.5715 98.6579 32.3608V64H86.3199V57.495H85.9534C85.2001 58.9609 84.1923 60.2538 82.93 61.3736C81.6676 62.473 80.1508 63.3383 78.3795 63.9695C76.6082 64.5803 74.5621 64.8857 72.241 64.8857ZM75.9669 55.907C77.8807 55.907 79.5706 55.5303 81.0365 54.777C82.5024 54.0033 83.6527 52.965 84.4875 51.6619C85.3222 50.3589 85.7396 48.8828 85.7396 47.2337V42.2557C85.3324 42.5204 84.7725 42.7647 84.0599 42.9886C83.3677 43.1922 82.5838 43.3857 81.7084 43.5689C80.8329 43.7318 79.9574 43.8845 79.0819 44.027C78.2065 44.1491 77.4124 44.2611 76.6998 44.3629C75.1729 44.5869 73.8393 44.9432 72.6991 45.4318C71.559 45.9205 70.6733 46.5821 70.0422 47.4169C69.411 48.2313 69.0954 49.2493 69.0954 50.4709C69.0954 52.2422 69.7368 53.5961 71.0194 54.5327C72.3225 55.4489 73.9716 55.907 75.9669 55.907ZM108.751 64V17.0909H121.15V25.3672H121.7C122.677 22.6186 124.306 20.4503 126.587 18.8622C128.867 17.2741 131.595 16.4801 134.771 16.4801C137.988 16.4801 140.726 17.2843 142.986 18.8928C145.246 20.4808 146.753 22.639 147.506 25.3672H147.995C148.952 22.6797 150.682 20.5317 153.187 18.9233C155.711 17.2945 158.694 16.4801 162.135 16.4801C166.512 16.4801 170.065 17.8748 172.793 20.6641C175.542 23.433 176.916 27.3625 176.916 32.4524V64H163.937V35.0178C163.937 32.4117 163.244 30.4571 161.86 29.1541C160.476 27.8511 158.745 27.1996 156.668 27.1996C154.306 27.1996 152.464 27.9529 151.141 29.4595C149.817 30.9458 149.155 32.9105 149.155 35.3537V64H136.543V34.7429C136.543 32.4422 135.881 30.6098 134.557 29.2457C133.254 27.8816 131.534 27.1996 129.396 27.1996C127.951 27.1996 126.648 27.5661 125.487 28.299C124.347 29.0116 123.441 30.0194 122.769 31.3224C122.097 32.6051 121.761 34.1117 121.761 35.8423V64H108.751ZM217.274 44.027V17.0909H230.284V64H217.794V55.4794H217.305C216.246 58.228 214.485 60.437 212.022 62.1065C209.578 63.776 206.596 64.6108 203.073 64.6108C199.938 64.6108 197.179 63.8982 194.797 62.473C192.415 61.0478 190.552 59.022 189.208 56.3956C187.885 53.7692 187.213 50.6236 187.193 46.9588V17.0909H200.203V44.6378C200.223 47.4067 200.966 49.5954 202.432 51.2038C203.898 52.8123 205.863 53.6165 208.326 53.6165C209.894 53.6165 211.36 53.2602 212.724 52.5476C214.088 51.8146 215.188 50.7356 216.022 49.3104C216.877 47.8852 217.295 46.1241 217.274 44.027ZM240.691 64V17.0909H253.304V25.2756H253.792C254.647 22.3641 256.083 20.1652 258.098 18.679C260.114 17.1723 262.435 16.419 265.062 16.419C265.713 16.419 266.415 16.4598 267.169 16.5412C267.922 16.6226 268.584 16.7346 269.154 16.8771V28.4212C268.543 28.2379 267.698 28.075 266.619 27.9325C265.54 27.79 264.553 27.7188 263.657 27.7188C261.743 27.7188 260.033 28.1361 258.526 28.9709C257.04 29.7853 255.859 30.9254 254.983 32.3913C254.128 33.8572 253.701 35.5471 253.701 37.4609V64H240.691ZM283.462 64H269.291L290.883 1.45454H307.924L329.485 64H315.315L299.648 15.7472H299.159L283.462 64ZM282.576 39.4155H316.048V49.7379H282.576V39.4155ZM350.237 1.45454V64H337.013V1.45454H350.237Z" fill="white"/>
</svg>
