<svg width="16" height="8" viewBox="0 0 16 8" fill="none" xmlns="http://www.w3.org/2000/svg">
<path d="M0.753543 0.0278807C0.471743 0.110294 0.218122 0.308086 0.077222 0.555326C0.0114685 0.673451 0.0020752 0.731141 0.0020752 0.981128C0.0020752 1.24485 0.00833742 1.28331 0.0897464 1.42066C0.164893 1.54428 0.847476 2.15689 3.7375 4.69522C6.69327 7.29124 7.32889 7.83517 7.48544 7.90934C7.66391 7.9945 7.68896 7.99999 8.00208 7.99999C8.31519 7.99999 8.34024 7.9945 8.51871 7.90934C8.6784 7.83517 9.30775 7.29399 12.2792 4.68148C15.1128 2.1926 15.8643 1.51681 15.9269 1.40693C15.9927 1.2888 16.0021 1.23111 16.0021 0.981128C16.0021 0.717405 15.9927 0.678945 15.9113 0.536096C15.8017 0.346545 15.6201 0.187213 15.3915 0.0828228C15.235 0.0141451 15.188 0.00590372 14.9062 0.00590372C14.3582 0.00590372 14.6714 -0.233095 11.1269 2.87389L8.00208 5.61001L4.88035 2.87389C1.37037 -0.197382 1.64904 0.0141452 1.14493 0.000409603C0.988377 -0.00233751 0.82869 0.00865091 0.753543 0.0278807Z" fill="currentColor"/>
</svg>
