<svg width="24" height="24" viewBox="0 0 24 24" fill="none" xmlns="http://www.w3.org/2000/svg">
<g clip-path="url(#clip0_2831_22980)">
<path d="M12.4441 2.00173C15.9904 2.00173 19.537 2.00173 23.0833 2.00173C23.1776 2.00173 23.2722 1.99804 23.3665 2.00337C23.7502 2.02429 24.0041 2.29369 23.9998 2.67298C23.9959 3.04161 23.753 3.29502 23.3806 3.31921C22.9412 3.34791 22.7215 3.5897 22.7215 4.04458C22.7215 8.14709 22.7215 12.2496 22.7215 16.3525C22.7215 16.6931 22.8795 16.8647 23.1955 16.8671C23.2585 16.8675 23.3219 16.8647 23.3841 16.8712C23.7592 16.9106 23.9974 17.1661 24.0002 17.5302C24.0029 17.8968 23.7725 18.1703 23.3946 18.1932C22.9554 18.2203 22.5138 18.2174 22.0733 18.217C20.017 18.2145 16.8294 18.2092 14.7731 18.2027C14.6374 18.2022 14.4989 18.1986 14.3667 18.1703C14.0843 18.1096 13.8903 17.8599 13.8754 17.5642C13.8609 17.276 14.0424 17.0098 14.3147 16.9118C14.4574 16.8606 14.6041 16.8671 14.7508 16.8671C16.4926 16.8671 19.3653 16.8618 21.1071 16.8729C21.3696 16.8745 21.469 16.8224 21.4686 16.5161C21.4584 12.2377 21.4588 7.95888 21.4682 3.68046C21.469 3.38072 21.3774 3.31634 21.1087 3.31675C15.3168 3.32413 9.5253 3.32495 3.73339 3.31511C3.43064 3.3147 3.37274 3.41844 3.37548 3.70752C3.38839 5.09307 3.38135 6.47903 3.38135 7.86498C3.38135 8.00768 3.3837 8.14955 3.3348 8.28815C3.22958 8.58666 2.97728 8.75519 2.6714 8.72444C2.38976 8.69615 2.16641 8.4821 2.13159 8.17375C2.10734 7.95642 2.11243 7.735 2.11204 7.51521C2.11047 6.22849 2.10578 4.94135 2.11556 3.65463C2.11751 3.4004 2.05141 3.28641 1.79754 3.31921C1.67355 3.3352 1.54564 3.32577 1.42047 3.31634C1.07429 3.2901 0.828641 3.0248 0.822383 2.6779C0.816124 2.33756 1.06177 2.04684 1.39582 2.00788C1.49948 1.99599 1.60548 2.00255 1.71032 2.00255C5.28825 2.00255 8.86619 2.00255 12.4441 2.00255V2.00173Z" fill="#05A0BF"/>
<path d="M14.483 13.1289C14.314 12.869 14.0657 12.8091 13.7879 12.8755C13.5794 12.9255 13.4629 13.106 13.335 13.2659C11.3412 15.7618 12.7635 13.9392 10.7697 16.4351C10.1513 17.2093 9.53251 17.9831 8.87419 18.8064C8.8249 18.6514 8.79596 18.5575 8.76544 18.4644C8.37546 17.2692 7.59353 16.3457 6.58316 15.8069C7.30916 15.18 7.77464 14.2279 7.78989 13.1482C7.81571 11.2915 6.36177 9.71653 4.59451 9.687C2.74276 9.65584 1.24422 11.1488 1.21684 13.0514C1.2012 14.1614 1.66511 15.1509 2.40636 15.7987C1.32128 16.4085 0.466207 17.5037 0.140371 18.8175C-0.0583379 19.6191 0.0144178 20.4351 0.00737691 21.2462C0.00346531 21.71 0.256155 21.9958 0.628147 21.9986C1.00601 22.0015 8.02224 21.9986 8.36998 21.9986C8.71733 21.999 8.97667 21.7243 9.0064 21.3184C9.01501 21.1978 9.01696 21.0756 9.00796 20.9555C8.99506 20.7788 9.0549 20.6434 9.16325 20.5081C11.5505 17.5259 13.9284 14.5936 14.4361 13.9494C14.6391 13.6923 14.6665 13.4106 14.483 13.1289ZM4.5018 11.0057C5.617 11.0106 6.51706 11.9558 6.52214 13.1277C6.52723 14.3045 5.63812 15.246 4.51549 15.2517C3.39286 15.2575 2.48264 14.3242 2.47403 13.1576C2.46543 11.9792 3.38739 11.0008 4.5018 11.0057Z" fill="#05A0BF"/>
<path d="M13.0616 8.75778C14.688 8.75778 16.3149 8.75696 17.9413 8.75901C18.077 8.75901 18.2155 8.76106 18.3481 8.78771C18.6407 8.84676 18.8257 9.0809 18.8418 9.38597C18.8582 9.70704 18.6892 9.96701 18.3896 10.0515C18.2703 10.0851 18.1416 10.0929 18.0168 10.0929C14.7111 10.0949 11.4054 10.0949 8.09973 10.0941C7.63817 10.0941 7.38821 9.94035 7.30138 9.61027C7.20007 9.22564 7.40269 8.8648 7.77507 8.78689C7.90728 8.75942 8.04614 8.7586 8.18188 8.7586C9.80832 8.75696 11.4352 8.75737 13.0616 8.75737V8.75778Z" fill="#05A0BF"/>
<path d="M14.3462 7.39194C13.1305 7.39194 11.9147 7.39194 10.699 7.39194C10.5519 7.39194 10.4053 7.39481 10.2648 7.3374C9.9879 7.22423 9.85451 7.00281 9.85255 6.70101C9.8506 6.40291 10.0493 6.1495 10.3309 6.0884C10.4729 6.05765 10.622 6.05232 10.7679 6.05232C13.1575 6.05027 15.5471 6.05027 17.9363 6.05232C18.072 6.05232 18.2101 6.05642 18.3427 6.08266C18.6357 6.14089 18.8222 6.37174 18.8406 6.67559C18.8602 6.99666 18.692 7.2476 18.397 7.35011C18.2641 7.39645 18.1287 7.39194 17.9926 7.39194C16.7769 7.39235 15.5611 7.39194 14.3454 7.39194H14.3462Z" fill="#05A0BF"/>
</g>
<defs>
<clipPath id="clip0_2831_22980">
<rect width="24" height="24" fill="white"/>
</clipPath>
</defs>
</svg>
