<svg width="24" height="24" viewBox="0 0 24 24" fill="none" xmlns="http://www.w3.org/2000/svg">
<path d="M3 3L3 19C3 19.5304 3.21072 20.0391 3.58579 20.4142C3.96086 20.7893 4.46957 21 5 21L21 21M16 5L18 5C18.5523 5 19 5.44771 19 6L19 16C19 16.5523 18.5523 17 18 17L16 17C15.4477 17 15 16.5523 15 16L15 6C15 5.44771 15.4477 5 16 5ZM8 8L10 8C10.5523 8 11 8.44771 11 9L11 16C11 16.5523 10.5523 17 10 17L8 17C7.44772 17 7 16.5523 7 16L7 9C7 8.44771 7.44772 8 8 8Z" stroke="#EFB61B" stroke-width="1.5" stroke-linecap="round" stroke-linejoin="round"/>
</svg>
