<svg width="40" height="40" viewBox="0 0 40 40" fill="none" xmlns="http://www.w3.org/2000/svg">
<g clip-path="url(#clip0_121_25841)">
<path d="M0.85625 19.7618C0.855312 23.1226 1.74031 26.4041 3.42313 29.2965L0.695312 39.179L10.8878 36.5272C13.7069 38.05 16.8655 38.8479 20.0753 38.8482H20.0837C30.6798 38.8482 39.3053 30.2927 39.3098 19.7768C39.3119 14.6812 37.3138 9.88955 33.6834 6.28458C30.0538 2.67993 25.2264 0.693732 20.083 0.691406C9.48563 0.691406 0.860781 9.24645 0.856406 19.7618" fill="url(#paint0_linear_121_25841)"/>
<path d="M0.167188 19.7544C0.166094 23.2361 1.08281 26.635 2.82562 29.631L0 39.8678L10.558 37.1209C13.467 38.6947 16.7423 39.5245 20.0752 39.5257H20.0837C31.06 39.5257 39.9953 30.6625 40 19.7702C40.0019 14.4915 37.9319 9.5276 34.1719 5.79349C30.4114 2.05984 25.4114 0.00217054 20.0837 0C9.10562 0 0.171563 8.86202 0.167188 19.7544ZM6.45484 29.115L6.06062 28.4941C4.40344 25.8795 3.52875 22.8581 3.53 19.7557C3.53344 10.7022 10.9591 3.33643 20.09 3.33643C24.5119 3.33829 28.6675 5.04868 31.7931 8.15194C34.9186 11.2555 36.6384 15.3811 36.6373 19.769C36.6333 28.8225 29.2075 36.1892 20.0837 36.1892H20.0772C17.1064 36.1876 14.1928 35.396 11.6519 33.9L11.0472 33.5442L4.78188 35.1741L6.45484 29.115Z" fill="url(#paint1_linear_121_25841)"/>
<path d="M15.1031 11.4955C14.7303 10.6734 14.338 10.6568 13.9834 10.6423C13.6931 10.6299 13.3612 10.6309 13.0297 10.6309C12.6978 10.6309 12.1586 10.7548 11.7028 11.2485C11.2466 11.7428 9.96094 12.9372 9.96094 15.3665C9.96094 17.7958 11.7442 20.1437 11.9928 20.4735C12.2417 20.8027 15.4355 25.9475 20.4936 27.9267C24.6973 29.5715 25.5528 29.2444 26.4652 29.1619C27.3777 29.0797 29.4095 27.9678 29.8241 26.8147C30.2389 25.6619 30.2389 24.6737 30.1145 24.4672C29.9902 24.2614 29.6583 24.1378 29.1606 23.891C28.663 23.6442 26.2162 22.4495 25.7602 22.2847C25.3039 22.12 24.9722 22.0379 24.6403 22.5323C24.3084 23.0259 23.3555 24.1379 23.065 24.4672C22.7748 24.7972 22.4844 24.8383 21.9869 24.5913C21.4889 24.3436 19.8863 23.8228 17.9848 22.1408C16.5055 20.832 15.5067 19.2157 15.2164 18.7213C14.9261 18.2276 15.1853 17.96 15.4348 17.714C15.6584 17.4927 15.9327 17.1374 16.1817 16.8492C16.4298 16.5608 16.5127 16.3551 16.6786 16.0258C16.8447 15.6961 16.7616 15.4078 16.6373 15.1608C16.5127 14.9138 15.5456 12.4718 15.1031 11.4955Z" fill="white"/>
</g>
<defs>
<linearGradient id="paint0_linear_121_25841" x1="1931.42" y1="3849.45" x2="1931.42" y2="0.691406" gradientUnits="userSpaceOnUse">
<stop stop-color="#1FAF38"/>
<stop offset="1" stop-color="#60D669"/>
</linearGradient>
<linearGradient id="paint1_linear_121_25841" x1="2000" y1="3986.78" x2="2000" y2="0" gradientUnits="userSpaceOnUse">
<stop stop-color="#F9F9F9"/>
<stop offset="1" stop-color="white"/>
</linearGradient>
<clipPath id="clip0_121_25841">
<rect width="40" height="40" fill="white"/>
</clipPath>
</defs>
</svg>
