<svg width="52" height="52" viewBox="0 0 52 52" fill="none" xmlns="http://www.w3.org/2000/svg">
<path d="M12.5673 24.4835L4.33398 47.6668L27.5173 39.4552M8.66732 6.50016H8.68898M47.6673 17.3335H47.689M32.5006 4.3335H32.5223M47.6673 43.3335H47.689M47.6673 4.3335L42.814 5.9585C41.4325 6.41867 40.2537 7.34438 39.4791 8.5774C38.7045 9.81041 38.3822 11.2742 38.5673 12.7185C38.784 14.5818 37.3323 16.2502 35.4256 16.2502H34.6023C32.739 16.2502 31.1356 17.5502 30.789 19.3702L30.334 21.6668M47.6673 28.1668L45.8906 27.4518C44.0273 26.7152 41.9473 27.8852 41.6006 29.8568C41.3623 31.3735 40.0406 32.5002 38.5023 32.5002H36.834M23.834 4.3335L24.549 6.11016C25.2856 7.9735 24.1157 10.0535 22.144 10.4002C20.6273 10.6168 19.5006 11.9602 19.5006 13.4985V15.1668M23.834 28.1668C28.0156 32.3485 29.9656 37.2018 28.1673 39.0002C26.369 40.7985 21.5156 38.8485 17.334 34.6668C13.1523 30.4852 11.2023 25.6318 13.0007 23.8335C14.799 22.0352 19.6523 23.9852 23.834 28.1668Z" stroke="#05A0BF" stroke-width="2" stroke-linecap="round" stroke-linejoin="round"/>
</svg>
