<svg width="24" height="24" viewBox="0 0 24 24" fill="none" xmlns="http://www.w3.org/2000/svg">
<path d="M16.9572 14.6796C16.3044 13.882 15.6133 13.0952 15.0163 12.4199C14.7154 12.0793 14.8977 11.8423 15.0609 11.6935C15.411 11.3749 15.7554 11.0359 16.0887 10.7081L16.255 10.545C17.7133 9.11415 18.6007 7.3908 18.8922 5.42336C19.02 4.56027 19.0051 3.66988 18.9908 2.80867C18.9861 2.52481 18.981 2.23084 18.9813 1.9411C18.982 0.858414 18.0978 0.00826762 16.9681 0.00567858C13.7817 -0.00185317 10.44 -0.00185317 7.03553 0.00544322C5.89128 0.00803226 5.02019 0.848764 5.00874 1.96182V1.96629C5.00071 2.74983 4.99243 3.56019 5.01239 4.35456C5.06133 6.30975 5.7099 8.09337 6.94033 9.6555C7.38318 10.218 7.91855 10.7231 8.43663 11.2117C8.60169 11.3673 8.77211 11.5281 8.9379 11.6893C9.10832 11.8548 9.26657 12.0864 8.97759 12.4107C8.47923 12.9697 7.98428 13.5497 7.50564 14.1105C7.40071 14.2339 7.29554 14.357 7.19037 14.4801C6.14252 15.7054 5.45768 17.1246 5.15482 18.6988C4.99219 19.5445 4.99925 20.4205 5.00631 21.268C5.00826 21.4822 5.00996 21.7039 5.00899 21.9221C5.00655 22.5322 5.20716 23.0507 5.5889 23.4219C5.97624 23.798 6.52134 23.9971 7.16651 23.9976C8.34582 23.9985 9.54509 23.9983 10.7049 23.9981H11.9921L12.0486 23.9978C12.5362 23.9978 13.0239 23.9983 13.5115 23.9988C14.6409 24.0002 15.809 24.0016 16.9574 23.9955C18.0997 23.9889 18.9718 23.1477 18.9856 22.0382C18.9942 21.3415 18.9971 20.7559 18.9834 20.1637C18.936 18.1101 18.2541 16.2651 16.9572 14.6799V14.6796ZM17.6515 21.9791C17.6478 22.5981 17.234 22.7283 16.8878 22.7287C15.3313 22.7299 13.7591 22.7306 12.1494 22.7306C10.5396 22.7306 8.83492 22.7299 7.09566 22.7285C6.8561 22.7285 6.65841 22.6591 6.52378 22.5284C6.4096 22.4176 6.34971 22.2705 6.35044 22.1027C6.35165 21.8541 6.34752 21.6001 6.34338 21.3547C6.33047 20.5356 6.31684 19.6885 6.48823 18.8504C6.76018 17.5198 7.36395 16.3096 8.28276 15.2532C8.79646 14.6625 9.31599 14.0592 9.81825 13.4757C10.0712 13.1818 10.3244 12.8878 10.5778 12.5941C10.9766 12.132 10.9615 11.8597 10.5143 11.4285C10.3166 11.2379 10.1136 11.0449 9.91733 10.8585C9.45939 10.423 8.98562 9.97254 8.5362 9.51145C7.11441 8.05241 6.37697 6.28245 6.34411 4.25029C6.3351 3.68141 6.33778 3.10405 6.34046 2.54576C6.34119 2.38501 6.34192 2.22449 6.3424 2.06373C6.34386 1.54616 6.60582 1.29431 7.14362 1.29408C8.33145 1.2929 9.53924 1.29314 10.7071 1.29314H12.0257L13.2909 1.29337C14.4585 1.29314 15.6267 1.29314 16.7945 1.29361C17.0239 1.29361 17.2822 1.31714 17.4587 1.49061C17.6352 1.66384 17.6537 1.92039 17.6505 2.12445C17.6454 2.43373 17.6495 2.75077 17.6537 3.05698C17.6622 3.67623 17.671 4.3169 17.6033 4.95169C17.4192 6.68281 16.7018 8.20117 15.4711 9.46485C15.0217 9.92641 14.5479 10.3776 14.09 10.814C13.8879 11.0065 13.6788 11.2056 13.475 11.4029C13.0251 11.8378 13.0136 12.0885 13.4221 12.5689C13.698 12.893 13.9794 13.222 14.2519 13.54C14.7755 14.152 15.3175 14.7851 15.8433 15.4135C17.0299 16.8326 17.6383 18.4898 17.6515 20.3391C17.6549 20.831 17.6547 21.3671 17.6513 21.9789L17.6515 21.9791Z" fill="#F8312F"/>
<path d="M16.1297 20.2263C16.1311 20.4016 16.0759 20.5535 15.9696 20.6653C15.8394 20.8022 15.6346 20.8778 15.3932 20.878C14.8302 20.8787 13.2669 20.8787 12.704 20.8785H11.9828C11.7393 20.8783 11.4947 20.8785 11.2508 20.8785C10.7007 20.8787 9.13194 20.879 8.57264 20.8778C8.34634 20.8773 8.15147 20.8029 8.02351 20.6686C7.91523 20.5549 7.85848 20.4026 7.85939 20.2282C7.86165 19.8394 8.14559 19.588 8.58236 19.5877C9.36909 19.5873 11.1748 19.587 11.9941 19.587C12.8134 19.587 14.5917 19.5873 15.4038 19.5877C15.8417 19.588 16.1263 19.8386 16.1297 20.2263Z" fill="#F8312F"/>
<path d="M15.1297 17.6393C15.1311 17.8146 15.0759 17.9664 14.9696 18.0782C14.8394 18.2152 14.6346 18.2908 14.3932 18.291C13.8302 18.2917 13.2669 18.2917 12.704 18.2915H11.9828C11.7393 18.2912 11.4947 18.2915 11.2508 18.2915C10.7007 18.2917 10.1319 18.2919 9.57264 18.2908C9.34634 18.2903 9.15147 18.2159 9.02351 18.0815C8.91523 17.9678 8.85848 17.8155 8.85939 17.6411C8.86165 17.2523 9.14559 17.0009 9.58236 17.0007C10.3691 17.0002 11.1748 17 11.9941 17C12.8134 17 13.5917 17.0002 14.4038 17.0007C14.8417 17.0009 15.1263 17.2516 15.1297 17.6393Z" fill="#F8312F"/>
<path d="M15.1297 7.63926C15.1311 7.81461 15.0759 7.96642 14.9696 8.07822C14.8394 8.2152 14.6346 8.29076 14.3932 8.29099C13.8302 8.2917 13.2669 8.2917 12.704 8.29146H11.9828C11.7393 8.29123 11.4947 8.29146 11.2508 8.29146C10.7007 8.2917 10.1319 8.29194 9.57264 8.29076C9.34634 8.29029 9.15147 8.21591 9.02351 8.08152C8.91523 7.96783 8.85848 7.81555 8.85939 7.64114C8.86165 7.25231 9.14559 7.00094 9.58236 7.00071C10.3691 7.00024 11.1748 7 11.9941 7C12.8134 7 13.5917 7.00024 14.4038 7.00071C14.8417 7.00094 15.1263 7.25161 15.1297 7.63926Z" fill="#F8312F"/>
</svg>
