<svg width="52" height="52" viewBox="0 0 52 52" fill="none" xmlns="http://www.w3.org/2000/svg">
<path d="M30.333 47.6666V38.9999C30.333 37.8506 29.8765 36.7484 29.0638 35.9358C28.2511 35.1231 27.1489 34.6666 25.9997 34.6666C24.8504 34.6666 23.7482 35.1231 22.9355 35.9358C22.1229 36.7484 21.6663 37.8506 21.6663 38.9999V47.6666M38.9997 21.6666L46.4682 25.4019C46.828 25.5817 47.1307 25.8582 47.3423 26.2003C47.5539 26.5424 47.6661 26.9366 47.6663 27.3389V43.3332C47.6663 44.4825 47.2098 45.5847 46.3971 46.3974C45.5845 47.21 44.4823 47.6666 43.333 47.6666H8.66634C7.51707 47.6666 6.41487 47.21 5.60221 46.3974C4.78955 45.5847 4.33301 44.4825 4.33301 43.3332V27.3389C4.33322 26.9366 4.44542 26.5424 4.65704 26.2003C4.86865 25.8582 5.17133 25.5817 5.53117 25.4019L12.9997 21.6666M38.9997 10.8332V47.6666M8.66634 12.9999L24.0627 5.30175C24.6641 5.00119 25.3273 4.84473 25.9997 4.84473C26.6721 4.84473 27.3352 5.00119 27.9367 5.30175L43.333 12.9999M12.9997 10.8332V47.6666M30.333 19.4999C30.333 21.8931 28.3929 23.8332 25.9997 23.8332C23.6064 23.8332 21.6663 21.8931 21.6663 19.4999C21.6663 17.1067 23.6064 15.1666 25.9997 15.1666C28.3929 15.1666 30.333 17.1067 30.333 19.4999Z" stroke="#05A0BF" stroke-width="2" stroke-linecap="round" stroke-linejoin="round"/>
</svg>
