<svg width="24" height="24" viewBox="0 0 24 24" fill="none" xmlns="http://www.w3.org/2000/svg">
<g clip-path="url(#clip0_2831_22966)">
<path d="M0.687833 13.6794C0.278337 13.6672 0.00702259 13.3978 0.00449873 12.9797C-0.00117995 12.0968 -0.00181091 11.2144 0.00449873 10.3314C0.00765356 9.9147 0.28023 9.64267 0.69225 9.63752C1.20964 9.63109 1.72766 9.63624 2.26398 9.63624C2.20026 7.39502 3.10632 5.73903 5.05979 4.68884C3.90702 3.27529 4.29947 1.60901 5.2251 0.744036C6.25799 -0.22062 7.79565 -0.247631 8.86955 0.668793C9.77309 1.44052 10.3548 3.14346 9.1232 4.68948C11.0609 5.73259 11.9726 7.38537 11.9114 9.62016H16.0512V8.287C15.9704 8.287 14.5766 8.28958 13.9627 8.28636C13.4952 8.28379 13.2301 8.01561 13.2301 7.53907C13.2283 5.66121 13.2283 3.78335 13.2301 1.90548C13.2301 1.42958 13.4958 1.16077 13.9646 1.16077C16.6885 1.15884 19.4117 1.15884 22.1356 1.16077C22.6012 1.16077 22.8643 1.4328 22.865 1.91127C22.8669 3.78913 22.8675 5.667 22.865 7.54486C22.865 8.01819 22.5962 8.28379 22.1261 8.28636C21.5122 8.28958 20.1304 8.287 20.0433 8.287V9.63559C20.1266 9.63559 23.2208 9.63559 23.2208 9.63559C23.749 9.63624 23.9988 9.89283 23.9995 10.433C24.0007 11.2434 24.0001 12.0543 23.9995 12.8646C23.9995 13.4331 23.754 13.6788 23.1906 13.6801C23.0902 13.6801 0.834217 13.6833 0.688464 13.6788L0.687833 13.6794ZM14.5627 6.92169H21.5248V2.52093H14.5627V6.92169ZM1.33583 12.3154H22.6574V10.9964H1.33583V12.3154ZM10.5782 9.62466C10.6615 8.11722 10.1706 6.89726 8.89416 6.1146C7.6417 5.34673 6.34885 5.38275 5.13361 6.21106C3.95623 7.01301 3.50951 8.19504 3.60163 9.62402H10.5782V9.62466ZM8.50485 2.78782C8.50044 1.99745 7.86569 1.35306 7.09086 1.35306C6.30468 1.35306 5.66867 2.00516 5.67119 2.80711C5.67435 3.59556 6.30973 4.24059 7.08518 4.24188C7.8701 4.24317 8.50864 3.58913 8.50422 2.78782H8.50485ZM17.3951 9.61694H18.6968V8.30115H17.3951V9.61694Z" fill="#05A0BF"/>
<path d="M1.13721 14.5762H22.8632V14.8456C22.8632 17.6136 22.8632 20.3815 22.8632 23.1494C22.8632 23.7655 22.7881 23.9996 22.1755 23.9996C15.5005 23.9996 8.82551 23.9996 2.14991 23.9996C1.52273 23.9996 1.13721 23.7693 1.13721 23.134C1.13721 20.3738 1.13721 17.6142 1.13721 14.854C1.13721 14.7672 1.13721 14.681 1.13721 14.5762Z" fill="#05A0BF"/>
<path d="M14.0387 19.7591C13.9753 19.6259 13.9013 19.5727 13.7329 19.6213H13.7341C13.7341 20.2057 13.7397 20.7896 13.7324 21.3735C13.7262 21.8492 13.2841 22.1386 12.8869 21.9327C12.6496 21.8104 12.557 21.6011 12.5575 21.3357C12.5603 20.4585 12.5587 19.5813 12.5587 18.7041C12.5587 18.0339 12.557 17.3631 12.5587 16.6929C12.5598 16.2411 12.7881 16.0072 13.2308 16.0078C13.6712 16.0084 14.1161 15.9792 14.5515 16.0301C15.3045 16.1176 15.8874 16.682 16.0406 17.4008C16.2016 18.1562 15.9149 18.8733 15.2753 19.3148L15.1721 19.3869C15.2052 19.4583 15.2366 19.527 15.2697 19.5944C15.5098 20.0851 15.7527 20.574 15.9906 21.0658C16.1634 21.4232 16.0697 21.7698 15.7645 21.9299C15.4509 22.0946 15.1199 21.963 14.937 21.5942C14.6346 20.984 14.331 20.3744 14.0387 19.7591Z" fill="white"/>
<path d="M10.2056 19.6173H9.02907C9.02907 20.2195 9.03636 20.8033 9.02738 21.3872C9.02009 21.8395 8.59537 22.1249 8.20712 21.9453C7.98438 21.8424 7.85702 21.6571 7.85702 21.4066C7.85366 19.802 7.85197 18.198 7.85814 16.5934C7.85927 16.2611 8.12184 16.0112 8.43547 16.0078C8.75695 16.0044 9.02177 16.2583 9.02682 16.6014C9.03524 17.1921 9.02907 17.7834 9.02907 18.389H10.2062V17.1532C10.2062 16.9605 10.1994 16.7678 10.2101 16.5757C10.228 16.256 10.4788 16.0135 10.784 16.0084C11.0971 16.0032 11.3552 16.2491 11.3793 16.5774C11.3833 16.634 11.3816 16.6912 11.3816 16.7483V21.262C11.3816 21.3117 11.3827 21.362 11.3799 21.4118C11.3608 21.744 11.1128 21.9939 10.8003 21.9979C10.4794 22.0019 10.2151 21.7475 10.209 21.4043C10.2 20.8914 10.2056 20.3779 10.2056 19.8644V19.6173Z" fill="white"/>
<path d="M13.7007 18.4016V17.2162C13.9324 17.2162 14.163 17.1933 14.3874 17.2219C14.6775 17.2585 14.88 17.5404 14.8654 17.8332C14.8503 18.1363 14.6174 18.3816 14.3117 18.3999C14.117 18.4113 13.9206 18.4022 13.7012 18.4022L13.7007 18.4016Z" fill="#05A0BF"/>
</g>
<defs>
<clipPath id="clip0_2831_22966">
<rect width="24" height="24" fill="white"/>
</clipPath>
</defs>
</svg>
