<svg width="24" height="24" viewBox="0 0 24 24" fill="none" xmlns="http://www.w3.org/2000/svg">
<g clip-path="url(#clip0_1_721)">
<path d="M18.8807 9.11651C18.8802 9.56959 18.8797 10.0229 18.8795 10.4762C18.8792 10.8147 18.7193 11.0517 18.4288 11.144C18.1718 11.2254 17.8869 11.1294 17.7196 10.9048C17.6341 10.79 17.5976 10.6495 17.5978 10.4346L17.5985 9.91111C17.6007 7.94579 17.6028 5.91362 17.5976 3.91488C17.5945 2.69002 16.8287 1.68829 15.647 1.36302C15.4216 1.30111 15.175 1.27099 14.8931 1.27099H14.8919C13.6553 1.27122 12.4185 1.27122 11.182 1.27099C9.22949 1.27099 7.21056 1.27075 5.22461 1.2724C3.6544 1.27381 2.51395 2.40452 2.51323 3.96054C2.51062 8.55539 2.51062 13.1469 2.51323 17.6079C2.51418 19.1601 3.65559 20.2899 5.22745 20.2941C5.78819 20.2955 6.35818 20.2953 6.90943 20.2948C7.52332 20.2946 8.15809 20.2941 8.78195 20.2963C9.07549 20.2974 9.32038 20.4718 9.40652 20.7411C9.48815 20.9974 9.39062 21.2803 9.16329 21.4448C9.05128 21.5261 8.92148 21.5654 8.76676 21.5654H8.76557C8.35695 21.5651 7.94167 21.5663 7.53993 21.5677C6.71009 21.5705 5.85179 21.5734 5.0089 21.5595C2.95485 21.5258 1.26077 19.8203 1.2323 17.7573V17.7451C1.23182 17.7246 1.23135 17.7041 1.23135 17.6837V10.7841C1.23135 10.1008 1.23111 9.41731 1.23087 8.73404C1.2304 7.16131 1.22992 5.53491 1.23206 3.93535C1.23467 2.01004 2.50967 0.457555 4.40474 0.0717872C4.64228 0.0235368 4.89571 0 5.17928 0H5.18189C6.47897 0.000706104 7.77604 0.000470736 9.07311 0.000235368C10.9914 0 12.9748 -0.000470736 14.9256 0.00211831C17.1363 0.0051781 18.8728 1.7203 18.8788 3.90687C18.8837 5.64318 18.8821 7.40891 18.8807 9.11651Z" fill="#FF6723"/>
<path d="M16.602 12.9893H16.597C13.5399 12.9918 11.0527 15.4616 11.0527 18.4945C11.0527 21.5275 13.5401 23.9974 16.5974 24H16.6024C18.0832 24.0002 19.4768 23.4257 20.5273 22.3826C21.5793 21.338 22.1569 19.9526 22.1538 18.4818C22.1476 15.4521 19.6572 12.9893 16.602 12.9893ZM19.6142 21.4926C18.8053 22.2908 17.7341 22.7297 16.5963 22.7297H16.5799C14.2347 22.721 12.3299 20.8167 12.3334 18.4844C12.3353 17.356 12.7819 16.295 13.5906 15.4966C14.3994 14.6985 15.4717 14.2595 16.6112 14.2595H16.6262C18.9716 14.2675 20.8767 16.1717 20.8731 18.5039C20.8712 19.632 20.4241 20.6936 19.6142 21.4926Z" fill="#FF6723"/>
<path d="M14.7872 9.55981C14.7884 9.73233 14.7296 9.8832 14.6166 9.99594C14.4851 10.1273 14.2865 10.1998 14.0573 10.1998C11.4019 10.2009 8.70907 10.2009 6.0537 10.1998C5.82471 10.1998 5.62632 10.1273 5.49486 9.99571C5.38191 9.88273 5.32282 9.73186 5.32424 9.55957C5.32709 9.17757 5.61849 8.93043 6.06628 8.9302C6.63152 8.92972 7.19677 8.92973 7.76201 8.92973H10.0553H11.195C12.1449 8.92973 13.0946 8.92949 14.0442 8.9302C14.4927 8.93043 14.7844 9.17757 14.7872 9.55981Z" fill="#FF6723"/>
<path d="M12.3319 5.50117C12.3333 5.6737 12.2757 5.82316 12.1653 5.93354C12.0315 6.06747 11.8224 6.14137 11.5766 6.14161C10.9297 6.14232 10.2826 6.14208 9.63548 6.14208H8.81538H8.00263C7.36145 6.14208 6.72051 6.14232 6.07957 6.14161C5.83396 6.14137 5.6249 6.06747 5.49107 5.93354C5.38048 5.82292 5.32282 5.67346 5.32424 5.50117C5.32709 5.11894 5.61826 4.87204 6.06604 4.8718C7.8733 4.87086 9.73159 4.87086 11.5889 4.8718C12.0374 4.87204 12.3291 5.11917 12.3319 5.50117Z" fill="#FF6723"/>
<path d="M11.4022 12.8172C11.3979 13.1877 11.1015 13.4466 10.6813 13.447C9.26649 13.4487 7.75253 13.4487 6.05323 13.4473C5.82448 13.447 5.62586 13.3743 5.49463 13.2427C5.38168 13.1298 5.32259 12.9789 5.32425 12.8064C5.32734 12.4314 5.61566 12.1789 6.04161 12.1777C6.35294 12.177 6.66689 12.1768 6.97893 12.1768C7.21196 12.1768 7.4438 12.1768 7.67232 12.177C7.90416 12.1772 8.13624 12.1772 8.36832 12.1772C8.60039 12.1772 8.82013 12.1772 9.04604 12.177C9.57806 12.1768 10.1281 12.1765 10.6692 12.1777C10.8989 12.1782 11.0991 12.2525 11.2327 12.3867C11.3455 12.5002 11.4041 12.6489 11.4022 12.8172Z" fill="#FF6723"/>
<path d="M9.42929 16.0565C9.43071 16.4279 9.1526 16.6898 8.75299 16.6938C8.43572 16.6969 8.11252 16.696 7.8 16.6953C7.66023 16.695 7.52046 16.6948 7.38045 16.6948C7.24211 16.6941 7.10234 16.6948 6.96328 16.6953C6.65527 16.6957 6.33705 16.6962 6.02429 16.6941C5.81215 16.6927 5.62468 16.6206 5.49654 16.4912C5.38193 16.3756 5.32236 16.2236 5.32426 16.0518C5.3283 15.6843 5.61282 15.4266 6.01622 15.4252C6.97633 15.4219 7.86929 15.4221 8.74634 15.4254C9.14714 15.4269 9.42787 15.6865 9.42929 16.0565Z" fill="#FF6723"/>
<path d="M18.64 18.0752C18.3035 18.411 17.9599 18.7516 17.6277 19.0809C17.2782 19.4274 16.9168 19.7856 16.5625 20.1394C16.3921 20.3093 16.2201 20.375 15.9688 20.366H15.9643C15.8817 20.3651 15.7383 20.3178 15.6059 20.1869C15.5122 20.0944 15.4182 20.0021 15.3245 19.9099C15.0601 19.65 14.7868 19.3815 14.5246 19.1122C14.259 18.8399 14.2574 18.4574 14.5201 18.2032C14.6451 18.0822 14.7984 18.022 14.9553 18.022C15.1121 18.022 15.2849 18.0869 15.4275 18.2166C15.4334 18.2223 15.4394 18.2282 15.445 18.2341C15.4567 18.2458 15.4697 18.2592 15.4856 18.2729C15.5269 18.3087 15.5725 18.3649 15.6164 18.4193C15.7298 18.5598 15.8708 18.7344 16.0834 18.7128C16.2735 18.6935 16.4116 18.5299 16.5331 18.3856C16.5751 18.3357 16.6147 18.2889 16.6527 18.2512C16.8131 18.0935 16.9725 17.9351 17.132 17.7767C17.3304 17.5795 17.5354 17.3757 17.7385 17.1768C18.0401 16.8814 18.4234 16.8623 18.692 17.1292C18.9606 17.3961 18.9397 17.7763 18.64 18.0752Z" fill="#FF6723"/>
</g>
<defs>
<clipPath id="clip0_1_721">
<rect width="24" height="24" fill="white"/>
</clipPath>
</defs>
</svg>
