<svg width="24" height="24" viewBox="0 0 24 24" fill="none" xmlns="http://www.w3.org/2000/svg">
<path d="M16.9572 14.6796C16.3044 13.882 15.6133 13.0952 15.0163 12.4199C14.7154 12.0793 14.8977 11.8423 15.0609 11.6935C15.411 11.3749 15.7554 11.0359 16.0887 10.7081L16.255 10.545C17.7133 9.11415 18.6007 7.3908 18.8922 5.42336C19.02 4.56027 19.0051 3.66988 18.9908 2.80867C18.9861 2.52481 18.981 2.23084 18.9813 1.9411C18.982 0.858414 18.0978 0.00826762 16.9681 0.00567858C13.7817 -0.00185317 10.44 -0.00185317 7.03553 0.00544322C5.89128 0.00803226 5.02019 0.848764 5.00874 1.96182V1.96629C5.00071 2.74983 4.99243 3.56019 5.01239 4.35456C5.06133 6.30975 5.7099 8.09337 6.94033 9.6555C7.38318 10.218 7.91855 10.7231 8.43663 11.2117C8.60169 11.3673 8.77211 11.5281 8.9379 11.6893C9.10832 11.8548 9.26657 12.0864 8.97759 12.4107C8.47923 12.9697 7.98428 13.5497 7.50564 14.1105C7.40071 14.2339 7.29554 14.357 7.19037 14.4801C6.14252 15.7054 5.45768 17.1246 5.15482 18.6988C4.99219 19.5445 4.99925 20.4205 5.00631 21.268C5.00826 21.4822 5.00996 21.7039 5.00899 21.9221C5.00655 22.5322 5.20716 23.0507 5.5889 23.4219C5.97624 23.798 6.52134 23.9971 7.16651 23.9976C8.34582 23.9985 9.54509 23.9983 10.7049 23.9981H11.9921L12.0486 23.9978C12.5362 23.9978 13.0239 23.9983 13.5115 23.9988C14.6409 24.0002 15.809 24.0016 16.9574 23.9955C18.0997 23.9889 18.9718 23.1477 18.9856 22.0382C18.9942 21.3415 18.9971 20.7559 18.9834 20.1637C18.936 18.1101 18.2541 16.2651 16.9572 14.6799V14.6796ZM17.6515 21.9791C17.6478 22.5981 17.234 22.7283 16.8878 22.7287C15.3313 22.7299 13.7591 22.7306 12.1494 22.7306C10.5396 22.7306 8.83492 22.7299 7.09566 22.7285C6.8561 22.7285 6.65841 22.6591 6.52378 22.5284C6.4096 22.4176 6.34971 22.2705 6.35044 22.1027C6.35165 21.8541 6.34752 21.6001 6.34338 21.3547C6.33047 20.5356 6.31684 19.6885 6.48823 18.8504C6.76018 17.5198 7.36395 16.3096 8.28276 15.2532C8.79646 14.6625 9.31599 14.0592 9.81825 13.4757C10.0712 13.1818 10.3244 12.8878 10.5778 12.5941C10.9766 12.132 10.9615 11.8597 10.5143 11.4285C10.3166 11.2379 10.1136 11.0449 9.91733 10.8585C9.45939 10.423 8.98562 9.97254 8.5362 9.51145C7.11441 8.05241 6.37697 6.28245 6.34411 4.25029C6.3351 3.68141 6.33778 3.10405 6.34046 2.54576C6.34119 2.38501 6.34192 2.22449 6.3424 2.06373C6.34386 1.54616 6.60582 1.29431 7.14362 1.29408C8.33145 1.2929 9.53924 1.29314 10.7071 1.29314H12.0257L13.2909 1.29337C14.4585 1.29314 15.6267 1.29314 16.7945 1.29361C17.0239 1.29361 17.2822 1.31714 17.4587 1.49061C17.6352 1.66384 17.6537 1.92039 17.6505 2.12445C17.6454 2.43373 17.6495 2.75077 17.6537 3.05698C17.6622 3.67623 17.671 4.3169 17.6033 4.95169C17.4192 6.68281 16.7018 8.20117 15.4711 9.46485C15.0217 9.92641 14.5479 10.3776 14.09 10.814C13.8879 11.0065 13.6788 11.2056 13.475 11.4029C13.0251 11.8378 13.0136 12.0885 13.4221 12.5689C13.698 12.893 13.9794 13.222 14.2519 13.54C14.7755 14.152 15.3175 14.7851 15.8433 15.4135C17.0299 16.8326 17.6383 18.4898 17.6515 20.3391C17.6549 20.831 17.6547 21.3671 17.6513 21.9789L17.6515 21.9791Z" fill="#F8312F"/>
<path d="M16.1336 20.2262C16.135 20.4015 16.0798 20.5533 15.9735 20.6651C15.8433 20.8021 15.6385 20.8777 15.3971 20.8779C14.8341 20.8786 13.2708 20.8786 12.7079 20.8784H11.9867C11.7432 20.8781 11.4986 20.8784 11.2547 20.8784C10.7046 20.8786 9.13585 20.8788 8.57655 20.8777C8.35025 20.8772 8.15538 20.8028 8.02742 20.6684C7.91913 20.5547 7.86239 20.4025 7.86329 20.2281C7.86555 19.8392 8.1495 19.5879 8.58627 19.5876C9.373 19.5872 11.1787 19.5869 11.998 19.5869C12.8173 19.5869 14.5956 19.5872 15.4077 19.5876C15.8456 19.5879 16.1302 19.8385 16.1336 20.2262Z" fill="#F8312F"/>
<path d="M15.1336 17.6393C15.135 17.8146 15.0798 17.9664 14.9735 18.0782C14.8433 18.2152 14.6385 18.2908 14.3971 18.291C13.8341 18.2917 13.2708 18.2917 12.7079 18.2915H11.9867C11.7432 18.2912 11.4986 18.2915 11.2547 18.2915C10.7046 18.2917 10.1358 18.2919 9.57655 18.2908C9.35025 18.2903 9.15538 18.2159 9.02742 18.0815C8.91913 17.9678 8.86239 17.8155 8.86329 17.6411C8.86555 17.2523 9.1495 17.0009 9.58627 17.0007C10.373 17.0002 11.1787 17 11.998 17C12.8173 17 13.5956 17.0002 14.4077 17.0007C14.8456 17.0009 15.1302 17.2516 15.1336 17.6393Z" fill="#F8312F"/>
<path d="M15.1336 7.63926C15.135 7.81461 15.0798 7.96642 14.9735 8.07822C14.8433 8.2152 14.6385 8.29076 14.3971 8.29099C13.8341 8.2917 13.2708 8.2917 12.7079 8.29146H11.9867C11.7432 8.29123 11.4986 8.29146 11.2547 8.29146C10.7046 8.2917 10.1358 8.29194 9.57655 8.29076C9.35025 8.29029 9.15538 8.21591 9.02742 8.08152C8.91913 7.96783 8.86239 7.81555 8.86329 7.64114C8.86555 7.25231 9.1495 7.00094 9.58627 7.00071C10.373 7.00024 11.1787 7 11.998 7C12.8173 7 13.5956 7.00024 14.4077 7.00071C14.8456 7.00094 15.1302 7.25161 15.1336 7.63926Z" fill="#F8312F"/>
</svg>
