<svg width="24" height="24" viewBox="0 0 24 24" fill="none" xmlns="http://www.w3.org/2000/svg">
<g clip-path="url(#clip0_19_7453)">
<path d="M10.5538 19.7933C10.4849 19.789 10.4166 19.7893 10.3505 19.7897C10.3304 19.7897 10.3107 19.79 10.2907 19.79H8.48136C6.57381 19.79 4.66625 19.79 2.7587 19.7895C1.79527 19.7893 1.24259 19.2371 1.24236 18.2747C1.24189 13.1048 1.24189 7.93519 1.24236 2.76534C1.24236 1.79751 1.80022 1.24227 2.77282 1.2418C4.12393 1.24133 5.4748 1.24157 6.8259 1.2418H8.52255C9.06229 1.2418 9.60202 1.2418 10.142 1.24204C11.5261 1.24227 12.9574 1.24251 14.3653 1.2411H14.3674C14.9262 1.2411 15.335 1.44916 15.617 1.87753C15.7634 2.09972 15.8284 2.36404 15.8279 2.73498C15.8246 5.35203 15.8256 6.98086 15.827 9.43198C15.827 9.66735 15.896 9.86011 16.0259 9.98909C16.1365 10.0988 16.2855 10.1562 16.4576 10.1548C16.8344 10.152 17.0783 9.87447 17.0785 9.44775C17.079 8.89816 17.0797 9.34858 17.0802 8.799C17.0825 6.7786 17.0849 4.68947 17.0757 2.63471C17.0705 1.46234 16.3599 0.477797 15.2658 0.126863C15.1625 0.0936764 15.0575 0.0668445 14.9558 0.0407187C14.9095 0.0287149 14.8629 0.0169465 14.8167 0.00447199L14.8002 0H2.24109L2.22132 0.0065903C2.14411 0.0322454 2.06385 0.0560176 1.98594 0.0788483C1.76303 0.144516 1.53259 0.212302 1.31886 0.340813C0.624945 0.757179 0.19631 1.3609 0.0449584 2.13502C0.0435461 2.14232 0.0353076 2.15927 0.0284815 2.17268C0.0221261 2.18539 0.0160061 2.19834 0.0103569 2.21128L0 2.23529V18.8085L0.0204784 18.8403C0.0270692 18.8504 0.0336599 18.8591 0.0393091 18.8659C0.192073 19.9263 1.17363 21.0381 2.70951 21.0381C2.71704 21.0381 2.72481 21.0381 2.7321 21.0381C4.76794 21.0235 6.83814 21.0266 8.84032 21.0297C9.66558 21.0308 9.51885 21.032 10.3585 21.032C10.3792 21.032 10.3999 21.032 10.4206 21.0322C10.4623 21.0327 10.5051 21.0332 10.5496 21.0301C10.9001 21.0066 11.1557 20.7467 11.1576 20.4123C11.1595 20.0757 10.906 19.8154 10.5538 19.7933Z" fill="#0074BA"/>
<path d="M23.9031 23.0511C23.8478 22.9654 23.7779 22.8955 23.7103 22.8279L23.2756 22.3923C22.5461 21.6612 21.792 20.9055 21.0448 20.1671C20.9469 20.0704 20.941 20.0645 21.0194 19.9607C21.6879 19.0736 22.0182 18.0596 22.0007 16.9468C22.0007 16.895 22.0024 16.8414 22.0038 16.7893C22.0073 16.6707 22.0109 16.5478 21.9977 16.4245C21.8501 15.0606 21.1868 13.8428 20.1299 12.9954C19.0662 12.1427 17.7212 11.7579 16.3433 11.9123C15.6531 11.9895 14.9976 12.2081 14.395 12.5617C13.8157 12.9018 13.3139 13.349 12.9036 13.891C12.4936 14.4326 12.1993 15.0366 12.0294 15.6857C11.8526 16.361 11.8201 17.0504 11.9329 17.7348C12.2264 19.5158 13.3946 20.9794 15.0579 21.6499C15.6741 21.8985 16.3167 22.0206 16.9546 22.0204C18.0251 22.0204 19.0827 21.6763 19.9795 21.0071C20.0678 20.9412 20.0694 20.9426 20.1504 21.0245C20.9126 21.7947 21.6924 22.5728 22.4463 23.325L22.8156 23.6936C22.887 23.7649 22.9609 23.8386 23.0501 23.8979C23.1534 23.9664 23.2688 24.0003 23.3834 24.0003C23.5347 24.0003 23.6851 23.9417 23.8061 23.8268C24.0248 23.6192 24.0648 23.3003 23.9036 23.0511H23.9031ZM20.7782 16.9515C20.777 19.0573 19.0617 20.7729 16.9548 20.7755H16.9499C15.9283 20.7755 14.9653 20.3745 14.238 19.6458C13.5121 18.9187 13.114 17.9582 13.1171 16.9411C13.1232 14.8353 14.8396 13.1185 16.943 13.1143H16.9508C17.9667 13.1143 18.925 13.5123 19.6495 14.2358C20.378 14.9631 20.7789 15.9277 20.7782 16.9515Z" fill="#0074BA"/>
<path d="M11.3742 11.463C11.3841 11.8476 11.6366 12.1206 11.9881 12.1267C11.9923 12.1267 11.9963 12.1267 12.0005 12.1267C12.359 12.1267 12.6146 11.8527 12.6236 11.4561C12.6311 11.1266 12.6363 10.8035 12.6208 10.4742C12.5859 9.73937 12.3105 9.10482 11.8245 8.6395C11.3389 8.17441 10.6923 7.92539 9.95457 7.91904C9.63068 7.91621 9.30161 7.91692 8.98337 7.91762C8.83555 7.91786 8.68773 7.91833 8.53991 7.91833H8.41163V7.92233C8.29017 7.92186 8.16824 7.92092 8.04937 7.92021C7.69276 7.91762 7.32415 7.9148 6.96072 7.92539C5.80639 7.95881 4.83214 8.73976 4.53626 9.86859C4.43293 10.2624 4.44164 10.6592 4.44988 11.0428C4.45294 11.1822 4.456 11.3262 4.45341 11.4663C4.45011 11.6536 4.51461 11.8245 4.63536 11.9471C4.74952 12.0632 4.90487 12.1269 5.0727 12.1269H5.07411C5.42978 12.1262 5.68329 11.8553 5.69059 11.4684C5.69317 11.3267 5.69223 11.1836 5.69129 11.045C5.69011 10.8727 5.68894 10.6943 5.69482 10.5203C5.72142 9.72407 6.29293 9.16507 7.08477 9.16154C8.01853 9.15707 8.99279 9.15707 9.97999 9.16154C10.7829 9.16507 11.3546 9.72996 11.3702 10.5354C11.373 10.6792 11.3723 10.8265 11.3713 10.9689C11.3704 11.1306 11.3695 11.2977 11.3739 11.463H11.3742Z" fill="#0074BA"/>
<path d="M8.53666 7.17642H8.53807C9.69639 7.17642 10.6415 6.23778 10.6452 5.0833C10.6471 4.51935 10.4277 3.98813 10.0276 3.58777C9.62837 3.18835 9.09875 2.96875 8.53595 2.96875H8.52983C7.3748 2.97205 6.43609 3.91799 6.4375 5.07788C6.43821 5.64112 6.65594 6.16881 7.05091 6.56376C7.44589 6.95871 7.97338 7.17619 8.53666 7.17666V7.17642ZM9.40193 5.07553C9.40146 5.54179 9.00601 5.93533 8.53831 5.93533H8.5376C8.06354 5.93486 7.67798 5.54862 7.67821 5.07388C7.67821 4.84605 7.76954 4.62974 7.93478 4.46475C8.09861 4.3014 8.31257 4.21149 8.5376 4.21149H8.53925C9.00719 4.21243 9.40216 4.60809 9.40169 5.07553H9.40193Z" fill="#0074BA"/>
<path d="M3.70113 15.0976H3.70489C4.85545 15.0957 6.02531 15.0957 7.15657 15.0959H8.24451C8.36879 15.0969 8.49284 15.0964 8.61712 15.0969C8.73858 15.0974 8.86169 15.0976 8.98573 15.0976C9.15592 15.0976 9.32728 15.0969 9.49723 15.0943C9.69871 15.0915 9.87455 15.0183 9.99224 14.8881C10.1045 14.7641 10.1577 14.5946 10.1419 14.411C10.1128 14.0693 9.85242 13.856 9.46286 13.8551C8.77624 13.8532 8.07809 13.8534 7.40301 13.8537C7.12432 13.8537 6.84562 13.8537 6.56716 13.8539H6.20891C5.88055 13.8539 5.55195 13.8537 5.22359 13.8539C5.09366 13.8539 4.96396 13.8539 4.83403 13.8539C4.42258 13.8539 3.997 13.8539 3.57802 13.8574C3.31839 13.8596 3.11902 13.9987 3.01639 14.2493C2.92671 14.4687 2.96414 14.6855 3.12444 14.8766C3.28709 15.0703 3.5067 15.0971 3.70089 15.0971L3.70113 15.0976Z" fill="#0074BA"/>
<path d="M3.64291 18.063C4.0546 18.0649 4.47052 18.0654 4.88291 18.0654C5.15855 18.0654 5.43253 18.0654 5.70299 18.0649C5.97815 18.0649 6.25332 18.0644 6.52825 18.0644C6.80412 18.0637 7.07858 18.0644 7.35397 18.0647C8.04341 18.0651 8.75639 18.0654 9.4576 18.0637C9.68169 18.0633 9.87305 17.9877 9.99616 17.851C10.1099 17.7248 10.1598 17.5579 10.1405 17.3687C10.1051 17.0225 9.84622 16.8236 9.42983 16.8231C8.22113 16.8222 6.99242 16.8222 5.80397 16.8224H4.77393C4.60539 16.8224 4.43709 16.8226 4.26856 16.8229C4.05106 16.8231 3.83333 16.8233 3.61584 16.8231H3.61537C3.33456 16.8231 3.12954 16.9542 3.02197 17.2023C2.93864 17.395 2.9537 17.6019 3.06339 17.7698C3.18273 17.9522 3.39929 18.0618 3.64291 18.063Z" fill="#0074BA"/>
</g>
<defs>
<clipPath id="clip0_19_7453">
<rect width="24" height="24" fill="white"/>
</clipPath>
</defs>
</svg>
